<svg version="1.1" id="Layer_1" xmlns="http://www.w3.org/2000/svg" xmlns:xlink="http://www.w3.org/1999/xlink" x="0px" y="0px"
	 width="100%" viewBox="0 0 512 512" enable-background="new 0 0 512 512" xml:space="preserve">
<path fill="#F1F1F1" opacity="1.000000" stroke="none" 
	d="
M0.999999,289.000000 
	C1.000000,267.979095 1.000000,246.958206 1.382993,225.378662 
	C2.173194,223.988144 2.798047,223.194687 2.952544,222.318283 
	C4.013201,216.301727 4.783110,210.228714 5.999935,204.245743 
	C15.071866,159.640091 35.117153,120.417404 65.227814,86.498138 
	C82.148117,67.437630 101.439911,50.860386 123.505943,37.853912 
	C131.484650,33.150997 139.925674,29.232466 148.503723,25.210325 
	C148.851715,45.686287 148.851715,65.907928 148.851715,85.993813 
	C171.097076,85.993813 192.507980,85.993813 214.040237,85.993813 
	C214.040237,80.001266 214.040237,74.281540 214.040237,68.024384 
	C198.040024,68.024384 182.332840,68.024384 166.539658,68.024384 
	C166.539658,56.746273 166.539658,46.011711 166.539658,34.771973 
	C182.535049,34.771973 198.263336,34.771973 214.011353,34.771973 
	C214.011353,28.532984 214.011353,22.807470 214.011353,16.769720 
	C210.883270,16.769720 208.078217,16.795893 205.273788,16.765165 
	C193.486084,16.636009 181.698547,16.489845 170.106873,16.028296 
	C186.849213,9.206225 204.074768,5.460666 221.614807,2.933649 
	C222.811218,2.761280 223.874695,1.666037 225.000000,0.999998 
	C246.020889,1.000000 267.041779,1.000000 288.621338,1.382989 
	C289.843048,2.167404 290.462677,2.802395 291.175690,2.934954 
	C300.730957,4.711387 310.417267,5.943283 319.828827,8.284236 
	C328.073944,10.335060 336.014191,13.611730 343.715881,16.528482 
	C328.898010,16.710060 314.453339,16.710060 299.829773,16.710060 
	C299.829773,31.340034 299.829773,45.432716 299.829773,60.019432 
	C315.459747,60.019432 330.860687,60.019432 346.181763,60.019432 
	C346.181763,62.937073 346.181763,65.356972 346.181763,68.136131 
	C330.633484,68.136131 315.377350,68.136131 299.859009,68.136131 
	C299.859009,74.273232 299.859009,80.035896 299.859009,86.005196 
	C321.569244,86.005196 343.112274,86.005196 364.698730,86.005196 
	C364.698730,71.874222 364.698730,58.006950 364.698730,43.797012 
	C348.775665,43.797012 333.188721,43.797012 317.399689,43.797012 
	C317.399689,41.038368 317.399689,38.628220 317.399689,35.632580 
	C333.330719,35.632580 349.047272,35.632580 364.544647,35.632580 
	C365.027344,31.672495 365.436615,28.314621 366.215179,25.002838 
	C374.494751,29.255556 382.591644,33.148693 390.280975,37.726421 
	C415.353149,52.652737 436.848022,71.891479 455.398895,94.250435 
	C470.062500,111.924187 482.072235,131.367935 491.363495,152.519669 
	C501.172882,174.850937 507.877594,197.946167 511.072632,222.103180 
	C511.209198,223.135696 512.335022,224.037369 513.000000,225.000000 
	C513.000000,246.020889 513.000000,267.041779 512.619019,288.619385 
	C510.841797,295.709717 509.309174,302.217651 508.072357,308.781311 
	C502.145447,340.234558 489.719910,368.994659 472.700806,395.980408 
	C460.079865,415.992401 444.159607,433.102356 427.108490,449.248108 
	C423.195557,452.953278 418.453400,455.782684 414.033508,458.570648 
	C414.973297,446.346313 415.970337,434.566284 416.971985,422.786621 
	C419.426880,393.916351 421.855408,365.043793 424.347504,336.176727 
	C427.183319,303.328796 430.086914,270.486725 432.942017,237.640442 
	C435.523102,207.946152 438.088409,178.250504 440.639435,148.553619 
	C441.432007,139.326813 442.155304,130.094040 442.919525,120.751205 
	C318.721252,120.751205 195.027283,120.751205 71.028954,120.751205 
	C72.040390,132.554565 73.020058,143.984024 73.999138,155.413528 
	C76.457909,184.116486 78.905350,212.820435 81.377914,241.522217 
	C84.250572,274.868256 87.139397,308.212891 90.032158,341.557220 
	C92.219727,366.773041 94.464279,391.983948 96.605888,417.203674 
	C97.788803,431.133789 98.811958,445.077484 99.566193,458.968903 
	C83.749016,448.059814 70.877632,434.371918 58.856030,420.033203 
	C42.036900,399.972260 28.886892,377.531342 19.078976,353.192383 
	C11.867537,335.296753 6.684253,316.864624 3.867458,297.754700 
	C3.426134,294.760620 1.980985,291.914520 0.999999,289.000000 
M250.499908,86.266411 
	C263.604523,86.266411 276.709167,86.266411 289.923157,86.266411 
	C289.923157,71.915169 289.923157,58.064346 289.923157,43.801155 
	C273.996613,43.801155 258.409210,43.801155 242.857788,43.801155 
	C242.857788,40.943974 242.857788,38.512928 242.857788,35.585274 
	C258.702972,35.585274 274.275116,35.585274 289.880737,35.585274 
	C289.880737,29.026632 289.880737,22.984814 289.880737,17.044834 
	C268.089783,17.044834 246.685501,17.044834 225.173264,17.044834 
	C225.173264,31.390261 225.173264,45.456886 225.173264,60.030556 
	C240.800568,60.030556 256.188141,60.030556 271.600708,60.030556 
	C271.600708,62.951832 271.600708,65.357552 271.600708,68.276596 
	C255.938751,68.276596 240.548233,68.276596 225.244446,68.276596 
	C225.244446,74.556602 225.244446,80.308464 225.244446,86.266434 
	C233.541611,86.266434 241.520752,86.266434 250.499908,86.266411 
z"/>
<path fill="#026CC0" opacity="1.000000" stroke="none" 
	d="
M99.907135,459.015045 
	C98.811958,445.077484 97.788803,431.133789 96.605888,417.203674 
	C94.464279,391.983948 92.219727,366.773041 90.032158,341.557220 
	C87.139397,308.212891 84.250572,274.868256 81.377914,241.522217 
	C78.905350,212.820435 76.457909,184.116486 73.999138,155.413528 
	C73.020058,143.984024 72.040390,132.554565 71.028954,120.751205 
	C195.027283,120.751205 318.721252,120.751205 442.919525,120.751205 
	C442.155304,130.094040 441.432007,139.326813 440.639435,148.553619 
	C438.088409,178.250504 435.523102,207.946152 432.942017,237.640442 
	C430.086914,270.486725 427.183319,303.328796 424.347504,336.176727 
	C421.855408,365.043793 419.426880,393.916351 416.971985,422.786621 
	C415.970337,434.566284 414.973297,446.346313 413.837158,458.845001 
	C412.710907,460.454956 411.792145,461.442871 410.721863,462.222809 
	C394.930359,473.730347 378.216400,483.712219 360.314667,491.537781 
	C339.951172,500.439423 318.816406,506.854950 296.733521,509.947784 
	C290.796326,510.779297 284.909790,511.972687 279.000000,513.000000 
	C264.312439,513.000000 249.624878,513.000000 234.302231,512.610352 
	C226.941589,511.369507 220.161896,510.818237 213.499847,509.615387 
	C184.355286,504.353149 156.613266,494.919128 131.003586,479.969604 
	C120.231430,473.681427 110.248726,466.040833 99.907135,459.015045 
M257.000183,339.967468 
	C256.990784,363.535767 256.981415,387.104065 256.226288,410.745239 
	C243.424622,407.158051 230.630173,403.544922 217.819321,399.990845 
	C204.613007,396.327026 204.528229,396.354065 204.198334,382.483551 
	C204.021683,375.056061 204.166962,367.620972 204.166962,360.188751 
	C186.918655,360.188751 171.026581,360.188751 154.810593,360.188751 
	C156.746994,382.940125 158.739639,405.308868 160.464798,427.698273 
	C160.737122,431.232391 162.276962,432.285736 165.375000,433.152954 
	C195.940262,441.709106 226.458740,450.432373 256.997437,460.031494 
	C256.997437,475.232513 256.997437,490.433533 256.997437,505.658661 
	C258.489014,505.658661 259.003357,505.769043 259.451111,505.642944 
	C298.107208,494.755829 336.774994,483.908936 375.358795,472.770996 
	C377.256195,472.223236 379.531464,469.236145 379.739746,467.192200 
	C381.116608,453.681488 381.957153,440.116547 383.010071,426.572205 
	C383.690552,417.818207 384.401642,409.066254 385.158539,400.318573 
	C386.414307,385.804352 387.748169,371.296844 388.990662,356.781525 
	C389.782013,347.536621 390.411804,338.277832 391.213898,329.033936 
	C392.430237,315.016205 393.774261,301.009552 394.985107,286.991364 
	C395.783569,277.747437 396.386688,268.486664 397.178375,259.242096 
	C398.407257,244.892227 399.748352,230.552002 400.991302,216.203308 
	C401.777740,207.124771 402.447845,198.036179 403.214569,188.955856 
	C404.119934,178.234100 405.008209,167.510132 406.040985,156.800339 
	C406.401459,153.062378 405.040802,151.945358 401.293335,151.954330 
	C354.822388,152.065353 308.350891,152.080490 261.880127,151.934860 
	C257.725922,151.921829 256.880310,153.385681 256.929932,157.141266 
	C257.103760,170.297272 256.979797,183.457199 256.052948,196.800507 
	C217.786499,196.800507 179.520065,196.800507 140.981094,196.800507 
	C142.394547,213.195877 143.747101,228.884827 145.142700,245.073181 
	C175.739548,245.073181 205.879715,245.073181 237.443130,245.073181 
	C234.647690,246.522110 233.211838,247.289795 231.755981,248.017456 
	C207.507355,260.137024 183.255539,272.250214 159.005997,284.367950 
	C148.991486,289.372314 148.995819,289.375427 149.840286,300.345856 
	C149.929779,301.508453 149.929840,302.678284 150.030777,303.839630 
	C151.035110,315.395630 152.051926,326.950531 153.091843,338.809326 
	C160.582169,338.809326 167.555588,338.794495 174.528931,338.811920 
	C202.018356,338.880707 229.507751,338.959625 257.000183,339.967468 
z"/>
<path fill="#FFFFFF" opacity="1.000000" stroke="none" 
	d="
M279.468658,513.000000 
	C284.909790,511.972687 290.796326,510.779297 296.733521,509.947784 
	C318.816406,506.854950 339.951172,500.439423 360.314667,491.537781 
	C378.216400,483.712219 394.930359,473.730347 410.721863,462.222809 
	C411.792145,461.442871 412.710907,460.454956 413.896515,459.289459 
	C418.453400,455.782684 423.195557,452.953278 427.108490,449.248108 
	C444.159607,433.102356 460.079865,415.992401 472.700806,395.980408 
	C489.719910,368.994659 502.145447,340.234558 508.072357,308.781311 
	C509.309174,302.217651 510.841797,295.709717 512.619019,289.088074 
	C513.000000,363.595306 513.000000,438.190582 513.000000,513.000000 
	C435.312561,513.000000 357.624939,513.000000 279.468658,513.000000 
z"/>
<path fill="#FFFFFF" opacity="1.000000" stroke="none" 
	d="
M99.566193,458.968903 
	C110.248726,466.040833 120.231430,473.681427 131.003586,479.969604 
	C156.613266,494.919128 184.355286,504.353149 213.499847,509.615387 
	C220.161896,510.818237 226.941589,511.369507 233.833572,512.610352 
	C156.407730,513.000000 78.815468,513.000000 1.000000,513.000000 
	C1.000000,438.645935 1.000000,364.291626 0.999999,289.468658 
	C1.980985,291.914520 3.426134,294.760620 3.867458,297.754700 
	C6.684253,316.864624 11.867537,335.296753 19.078976,353.192383 
	C28.886892,377.531342 42.036900,399.972260 58.856030,420.033203 
	C70.877632,434.371918 83.749016,448.059814 99.566193,458.968903 
z"/>
<path fill="#FFFFFF" opacity="1.000000" stroke="none" 
	d="
M148.155731,24.956009 
	C139.925674,29.232466 131.484650,33.150997 123.505943,37.853912 
	C101.439911,50.860386 82.148117,67.437630 65.227814,86.498138 
	C35.117153,120.417404 15.071866,159.640091 5.999935,204.245743 
	C4.783110,210.228714 4.013201,216.301727 2.952544,222.318283 
	C2.798047,223.194687 2.173194,223.988144 1.382993,224.910004 
	C1.000000,150.406296 1.000000,75.812576 1.000000,1.000000 
	C75.354088,1.000000 149.708389,1.000000 224.531342,0.999998 
	C223.874695,1.666037 222.811218,2.761280 221.614807,2.933649 
	C204.074768,5.460666 186.849213,9.206225 169.641510,16.033400 
	C162.059067,16.360115 155.137909,16.360115 148.155731,16.360115 
	C148.155731,19.346964 148.155731,22.151487 148.155731,24.956009 
z"/>
<path fill="#FFFFFF" opacity="1.000000" stroke="none" 
	d="
M513.000000,224.531342 
	C512.335022,224.037369 511.209198,223.135696 511.072632,222.103180 
	C507.877594,197.946167 501.172882,174.850937 491.363495,152.519669 
	C482.072235,131.367935 470.062500,111.924187 455.398895,94.250435 
	C436.848022,71.891479 415.353149,52.652737 390.280975,37.726421 
	C382.591644,33.148693 374.494751,29.255556 366.270172,24.549351 
	C365.955872,21.449947 365.955872,18.850124 365.955872,16.346907 
	C358.334442,16.346907 351.211792,16.346907 344.089111,16.346905 
	C336.014191,13.611730 328.073944,10.335060 319.828827,8.284236 
	C310.417267,5.943283 300.730957,4.711387 291.175690,2.934954 
	C290.462677,2.802395 289.843048,2.167404 289.090027,1.382989 
	C363.593719,1.000000 438.187408,1.000000 513.000000,1.000000 
	C513.000000,75.354088 513.000000,149.708389 513.000000,224.531342 
z"/>
<path fill="#242325" opacity="1.000000" stroke="none" 
	d="
M343.715881,16.528484 
	C351.211792,16.346907 358.334442,16.346907 365.955872,16.346907 
	C365.955872,18.850124 365.955872,21.449947 365.900879,24.503258 
	C365.436615,28.314621 365.027344,31.672495 364.544647,35.632580 
	C349.047272,35.632580 333.330719,35.632580 317.399689,35.632580 
	C317.399689,38.628220 317.399689,41.038368 317.399689,43.797012 
	C333.188721,43.797012 348.775665,43.797012 364.698730,43.797012 
	C364.698730,58.006950 364.698730,71.874222 364.698730,86.005196 
	C343.112274,86.005196 321.569244,86.005196 299.859009,86.005196 
	C299.859009,80.035896 299.859009,74.273232 299.859009,68.136131 
	C315.377350,68.136131 330.633484,68.136131 346.181763,68.136131 
	C346.181763,65.356972 346.181763,62.937073 346.181763,60.019432 
	C330.860687,60.019432 315.459747,60.019432 299.829773,60.019432 
	C299.829773,45.432716 299.829773,31.340034 299.829773,16.710060 
	C314.453339,16.710060 328.898010,16.710060 343.715881,16.528484 
z"/>
<path fill="#242325" opacity="1.000000" stroke="none" 
	d="
M249.999908,86.266418 
	C241.520752,86.266434 233.541611,86.266434 225.244446,86.266434 
	C225.244446,80.308464 225.244446,74.556602 225.244446,68.276596 
	C240.548233,68.276596 255.938751,68.276596 271.600708,68.276596 
	C271.600708,65.357552 271.600708,62.951832 271.600708,60.030556 
	C256.188141,60.030556 240.800568,60.030556 225.173264,60.030556 
	C225.173264,45.456886 225.173264,31.390261 225.173264,17.044834 
	C246.685501,17.044834 268.089783,17.044834 289.880737,17.044834 
	C289.880737,22.984814 289.880737,29.026632 289.880737,35.585274 
	C274.275116,35.585274 258.702972,35.585274 242.857788,35.585274 
	C242.857788,38.512928 242.857788,40.943974 242.857788,43.801155 
	C258.409210,43.801155 273.996613,43.801155 289.923157,43.801155 
	C289.923157,58.064346 289.923157,71.915169 289.923157,86.266411 
	C276.709167,86.266411 263.604523,86.266411 249.999908,86.266418 
z"/>
<path fill="#242325" opacity="1.000000" stroke="none" 
	d="
M148.503723,25.210327 
	C148.155731,22.151487 148.155731,19.346964 148.155731,16.360115 
	C155.137909,16.360115 162.059067,16.360115 169.445587,16.355011 
	C181.698547,16.489845 193.486084,16.636009 205.273788,16.765165 
	C208.078217,16.795893 210.883270,16.769720 214.011353,16.769720 
	C214.011353,22.807470 214.011353,28.532984 214.011353,34.771973 
	C198.263336,34.771973 182.535049,34.771973 166.539658,34.771973 
	C166.539658,46.011711 166.539658,56.746273 166.539658,68.024384 
	C182.332840,68.024384 198.040024,68.024384 214.040237,68.024384 
	C214.040237,74.281540 214.040237,80.001266 214.040237,85.993813 
	C192.507980,85.993813 171.097076,85.993813 148.851715,85.993813 
	C148.851715,65.907928 148.851715,45.686287 148.503723,25.210327 
z"/>
<path fill="#FEFEFF" opacity="1.000000" stroke="none" 
	d="
M256.990479,459.108276 
	C226.458740,450.432373 195.940262,441.709106 165.375000,433.152954 
	C162.276962,432.285736 160.737122,431.232391 160.464798,427.698273 
	C158.739639,405.308868 156.746994,382.940125 154.810593,360.188751 
	C171.026581,360.188751 186.918655,360.188751 204.166962,360.188751 
	C204.166962,367.620972 204.021683,375.056061 204.198334,382.483551 
	C204.528229,396.354065 204.613007,396.327026 217.819321,399.990845 
	C230.630173,403.544922 243.424622,407.158051 256.975891,410.751251 
	C272.470551,406.781189 287.165497,402.601135 301.992340,398.958038 
	C306.231384,397.916412 307.516479,395.836334 307.780273,391.918976 
	C308.327393,383.793457 309.182495,375.688965 309.876495,367.572876 
	C310.679352,358.183502 311.445160,348.790924 312.257446,339.034760 
	C293.475647,339.034760 275.236389,339.034760 256.997162,339.034760 
	C229.507751,338.959625 202.018356,338.880707 174.528931,338.811920 
	C167.555588,338.794495 160.582169,338.809326 153.091843,338.809326 
	C152.051926,326.950531 151.035110,315.395630 150.030777,303.839630 
	C149.929840,302.678284 149.929779,301.508453 149.840286,300.345856 
	C148.995819,289.375427 148.991486,289.372314 159.005997,284.367950 
	C183.255539,272.250214 207.507355,260.137024 231.755981,248.017456 
	C233.211838,247.289795 234.647690,246.522110 237.443130,245.073181 
	C205.879715,245.073181 175.739548,245.073181 145.142700,245.073181 
	C143.747101,228.884827 142.394547,213.195877 140.981094,196.800507 
	C179.520065,196.800507 217.786499,196.800507 256.973419,196.798828 
	C296.147980,196.797134 334.402039,196.797134 373.000031,196.797134 
	C371.714264,211.569931 370.350830,225.630264 369.366852,239.717087 
	C369.133301,243.060287 367.792480,244.585800 364.974152,246.007339 
	C337.654388,259.787415 310.405457,273.708008 283.142273,287.600281 
	C281.621277,288.375336 280.152679,289.253265 278.659668,290.083313 
	C278.767273,290.386353 278.874878,290.689392 278.982452,290.992432 
	C307.530396,290.992432 336.078308,290.992432 364.920013,290.992432 
	C364.802399,293.045288 364.747101,294.675140 364.610229,296.298096 
	C363.071503,314.544891 361.514954,332.790222 359.973633,351.036835 
	C357.843719,376.251282 355.651917,401.460968 353.672821,426.687317 
	C353.370087,430.545807 352.061523,432.239197 348.159149,433.319427 
	C317.722290,441.744812 287.369354,450.473389 256.990479,459.108276 
z"/>
<path fill="#0196DC" opacity="1.000000" stroke="none" 
	d="
M256.993958,459.569885 
	C287.369354,450.473389 317.722290,441.744812 348.159149,433.319427 
	C352.061523,432.239197 353.370087,430.545807 353.672821,426.687317 
	C355.651917,401.460968 357.843719,376.251282 359.973633,351.036835 
	C361.514954,332.790222 363.071503,314.544891 364.610229,296.298096 
	C364.747101,294.675140 364.802399,293.045288 364.920013,290.992432 
	C336.078308,290.992432 307.530396,290.992432 278.982452,290.992432 
	C278.874878,290.689392 278.767273,290.386353 278.659668,290.083313 
	C280.152679,289.253265 281.621277,288.375336 283.142273,287.600281 
	C310.405457,273.708008 337.654388,259.787415 364.974152,246.007339 
	C367.792480,244.585800 369.133301,243.060287 369.366852,239.717087 
	C370.350830,225.630264 371.714264,211.569931 373.000031,196.797134 
	C334.402039,196.797134 296.147980,196.797134 257.431396,196.706390 
	C256.979797,183.457199 257.103760,170.297272 256.929932,157.141266 
	C256.880310,153.385681 257.725922,151.921829 261.880127,151.934860 
	C308.350891,152.080490 354.822388,152.065353 401.293335,151.954330 
	C405.040802,151.945358 406.401459,153.062378 406.040985,156.800339 
	C405.008209,167.510132 404.119934,178.234100 403.214569,188.955856 
	C402.447845,198.036179 401.777740,207.124771 400.991302,216.203308 
	C399.748352,230.552002 398.407257,244.892227 397.178375,259.242096 
	C396.386688,268.486664 395.783569,277.747437 394.985107,286.991364 
	C393.774261,301.009552 392.430237,315.016205 391.213898,329.033936 
	C390.411804,338.277832 389.782013,347.536621 388.990662,356.781525 
	C387.748169,371.296844 386.414307,385.804352 385.158539,400.318573 
	C384.401642,409.066254 383.690552,417.818207 383.010071,426.572205 
	C381.957153,440.116547 381.116608,453.681488 379.739746,467.192200 
	C379.531464,469.236145 377.256195,472.223236 375.358795,472.770996 
	C336.774994,483.908936 298.107208,494.755829 259.451111,505.642944 
	C259.003357,505.769043 258.489014,505.658661 256.997437,505.658661 
	C256.997437,490.433533 256.997437,475.232513 256.993958,459.569885 
z"/>
<path fill="#0196DC" opacity="1.000000" stroke="none" 
	d="
M256.998657,339.501099 
	C275.236389,339.034760 293.475647,339.034760 312.257446,339.034760 
	C311.445160,348.790924 310.679352,358.183502 309.876495,367.572876 
	C309.182495,375.688965 308.327393,383.793457 307.780273,391.918976 
	C307.516479,395.836334 306.231384,397.916412 301.992340,398.958038 
	C287.165497,402.601135 272.470551,406.781189 257.348755,410.714813 
	C256.981415,387.104065 256.990784,363.535767 256.998657,339.501099 
z"/>
</svg>