<svg version="1.1" id="Layer_1" xmlns="http://www.w3.org/2000/svg" xmlns:xlink="http://www.w3.org/1999/xlink" x="0px" y="0px"
	 width="100%" viewBox="0 0 934 425" enable-background="new 0 0 934 425" xml:space="preserve">
<path fill="#FFFFFF" opacity="1.000000" stroke="none" 
	d="
M853.000000,426.000000 
	C570.166748,426.000000 287.833527,425.991302 5.500336,426.093170 
	C1.751912,426.094513 0.902789,425.250488 0.905813,421.500244 
	C1.017634,282.833679 1.017609,144.167053 0.905953,5.500531 
	C0.902934,1.752150 1.749293,0.905525 5.499572,0.906756 
	C313.832764,1.007968 622.165955,1.007942 930.499207,0.906984 
	C934.246399,0.905757 935.097351,1.747813 935.094299,5.499284 
	C934.982361,144.165802 934.982361,282.832428 935.093933,421.498993 
	C935.096924,425.246185 934.256775,426.128235 930.500183,426.100220 
	C904.834595,425.908905 879.166992,426.000000 853.000000,426.000000 
z"/>
<path fill="#5D6065" opacity="1.000000" stroke="none" 
	d="
M321.105713,247.345428 
	C310.921631,249.862885 301.284607,242.304138 298.664948,231.801727 
	C296.495178,223.103058 296.446350,214.713593 300.034393,206.466873 
	C304.295288,196.673630 313.328583,191.258713 323.470245,192.230591 
	C333.583466,193.199753 341.304596,200.245575 343.707031,210.697510 
	C346.031372,220.809891 345.890076,220.965942 335.711060,220.931580 
	C324.896179,220.895081 314.080475,220.973450 303.266571,220.862305 
	C300.570953,220.834595 299.450867,221.401581 299.720520,224.463486 
	C300.815247,236.892197 307.079498,246.147644 320.572937,246.327820 
	C321.071564,246.627274 321.176361,246.835281 321.105713,247.345428 
z"/>
<path fill="#595C61" opacity="1.000000" stroke="none" 
	d="
M605.984741,246.704102 
	C610.445435,246.479965 614.603210,246.226959 618.643799,245.113098 
	C624.515137,243.494568 628.064331,239.146347 628.104126,233.761856 
	C628.141846,228.653870 625.230957,224.914627 619.325684,223.099197 
	C613.295166,221.245255 607.127075,219.838013 601.099976,217.973984 
	C593.759155,215.703629 590.866211,211.987167 591.019348,205.642029 
	C591.161743,199.743195 595.499451,194.675598 602.015869,193.060669 
	C608.138794,191.543259 614.258667,191.595764 620.141174,194.097763 
	C626.444763,196.778839 629.591309,202.712677 628.353455,209.238693 
	C625.892212,209.162796 626.772644,207.060562 626.488098,205.887131 
	C624.875732,199.236298 621.384888,196.042023 614.613525,194.878586 
	C610.243896,194.127823 605.954285,194.300308 601.752197,195.505447 
	C596.768921,196.934662 593.584106,200.975677 593.464050,205.564529 
	C593.327881,210.764191 595.551025,213.845291 601.303833,215.694901 
	C606.207031,217.271378 611.235413,218.454865 616.188354,219.881927 
	C618.256897,220.477951 620.300354,221.185272 622.308472,221.962540 
	C627.225708,223.865814 630.454529,227.419525 630.634827,232.706757 
	C630.829529,238.418533 628.284912,242.953903 623.000183,245.744736 
	C617.892639,248.442001 612.419006,248.309891 606.456909,248.066345 
	C605.902039,247.693970 605.803894,247.392029 605.984741,246.704102 
z"/>
<path fill="#5D6065" opacity="1.000000" stroke="none" 
	d="
M489.188843,240.143860 
	C481.138275,228.186417 481.136993,215.847107 487.524719,203.671158 
	C492.107727,194.935287 501.118225,191.006088 510.645874,192.391861 
	C520.216736,193.783951 527.228577,200.419952 529.689209,210.414749 
	C532.170471,220.493286 531.844299,220.919632 521.516907,220.928192 
	C511.195618,220.936737 500.866577,221.163605 490.556549,220.823105 
	C485.979401,220.671936 485.154633,222.391739 485.915131,226.326111 
	C486.709290,230.434631 487.615204,234.464081 490.007355,238.401917 
	C490.341827,239.370621 490.170013,239.858658 489.188843,240.143860 
z"/>
<path fill="#595C61" opacity="1.000000" stroke="none" 
	d="
M570.921265,223.415894 
	C563.610352,221.747528 556.702820,219.975998 549.871277,217.948700 
	C543.290344,215.995804 540.273560,212.220886 540.151794,206.337219 
	C540.032593,200.578415 543.529053,195.655289 549.495300,193.602097 
	C555.823792,191.424194 562.232910,191.471069 568.502808,193.841782 
	C575.705017,196.564987 579.522278,203.794998 576.854248,209.842926 
	C576.454895,209.164581 575.990662,208.680481 575.866882,208.121063 
	C573.091187,195.578110 557.624023,189.725235 547.108093,197.280441 
	C543.356934,199.975479 542.065979,203.630844 542.813110,208.180511 
	C543.585205,212.882614 546.997437,214.682755 550.945496,215.889954 
	C557.692871,217.953064 564.472046,219.912216 571.520264,222.125061 
	C571.654419,222.623657 571.506104,222.912262 570.921265,223.415894 
z"/>
<path fill="#5D6065" opacity="1.000000" stroke="none" 
	d="
M380.408386,233.164932 
	C377.406921,229.964813 374.689728,227.042786 372.462219,223.785858 
	C370.555389,220.997803 369.383423,221.687378 367.748138,224.239716 
	C367.212219,224.334213 366.957977,224.215637 366.408508,223.797180 
	C368.885223,220.505524 368.244141,218.023392 365.716370,214.952087 
	C360.149017,208.187546 355.040283,201.045578 350.429291,193.484512 
	C358.422180,200.275681 363.515625,209.565536 370.494598,217.511719 
	C375.936188,210.342529 381.244385,203.323486 386.590454,196.333374 
	C387.389862,195.288116 388.264862,194.248062 389.292297,193.445480 
	C390.209076,192.729324 390.687378,193.705734 391.163361,194.360916 
	C391.554779,194.899689 391.726654,195.136673 391.537231,194.497482 
	C390.785950,195.152603 389.901581,195.705002 389.304291,196.478928 
	C384.020996,203.324585 378.816559,210.231171 373.521118,217.067307 
	C372.232819,218.730453 371.968689,219.879669 373.591522,221.704742 
	C376.452179,224.921890 378.863464,228.538589 381.587830,232.324585 
	C381.443573,232.873352 381.174347,233.085526 380.408386,233.164932 
z"/>
<path fill="#70757C" opacity="1.000000" stroke="none" 
	d="
M405.058044,238.172104 
	C403.979736,237.776016 403.259460,237.130783 401.702911,235.736465 
	C401.702911,246.220871 401.702911,255.961517 401.702911,265.997681 
	C398.743286,265.321899 399.244324,263.616241 399.242279,262.291260 
	C399.208252,240.332626 399.216492,218.373901 399.179871,196.415268 
	C399.177582,195.037827 398.966034,193.351379 400.787384,193.472092 
	C402.273193,193.570541 401.714081,195.300873 401.835480,196.380310 
	C402.163818,199.299377 401.108002,202.337296 402.987793,205.017807 
	C403.644684,204.748611 403.903442,204.619431 404.580963,204.601257 
	C406.194000,205.940521 406.300232,207.501587 405.737885,208.899994 
	C402.382385,217.244064 403.541016,225.526154 405.846710,233.825668 
	C406.069061,234.625961 406.077637,235.468033 405.917969,236.726700 
	C405.687897,237.408829 405.552002,237.665894 405.058044,238.172104 
z"/>
<path fill="#595C61" opacity="1.000000" stroke="none" 
	d="
M466.130432,198.746475 
	C461.350677,204.740311 459.390991,211.227188 459.502197,218.496429 
	C459.631897,226.975235 459.609985,235.457642 459.513092,243.936890 
	C459.501831,244.920837 460.813599,246.735504 458.772003,246.973419 
	C456.436066,247.245651 457.377472,245.144440 457.372589,244.105560 
	C457.301453,228.976196 457.295959,213.846298 457.355743,198.716843 
	C457.362579,196.987122 456.614899,195.033981 458.305603,193.473724 
	C460.116150,193.947556 459.506897,195.433243 459.574371,196.591705 
	C459.649872,197.887955 459.269562,199.425339 460.802887,200.074921 
	C462.440369,200.768616 463.047028,199.132584 464.397949,198.105194 
	C465.383789,197.649628 465.845825,197.801178 466.130432,198.746475 
z"/>
<path fill="#5D6065" opacity="1.000000" stroke="none" 
	d="
M406.284363,200.804688 
	C416.436249,187.185654 437.392578,190.148346 443.777283,205.778229 
	C444.897583,208.520828 445.395142,211.517822 446.117737,214.708130 
	C445.645142,215.375046 445.169006,215.546356 444.255249,215.416870 
	C442.202332,213.929092 442.017761,211.858459 441.406555,209.984024 
	C437.185455,197.038574 424.254303,192.283493 412.674225,199.409683 
	C411.129150,200.360504 409.696228,201.566238 407.370819,201.628616 
	C406.741302,201.450333 406.503906,201.327713 406.284363,200.804688 
z"/>
<path fill="#686A6C" opacity="1.000000" stroke="none" 
	d="
M562.173218,247.290985 
	C549.881409,249.274796 541.980347,245.328156 538.984253,236.355042 
	C538.130798,233.798782 538.670471,231.530273 539.558105,228.654999 
	C540.842529,242.132553 549.099426,246.634232 561.602295,246.319321 
	C562.127747,246.609695 562.222717,246.804642 562.173218,247.290985 
z"/>
<path fill="#5D6065" opacity="1.000000" stroke="none" 
	d="
M445.799988,223.750809 
	C445.822083,236.719528 438.639526,245.678391 426.427124,247.946625 
	C425.729218,247.075836 426.001892,246.401184 426.663574,245.474442 
	C436.840973,241.656906 441.052734,233.612106 443.750549,223.906479 
	C444.500488,223.473007 444.989044,223.443054 445.799988,223.750809 
z"/>
<path fill="#686A6C" opacity="1.000000" stroke="none" 
	d="
M510.047668,246.643707 
	C518.812378,244.421204 525.303528,240.117538 527.143616,230.704636 
	C527.330322,229.749817 527.650024,228.450073 528.840759,228.727036 
	C530.429199,229.096451 529.875488,230.551849 529.606140,231.619141 
	C527.247253,240.964478 521.035095,246.160889 511.394775,248.026230 
	C510.591339,247.737122 510.260895,247.405258 510.047668,246.643707 
z"/>
<path fill="#5D6065" opacity="1.000000" stroke="none" 
	d="
M606.004578,246.137604 
	C606.211792,246.596512 606.159912,246.874893 606.054138,247.574585 
	C594.765076,246.432419 588.985046,240.560898 590.152039,231.042526 
	C592.585144,239.070541 596.993103,244.915298 606.004578,246.137604 
z"/>
<path fill="#686A6C" opacity="1.000000" stroke="none" 
	d="
M328.651276,245.837067 
	C334.917877,242.234100 339.860168,238.118835 341.131531,230.848877 
	C341.309570,229.830856 341.482300,228.172638 343.144257,228.769257 
	C344.273743,229.174698 343.757202,230.440582 343.553619,231.403046 
	C341.898468,239.228088 337.097260,244.269684 329.373596,247.053040 
	C328.827911,246.785843 328.650482,246.528366 328.651276,245.837067 
z"/>
<path fill="#5D6065" opacity="1.000000" stroke="none" 
	d="
M573.604309,243.064331 
	C579.105652,235.575851 578.823303,230.362427 571.876953,224.438324 
	C571.843811,223.787140 572.140747,223.510910 572.782654,223.146881 
	C580.821838,227.384308 582.011536,235.660172 575.573242,242.955353 
	C574.892578,243.187515 574.507446,243.267014 573.604309,243.064331 
z"/>
<path fill="#595C61" opacity="1.000000" stroke="none" 
	d="
M380.036987,233.351776 
	C380.212952,232.975998 380.514221,232.919846 381.264160,232.762421 
	C385.461853,237.205292 389.210907,241.749420 392.959961,246.293549 
	C392.514435,246.708176 392.068939,247.122803 391.623413,247.537430 
	C387.056427,243.639740 384.084839,238.194321 380.036987,233.351776 
z"/>
<path fill="#686A6C" opacity="1.000000" stroke="none" 
	d="
M366.590851,224.838226 
	C363.324158,229.935104 359.632233,234.867584 355.668427,239.962723 
	C355.041626,240.203995 354.686707,240.282608 353.894409,240.035538 
	C357.204987,234.818817 360.952911,229.927780 364.979553,224.901031 
	C365.560760,224.734802 365.863190,224.704300 366.590851,224.838226 
z"/>
<path fill="#686A6C" opacity="1.000000" stroke="none" 
	d="
M466.416504,199.030945 
	C465.837708,198.824020 465.596222,198.492630 465.075134,198.022095 
	C469.299194,193.137650 474.775696,191.814392 481.049011,193.148743 
	C476.183838,194.905869 470.729980,195.035141 466.416504,199.030945 
z"/>
<path fill="#595C61" opacity="1.000000" stroke="none" 
	d="
M404.804077,238.737671 
	C404.778625,238.088638 404.857208,237.756058 405.064636,236.927307 
	C405.870239,236.312302 406.627808,236.284744 407.070679,236.804184 
	C410.514465,240.842987 415.128662,243.067184 420.067139,245.454010 
	C420.502716,246.222321 420.548767,246.711609 420.200226,247.508698 
	C413.310272,247.698044 408.527527,244.377121 404.804077,238.737671 
z"/>
<path fill="#686A6C" opacity="1.000000" stroke="none" 
	d="
M488.853027,240.410950 
	C489.116852,239.828415 489.472351,239.581314 489.979858,239.041183 
	C492.647461,241.542801 495.511139,243.848953 499.374329,245.360199 
	C499.565521,246.124283 499.275787,246.513382 498.405884,246.828400 
	C494.131836,246.137375 491.395538,243.652359 488.853027,240.410950 
z"/>
<path fill="#595C61" opacity="1.000000" stroke="none" 
	d="
M353.225952,239.917755 
	C353.780823,239.776688 354.104553,239.843536 354.912415,240.017883 
	C353.454102,242.793274 351.988556,245.974869 347.983154,246.525528 
	C349.653687,244.392227 351.324249,242.258942 353.225952,239.917755 
z"/>
<path fill="#595C61" opacity="1.000000" stroke="none" 
	d="
M562.427124,247.738647 
	C562.075867,247.324615 562.092041,247.064880 562.055054,246.608978 
	C565.361206,245.460327 568.977600,245.437103 572.336914,243.207397 
	C573.733521,243.667633 573.475891,244.381622 572.509644,245.263123 
	C569.304443,247.292358 566.241333,248.251007 562.427124,247.738647 
z"/>
<path fill="#595C61" opacity="1.000000" stroke="none" 
	d="
M509.639099,246.261292 
	C510.352448,246.699646 510.616547,247.109131 510.939453,247.755737 
	C508.295990,248.030640 505.593781,248.068390 502.446594,248.029785 
	C501.650024,247.593887 501.513336,247.161224 501.782959,246.380936 
	C504.398438,246.141998 506.794128,246.187210 509.639099,246.261292 
z"/>
<path fill="#70757C" opacity="1.000000" stroke="none" 
	d="
M420.300720,247.840607 
	C419.954895,247.456192 419.947235,247.110825 419.949463,246.506516 
	C421.842072,244.146210 424.041565,244.477798 426.670410,245.771713 
	C426.758423,246.547104 426.496552,246.970200 426.140198,247.623993 
	C424.243439,247.863007 422.441132,247.871307 420.300720,247.840607 
z"/>
<path fill="#595C61" opacity="1.000000" stroke="none" 
	d="
M446.193604,223.519196 
	C445.721405,223.971710 445.330170,223.983063 444.645325,223.994400 
	C442.597168,221.311035 443.265656,218.409973 443.898254,215.272202 
	C444.615845,215.003052 445.027130,215.001373 445.746796,215.009293 
	C446.128296,217.705276 446.201477,220.391647 446.193604,223.519196 
z"/>
<path fill="#5D6065" opacity="1.000000" stroke="none" 
	d="
M405.649475,205.103882 
	C404.991791,205.123123 404.669525,205.083298 403.866577,204.960648 
	C403.930695,203.374084 404.493805,201.881058 406.034790,200.603775 
	C406.511658,200.584961 406.721069,200.765625 407.234863,201.228210 
	C407.777344,203.020920 407.171326,204.160492 405.649475,205.103882 
z"/>
<path fill="#686A6C" opacity="1.000000" stroke="none" 
	d="
M321.205261,247.798523 
	C320.935089,247.340637 320.938934,247.033691 320.954285,246.572998 
	C321.730804,246.355209 322.494843,246.291153 323.638245,246.293549 
	C324.330444,246.635971 324.466797,246.981598 324.219360,247.609741 
	C323.168121,247.864899 322.324219,247.907181 321.205261,247.798523 
z"/>
<path fill="#5D6065" opacity="1.000000" stroke="none" 
	d="
M501.729675,245.959015 
	C501.999237,246.509369 501.995728,246.921951 501.996948,247.643982 
	C500.890381,247.694626 499.779114,247.435822 498.349487,247.042084 
	C498.358856,246.573654 498.686554,246.240158 499.331787,245.744339 
	C500.251770,245.661743 500.854156,245.741501 501.729675,245.959015 
z"/>
<path fill="#5D6065" opacity="1.000000" stroke="none" 
	d="
M324.365692,247.934570 
	C324.014893,247.497543 324.020203,247.172485 324.022766,246.603729 
	C325.350098,246.073166 326.682648,245.786362 328.422302,245.451385 
	C328.867615,245.675629 328.905731,245.948029 328.974548,246.631866 
	C327.576660,247.377686 326.148010,247.712097 324.365692,247.934570 
z"/>
<path fill="#5D6065" opacity="1.000000" stroke="none" 
	d="
M572.359863,245.377747 
	C572.337158,244.832642 572.556458,244.262817 572.747131,243.379944 
	C572.718506,243.066864 572.758423,243.083359 572.776428,243.071991 
	C573.068359,243.353271 573.405396,243.514343 574.001587,243.760315 
	C574.090698,244.926697 573.395142,245.196411 572.359863,245.377747 
z"/>
<path fill="#595C61" opacity="1.000000" stroke="none" 
	d="
M572.840576,222.774109 
	C572.748108,223.253128 572.484375,223.576660 571.933716,224.037598 
	C571.336853,224.199432 571.052307,224.125717 570.638916,223.792389 
	C570.694641,223.405579 570.904724,223.180237 571.458740,222.644989 
	C572.122253,222.336014 572.411133,222.430527 572.840576,222.774109 
z"/>
<path fill="#595C61" opacity="1.000000" stroke="none" 
	d="
M574.513916,243.815643 
	C573.829895,243.845886 573.461487,243.716156 572.943787,243.323547 
	C572.794434,243.060638 572.968140,242.853180 573.027222,242.817627 
	C573.452209,242.831757 573.818176,242.881424 574.730896,243.019531 
	C575.128296,243.290543 574.978882,243.473129 574.513916,243.815643 
z"/>
<path fill="#5D6065" opacity="1.000000" stroke="none" 
	d="
M367.174194,224.902435 
	C366.722321,224.975403 366.428558,224.948151 365.696564,224.843124 
	C365.412659,224.456543 365.566925,224.147751 365.917267,223.668121 
	C366.348816,223.642227 366.584351,223.787170 367.143158,224.192444 
	C367.466431,224.452774 367.332275,224.802246 367.174194,224.902435 
z"/>
<path fill="#F8F8F9" opacity="1.000000" stroke="none" 
	d="
M319.000153,218.537323 
	C313.354248,218.556137 308.205505,218.479614 303.063568,218.632263 
	C300.377869,218.712006 299.727539,217.656082 299.856537,215.091476 
	C300.418152,203.926529 310.440979,194.202515 321.404816,194.387955 
	C332.837982,194.581329 341.519379,203.391556 342.146393,215.037491 
	C342.317627,218.217804 340.926483,218.649628 338.425018,218.621246 
	C332.117218,218.549698 325.808472,218.559738 319.000153,218.537323 
z"/>
<path fill="#F8F8F9" opacity="1.000000" stroke="none" 
	d="
M514.007690,195.479919 
	C522.635864,198.922455 527.775391,206.394775 528.106018,215.208542 
	C528.191467,217.485733 527.755005,218.569504 525.224670,218.556168 
	C513.102234,218.492233 500.978485,218.479477 488.856720,218.600037 
	C484.821564,218.640182 485.695923,215.951172 486.077057,213.859177 
	C488.114319,202.678284 496.815826,191.297913 514.007690,195.479919 
z"/>
<path fill="#FCFCFC" opacity="1.000000" stroke="none" 
	d="
M405.216156,205.543381 
	C406.000183,204.145294 406.686310,203.127655 407.455841,201.810074 
	C418.578064,189.588272 440.387909,191.845016 444.071777,214.640244 
	C444.032013,217.756058 445.267822,220.494873 444.314697,223.623901 
	C443.367950,229.246918 442.104950,234.391144 438.762482,238.753296 
	C435.925568,242.455673 432.238342,244.825104 427.360138,246.001907 
	C424.959808,246.135559 422.899292,246.147125 420.399048,246.203140 
	C414.090790,244.835388 408.992218,242.252899 405.460266,236.657455 
	C401.066345,226.272156 400.181244,216.105179 405.216156,205.543381 
z"/>
<path fill="#FFFFFF" opacity="1.000000" stroke="none" 
	d="
M460.265991,201.735611 
	C460.118164,200.898483 460.335297,200.385773 460.606720,199.903595 
	C460.622406,199.875717 461.196808,200.025131 461.310791,200.213379 
	C461.826477,201.065094 461.158142,201.550323 460.265991,201.735611 
z"/>
</svg>