<svg version="1.1" id="Layer_1" xmlns="http://www.w3.org/2000/svg" xmlns:xlink="http://www.w3.org/1999/xlink" x="0px" y="0px"
	 width="100%" viewBox="0 0 512 512" enable-background="new 0 0 512 512" xml:space="preserve">
<path fill="#000000" opacity="1.000000" stroke="none" 
	d="
M249.230499,512.610596 
	C167.684143,513.000000 86.368256,512.975525 5.052551,513.087952 
	C1.744662,513.092468 0.896585,512.585693 0.899019,509.054077 
	C1.014784,341.090240 1.018296,173.126328 0.885172,5.162537 
	C0.882122,1.314645 1.971727,0.921840 5.335768,0.923586 
	C173.132996,1.010680 340.930267,1.013473 508.727478,0.908350 
	C512.269409,0.906131 513.104248,1.555942 513.101685,5.225783 
	C512.984558,173.022964 512.981689,340.820251 513.110413,508.617432 
	C513.113525,512.626343 511.917999,513.085815 508.384308,513.081238 
	C427.235413,512.975830 346.086334,513.000000 264.468658,513.000000 
	C262.488892,509.237122 265.585114,508.770294 267.793671,508.073944 
	C276.374512,505.368439 285.094666,503.131653 293.764038,500.730042 
	C327.641968,491.345123 361.493713,481.864502 395.407867,472.613037 
	C401.096344,471.061279 403.914276,467.867004 404.319519,462.183411 
	C405.787384,441.594910 407.933105,421.064575 409.655884,400.497314 
	C411.017212,384.244690 412.666718,368.012848 414.080719,351.763519 
	C415.523743,335.180725 417.091888,318.609497 418.525238,302.026306 
	C420.331238,281.131958 422.374084,260.257812 424.121918,239.360245 
	C425.870056,218.459595 427.931000,197.587967 429.645691,176.684189 
	C430.979126,160.428528 432.556763,144.190155 434.072784,127.948357 
	C434.614044,122.149399 435.263153,116.346680 435.445312,110.529716 
	C435.610107,105.267746 433.950317,103.769867 428.634674,103.500511 
	C426.970734,103.416191 425.302490,103.461906 423.636169,103.461884 
	C312.489410,103.460564 201.342667,103.459587 90.195908,103.462708 
	C78.498070,103.463036 77.796120,104.723640 78.927605,116.670860 
	C80.543800,133.736084 82.097099,150.811295 83.498283,167.898621 
	C84.831467,184.156708 86.460358,200.389847 87.860794,216.642914 
	C89.332504,233.723267 90.931831,250.792267 92.458939,267.867706 
	C93.986084,284.943451 95.567009,302.015198 97.036797,319.095032 
	C98.463921,335.678864 100.027237,352.249908 101.465744,368.832336 
	C102.947350,385.911682 104.534874,402.982086 106.032341,420.059601 
	C107.166359,432.992188 108.501305,445.909821 109.415718,458.858734 
	C110.129822,468.971130 111.352844,470.703918 121.125526,473.390228 
	C161.126755,484.385803 201.090790,495.516235 241.023926,506.755188 
	C244.184387,507.644745 248.795776,507.134979 249.230499,512.610596 
z"/>
<path fill="#E44D26" opacity="1.000000" stroke="none" 
	d="
M249.466125,513.000000 
	C249.657410,510.917480 248.061996,511.297668 246.915100,510.976654 
	C218.847504,503.120880 190.792450,495.220276 162.728989,487.349609 
	C146.893921,482.908539 131.055023,478.480743 115.203590,474.098541 
	C108.056068,472.122559 107.861916,472.195404 107.055298,463.035339 
	C105.885071,449.746399 105.147163,436.419159 103.956543,423.132294 
	C102.828323,410.541870 100.858406,398.008575 100.192665,385.400848 
	C99.679031,375.673706 98.509491,366.019531 97.880356,356.311127 
	C97.041962,343.373566 95.062065,330.511597 94.154160,317.576324 
	C93.565788,309.193604 92.739685,300.841919 91.998016,292.478241 
	C90.764153,278.564362 89.865021,264.625122 88.137398,250.749115 
	C87.039612,241.931824 86.784073,233.012924 85.977463,224.155380 
	C84.755867,210.740845 83.327118,197.345215 82.095047,183.931580 
	C81.296669,175.239609 80.761711,166.523621 79.984558,157.829498 
	C78.726135,143.751358 77.332161,129.685333 76.069847,115.607506 
	C75.717430,111.677231 76.325348,107.691017 75.074440,103.796471 
	C74.565224,102.211082 75.180313,100.844879 77.345421,100.995071 
	C78.671700,101.087067 80.010094,101.000679 81.343048,101.000671 
	C198.479019,101.000107 315.614990,101.000008 432.750977,101.000496 
	C439.155457,101.000519 438.827179,100.966728 438.137848,107.217438 
	C437.145081,116.218903 436.796051,125.289261 435.974060,134.312149 
	C434.767059,147.561356 433.064758,160.773499 432.190979,174.042099 
	C431.616760,182.761337 430.840424,191.448990 430.008362,200.140198 
	C428.661377,214.210220 427.327362,228.281723 426.065643,242.359573 
	C425.301331,250.887512 424.757751,259.435333 423.983063,267.962219 
	C422.734283,281.707825 421.124969,295.425903 420.159729,309.190094 
	C419.583405,317.408325 418.758057,325.592072 418.036652,333.791840 
	C416.783325,348.038086 415.834900,362.305023 414.122131,376.516907 
	C412.999451,385.832123 412.819824,395.256836 411.965698,404.609528 
	C410.785950,417.528534 409.090912,430.406494 408.188232,443.341919 
	C407.820953,448.605469 407.339844,453.866180 406.982758,459.132874 
	C406.727112,462.903442 406.236511,466.658386 405.994446,470.429504 
	C405.826202,473.050934 403.658325,472.977203 402.068420,473.424133 
	C384.668182,478.315186 367.247253,483.132721 349.825134,487.945679 
	C327.692932,494.059784 305.526825,500.053650 283.435364,506.311310 
	C276.761078,508.201904 269.807678,509.219788 263.743652,512.650879 
	C259.310730,513.000000 254.621490,513.000000 249.466125,513.000000 
z"/>
<path fill="#F16529" opacity="1.000000" stroke="none" 
	d="
M257.595947,177.612549 
	C257.008698,163.919113 257.155426,150.924484 256.923401,137.936615 
	C256.840332,133.286743 258.594635,131.917038 263.073242,131.928284 
	C308.378235,132.042053 353.683685,131.988235 398.988983,132.009949 
	C404.560577,132.012619 405.432281,132.839706 404.926453,138.483261 
	C403.102081,158.837616 401.075439,179.173798 399.235870,199.526871 
	C397.740112,216.075821 396.460480,232.644241 394.980652,249.194687 
	C393.131012,269.880615 391.138306,290.553741 389.275604,311.238525 
	C387.800171,327.622528 386.468079,344.019440 384.999054,360.404053 
	C383.114807,381.420471 381.130188,402.427887 379.248322,423.444489 
	C378.714783,429.402924 378.264252,435.374573 378.007385,441.350098 
	C377.807251,446.006104 376.291901,448.831207 371.221313,450.202667 
	C335.379150,459.896820 299.627319,469.924500 263.828064,479.778290 
	C257.454132,481.532745 257.019775,481.100800 257.007721,474.413055 
	C256.984283,461.421234 256.998962,448.429382 257.003967,435.004761 
	C257.057098,434.284454 257.104126,433.996857 257.426880,433.370850 
	C260.602173,430.529083 264.263367,429.886993 267.787750,428.922791 
	C291.729370,422.372833 315.648590,415.741394 339.532776,408.985718 
	C347.151031,406.830841 347.889893,405.449707 348.624390,397.392395 
	C350.497589,376.843414 352.371857,356.293671 354.208435,335.742096 
	C355.897034,316.845947 357.557098,297.947296 359.305023,279.056152 
	C359.839600,273.278839 357.873749,271.496063 351.084167,271.481689 
	C323.091858,271.422394 295.099457,271.478760 267.107117,271.439148 
	C263.959991,271.434692 260.755005,271.751129 257.328308,270.229065 
	C256.676025,269.843201 256.438416,269.645813 255.958557,269.046844 
	C255.490631,268.025848 255.093262,267.419952 255.062454,266.785858 
	C254.374893,252.639893 253.888611,238.493286 255.501678,223.912766 
	C255.831451,223.189850 255.989166,222.914383 256.502014,222.326172 
	C259.924805,220.301987 263.300507,220.559143 266.612549,220.554611 
	C295.564117,220.514923 324.515686,220.553818 353.467285,220.526855 
	C363.014435,220.517975 364.797668,218.846191 365.461761,209.415863 
	C365.928894,202.782120 366.554779,196.164017 367.256897,189.551239 
	C368.080017,181.798615 366.108826,179.509155 358.327606,179.491592 
	C328.045013,179.423233 297.762207,179.494705 267.479614,179.434616 
	C264.355682,179.428421 261.134552,179.877930 257.595947,177.612549 
z"/>
<path fill="#EBE9E9" opacity="1.000000" stroke="none" 
	d="
M257.704315,314.402893 
	C238.865921,315.005676 220.720322,314.899567 202.574570,314.850159 
	C188.252579,314.811157 173.929306,314.746887 159.609116,314.911896 
	C156.242004,314.950714 155.132858,314.024780 154.829330,310.530792 
	C151.085007,267.429901 147.208298,224.340134 143.180603,181.264816 
	C142.793503,177.124893 144.647781,177.113464 147.677765,177.117203 
	C183.815643,177.161713 219.953629,177.120636 256.551544,177.006516 
	C257.011505,176.911072 257.008606,177.156891 256.981750,177.276840 
	C259.021301,178.529999 259.271667,180.538483 259.314941,182.556931 
	C259.564209,194.185303 259.567139,205.815063 259.308838,217.443222 
	C259.272308,219.086700 259.188507,220.803467 257.357666,222.310806 
	C256.953613,222.603058 257.007446,222.843079 257.011108,222.966034 
	C254.765793,225.733856 251.646576,225.408340 248.689316,225.426025 
	C234.385132,225.511597 220.080460,225.424805 205.776123,225.475693 
	C197.460510,225.505264 195.803360,227.281158 196.651642,235.629562 
	C197.407669,243.069946 197.927872,250.527603 198.597885,257.973419 
	C199.177536,264.415039 201.306046,266.434235 207.832520,266.495697 
	C221.304535,266.622528 234.778152,266.473602 248.250397,266.579651 
	C251.020264,266.601440 253.968216,266.123291 256.684570,268.524597 
	C257.030060,268.806519 257.026367,268.992065 256.997864,269.080383 
	C258.448608,270.193024 259.183014,271.630249 259.225708,273.403931 
	C259.534241,286.223969 259.784576,299.044281 259.077637,311.860168 
	C259.040649,312.531097 258.758179,313.147919 257.704315,314.402893 
z"/>
<path fill="#EBEAE9" opacity="1.000000" stroke="none" 
	d="
M257.081970,434.469543 
	C226.888718,426.259827 196.772873,417.927429 166.635010,409.675446 
	C164.327850,409.043701 163.444183,407.824554 163.247665,405.533813 
	C161.384964,383.820770 159.476456,362.111572 157.504700,340.408203 
	C157.291168,338.057831 157.875748,337.110107 160.383881,337.125885 
	C173.537811,337.208771 186.693436,337.244141 199.846252,337.097656 
	C202.586761,337.067139 203.235886,338.251740 203.433289,340.570007 
	C204.237808,350.018158 205.334503,359.447144 205.879440,368.908752 
	C206.077423,372.346252 207.198654,373.800385 210.497910,374.648621 
	C225.789917,378.580017 241.017960,382.760254 257.056183,387.084167 
	C259.363342,389.110016 259.360779,391.312286 259.386261,393.458038 
	C259.520264,404.740204 259.536041,416.023376 259.375031,427.305237 
	C259.344604,429.435333 259.421692,431.671234 257.385254,433.752930 
	C257.064240,434.133301 257.153839,434.367065 257.081970,434.469543 
z"/>
<path fill="#F1662A" opacity="1.000000" stroke="none" 
	d="
M257.033020,386.838440 
	C257.026520,363.161652 257.018768,339.587677 257.011292,315.550537 
	C257.011597,315.087372 257.004730,314.842194 256.978577,314.722351 
	C258.818390,312.947876 261.083160,312.608002 263.461792,312.593872 
	C277.780121,312.508942 292.099518,312.417236 306.416077,312.638947 
	C313.195465,312.743927 314.310211,313.849426 314.344971,320.584534 
	C314.396576,330.580292 312.709015,340.465485 312.090149,350.427002 
	C311.688507,356.892578 310.804352,363.337952 310.360657,369.807922 
	C310.110229,373.459717 308.511780,375.515930 304.951965,376.573303 
	C291.064148,380.698425 276.987152,384.116943 263.025665,387.963684 
	C261.298737,388.439484 259.432465,388.891663 257.345154,387.423828 
	C256.971313,387.137695 257.031769,386.941223 257.033020,386.838440 
z"/>
<path fill="#FFFEFE" opacity="1.000000" stroke="none" 
	d="
M256.970337,387.597717 
	C272.487183,382.895599 287.979126,378.561951 303.540192,374.492676 
	C306.464783,373.727905 307.603027,372.438538 307.840668,369.513184 
	C309.198334,352.799011 310.577606,336.084351 312.239288,319.398712 
	C312.634888,315.426483 311.337311,314.726685 307.729034,314.760437 
	C291.113251,314.915802 274.494995,314.804504 257.415009,314.695679 
	C256.957245,299.763275 256.962097,284.923981 256.968170,269.626709 
	C291.102234,269.112610 325.235291,269.091614 359.367737,268.940613 
	C362.434662,268.927063 362.395966,270.296234 362.189941,272.590912 
	C360.359833,292.974609 358.631805,313.367432 356.834808,333.754150 
	C354.833313,356.460724 352.641602,379.152161 350.879456,401.877045 
	C350.475006,407.092804 348.721466,409.394714 343.460876,410.780182 
	C314.858246,418.313232 286.382965,426.330048 257.464050,434.156799 
	C257.032593,418.774780 257.000977,403.416260 256.970337,387.597717 
z"/>
<path fill="#FFFFFF" opacity="1.000000" stroke="none" 
	d="
M257.416260,222.696320 
	C256.961975,207.829773 256.970337,193.056503 256.966797,177.839996 
	C276.446686,177.319260 295.938416,177.216125 315.430298,177.171997 
	C332.095367,177.134262 348.761810,177.273209 365.424835,177.084396 
	C369.383057,177.039551 370.912079,177.542526 370.343567,182.187317 
	C368.867706,194.245758 367.908783,206.376953 367.115082,218.503448 
	C366.883759,222.038177 365.740326,222.912918 362.368439,222.901093 
	C327.538910,222.778793 292.708801,222.804840 257.416260,222.696320 
z"/>
<path fill="#E44D26" opacity="1.000000" stroke="none" 
	d="
M257.025757,268.349976 
	C238.072052,268.868469 219.113846,268.901001 200.156296,269.031067 
	C197.895157,269.046539 196.990311,268.429779 196.788971,266.029846 
	C195.677612,252.782654 194.499771,239.538513 193.091125,226.320358 
	C192.687607,222.533752 194.784058,222.824463 197.212601,222.829636 
	C216.839828,222.871429 236.467117,222.879440 256.554565,222.993378 
	C257.016998,238.023804 257.019226,252.958633 257.025757,268.349976 
z"/>
</svg>