<svg version="1.1" id="Layer_1" xmlns="http://www.w3.org/2000/svg" xmlns:xlink="http://www.w3.org/1999/xlink" x="0px" y="0px"
	 width="100%" viewBox="0 0 1052 1052" enable-background="new 0 0 1052 1052" xml:space="preserve">
<path fill="#F0DB4F" opacity="1.000000" stroke="none" 
	d="
M1.000000,1052.000000 
	C1.000000,702.302429 1.000000,352.604828 1.468484,2.467622 
	C351.811981,2.027980 701.687012,2.027980 1052.042603,2.027980 
	C1052.042603,5.039238 1052.042603,7.338012 1052.042603,9.636786 
	C1052.042603,354.913910 1052.042969,700.191040 1052.036377,1045.468140 
	C1052.036377,1047.632202 1051.940308,1049.796143 1051.448853,1051.975098 
	C701.005676,1051.993408 351.002838,1051.996704 1.000000,1052.000000 
M776.615784,647.941223 
	C772.388428,644.447449 767.832275,641.279663 763.990295,637.403870 
	C746.821228,620.083862 746.383606,578.230103 782.644409,566.963684 
	C794.597534,563.249756 806.657532,563.661255 818.662598,566.570007 
	C835.725525,570.704346 847.458313,581.925720 856.950500,595.975098 
	C859.235901,599.357849 861.375977,602.838745 863.730652,606.504578 
	C889.446533,589.988220 914.752869,573.734802 940.315063,557.317139 
	C924.718567,530.035645 905.107422,507.264954 876.540771,494.006653 
	C836.179443,475.274200 794.099487,473.841888 751.608276,484.954041 
	C717.142639,493.967377 689.925903,513.540527 671.922668,544.821289 
	C658.158142,568.737305 654.203857,594.767334 656.032166,621.928406 
	C658.414917,657.325317 671.581116,687.707153 697.982239,711.933899 
	C719.150391,731.358826 744.208008,744.351440 770.192078,755.852478 
	C790.423828,764.807373 810.890015,773.296570 830.710754,783.088379 
	C840.424622,787.887268 849.746460,794.256897 857.752808,801.553650 
	C869.953003,812.672607 872.823669,827.618286 869.278931,843.362915 
	C865.260986,861.209656 852.622620,871.918518 836.021545,876.827515 
	C794.876343,888.994141 757.831726,881.746277 727.385681,850.083740 
	C719.478943,841.861145 713.032166,832.234619 705.544861,822.786072 
	C679.449158,837.891968 652.866089,853.280029 626.419250,868.589172 
	C626.563416,869.402832 626.557434,869.739929 626.684143,870.016235 
	C627.099976,870.923096 627.539490,871.821045 628.013306,872.699036 
	C643.649353,901.676025 665.133179,925.393005 693.926636,941.387878 
	C753.503784,974.483093 816.178162,978.022217 880.304749,957.224609 
	C910.315674,947.491455 934.805969,929.290161 951.104187,901.658997 
	C971.670044,866.792358 973.219971,829.295166 964.330017,790.939636 
	C956.807861,758.485474 936.806519,734.537720 910.192383,715.567993 
	C886.307129,698.543396 859.723328,686.685608 833.073669,674.848450 
	C814.245605,666.485413 795.830078,657.193542 776.615784,647.941223 
M316.270660,932.236389 
	C326.994904,941.629028 338.812988,949.359924 351.891327,955.024170 
	C390.941376,971.936707 431.330841,973.479919 472.277405,964.216187 
	C506.014954,956.583252 533.267334,938.970642 551.331970,908.747437 
	C566.087891,884.059937 572.006592,856.850586 572.082642,828.490417 
	C572.387207,714.859680 572.292664,601.227844 572.328430,487.596405 
	C572.328796,486.500824 572.094971,485.405212 571.963318,484.246521 
	C539.182556,484.246521 506.765533,484.246521 473.822906,484.246521 
	C473.822906,486.601471 473.822876,488.717743 473.822876,490.833984 
	C473.822845,599.134216 473.864502,707.434509 473.743378,815.734619 
	C473.733734,824.362610 473.168152,833.076904 471.857300,841.596741 
	C469.712982,855.533875 464.346588,867.891724 451.205444,875.217285 
	C431.739716,886.068420 400.890564,883.348206 384.669525,868.176025 
	C377.123322,861.117676 371.353058,852.108582 365.099396,843.743347 
	C362.163544,839.816223 359.988464,835.320312 357.331055,830.850830 
	C330.409760,847.149780 303.852081,863.228516 277.140808,879.400269 
	C286.773468,899.759644 299.281708,917.215332 316.270660,932.236389 
z"/>
<path fill="#FEFCF1" opacity="1.000000" stroke="none" 
	d="
M1051.889160,1051.960205 
	C1051.940308,1049.796143 1052.036377,1047.632202 1052.036377,1045.468140 
	C1052.042969,700.191040 1052.042603,354.913910 1052.042603,9.636786 
	C1052.042603,7.338012 1052.042603,5.039238 1052.042603,2.027980 
	C701.687012,2.027980 351.811981,2.027980 1.468484,2.013990 
	C1.166548,1.666667 1.315681,1.056190 1.502438,1.044455 
	C2.830212,0.961019 4.165679,1.000000 5.498696,1.000000 
	C354.582581,1.000000 703.666504,1.000000 1053.000000,1.000000 
	C1053.000000,351.666626 1053.000000,702.333313 1052.493042,1052.737793 
	C1051.953613,1052.303833 1051.921265,1052.131958 1051.889160,1051.960205 
z"/>
<path fill="#F3E378" opacity="1.000000" stroke="none" 
	d="
M1051.448730,1051.975098 
	C1051.921265,1052.131958 1051.953613,1052.303833 1051.993042,1052.737793 
	C701.666687,1053.000000 351.333344,1053.000000 1.000000,1052.500000 
	C351.002838,1051.996704 701.005676,1051.993408 1051.448730,1051.975098 
z"/>
<path fill="#333330" opacity="1.000000" stroke="none" 
	d="
M776.923096,648.128784 
	C795.830078,657.193542 814.245605,666.485413 833.073669,674.848450 
	C859.723328,686.685608 886.307129,698.543396 910.192383,715.567993 
	C936.806519,734.537720 956.807861,758.485474 964.330017,790.939636 
	C973.219971,829.295166 971.670044,866.792358 951.104187,901.658997 
	C934.805969,929.290161 910.315674,947.491455 880.304749,957.224609 
	C816.178162,978.022217 753.503784,974.483093 693.926636,941.387878 
	C665.133179,925.393005 643.649353,901.676025 628.013306,872.699036 
	C627.539490,871.821045 627.099976,870.923096 626.684143,870.016235 
	C626.557434,869.739929 626.563416,869.402832 626.419250,868.589172 
	C652.866089,853.280029 679.449158,837.891968 705.544861,822.786072 
	C713.032166,832.234619 719.478943,841.861145 727.385681,850.083740 
	C757.831726,881.746277 794.876343,888.994141 836.021545,876.827515 
	C852.622620,871.918518 865.260986,861.209656 869.278931,843.362915 
	C872.823669,827.618286 869.953003,812.672607 857.752808,801.553650 
	C849.746460,794.256897 840.424622,787.887268 830.710754,783.088379 
	C810.890015,773.296570 790.423828,764.807373 770.192078,755.852478 
	C744.208008,744.351440 719.150391,731.358826 697.982239,711.933899 
	C671.581116,687.707153 658.414917,657.325317 656.032166,621.928406 
	C654.203857,594.767334 658.158142,568.737305 671.922668,544.821289 
	C689.925903,513.540527 717.142639,493.967377 751.608276,484.954041 
	C794.099487,473.841888 836.179443,475.274200 876.540771,494.006653 
	C905.107422,507.264954 924.718567,530.035645 940.315063,557.317139 
	C914.752869,573.734802 889.446533,589.988220 863.730652,606.504578 
	C861.375977,602.838745 859.235901,599.357849 856.950500,595.975098 
	C847.458313,581.925720 835.725525,570.704346 818.662598,566.570007 
	C806.657532,563.661255 794.597534,563.249756 782.644409,566.963684 
	C746.383606,578.230103 746.821228,620.083862 763.990295,637.403870 
	C767.832275,641.279663 772.388428,644.447449 776.923096,648.128784 
z"/>
<path fill="#323330" opacity="1.000000" stroke="none" 
	d="
M315.999207,932.009155 
	C299.281708,917.215332 286.773468,899.759644 277.140808,879.400269 
	C303.852081,863.228516 330.409760,847.149780 357.331055,830.850830 
	C359.988464,835.320312 362.163544,839.816223 365.099396,843.743347 
	C371.353058,852.108582 377.123322,861.117676 384.669525,868.176025 
	C400.890564,883.348206 431.739716,886.068420 451.205444,875.217285 
	C464.346588,867.891724 469.712982,855.533875 471.857300,841.596741 
	C473.168152,833.076904 473.733734,824.362610 473.743378,815.734619 
	C473.864502,707.434509 473.822845,599.134216 473.822876,490.833984 
	C473.822876,488.717743 473.822906,486.601471 473.822906,484.246521 
	C506.765533,484.246521 539.182556,484.246521 571.963318,484.246521 
	C572.094971,485.405212 572.328796,486.500824 572.328430,487.596405 
	C572.292664,601.227844 572.387207,714.859680 572.082642,828.490417 
	C572.006592,856.850586 566.087891,884.059937 551.331970,908.747437 
	C533.267334,938.970642 506.014954,956.583252 472.277405,964.216187 
	C431.330841,973.479919 390.941376,971.936707 351.891327,955.024170 
	C338.812988,949.359924 326.994904,941.629028 315.999207,932.009155 
z"/>
</svg>