<svg version="1.1" id="Layer_1" xmlns="http://www.w3.org/2000/svg" xmlns:xlink="http://www.w3.org/1999/xlink" x="0px" y="0px"
	 width="100%" viewBox="0 0 300 288" enable-background="new 0 0 300 288" xml:space="preserve">
<path fill="#FDFEFE" opacity="1.000000" stroke="none" 
	d="
M1.375631,113.046364 
	C1.000000,76.862389 1.030929,40.724705 0.938078,4.587336 
	C0.931063,1.857305 1.172204,0.895282 4.407326,0.899371 
	C102.161896,1.022923 199.916702,1.028046 297.671204,0.884675 
	C301.132629,0.879599 301.043701,2.149924 301.040405,4.665810 
	C300.984039,47.464710 301.000000,90.263710 301.000000,133.531342 
	C298.776276,136.559158 296.125671,138.684464 293.726959,141.067551 
	C292.471283,142.315063 291.837982,143.589081 291.641052,145.614014 
	C288.322479,150.871582 283.317291,153.770966 278.594849,156.724350 
	C263.774292,165.992996 247.574249,171.056519 229.980148,171.349777 
	C194.405823,171.942703 164.553162,158.933670 139.467392,133.957397 
	C121.021004,115.591545 109.329559,93.969391 106.151825,68.017235 
	C104.763504,56.679005 105.576859,45.429680 108.745010,34.029667 
	C109.906860,30.959803 110.957527,28.243092 111.737350,25.084896 
	C110.368065,27.095533 109.185410,28.816856 107.918495,30.917118 
	C98.575958,43.983288 91.777252,57.580074 89.969933,73.572151 
	C88.145744,89.713509 90.157516,105.247559 96.190384,120.070953 
	C110.590614,155.453842 136.806107,178.422745 172.794739,190.257629 
	C186.691162,194.827454 201.160950,195.340927 215.770355,194.087601 
	C229.901825,192.875305 243.271317,189.532608 255.977203,183.125290 
	C267.380646,177.374756 276.351288,168.801453 285.223816,159.429703 
	C285.659180,158.994156 285.834351,158.824646 286.538269,158.178833 
	C287.244324,157.555496 287.421722,157.408463 287.867981,157.056793 
	C288.318451,156.728271 288.500153,156.604340 288.954712,156.308746 
	C290.264832,155.678436 290.771576,154.847794 290.962769,153.435516 
	C291.086212,152.908691 291.146820,152.698212 291.341827,152.182419 
	C291.602417,151.691055 291.728607,151.505020 292.089355,151.074356 
	C292.503021,150.691833 292.682129,150.553925 293.150757,150.241455 
	C295.972687,149.297348 295.720428,147.131821 295.922424,144.836212 
	C295.996399,144.267181 296.038940,144.040161 296.181641,143.479187 
	C296.455231,142.709198 296.658783,142.287537 297.078308,141.577515 
	C297.429718,141.101059 297.590363,140.925003 298.063049,140.572891 
	C299.086792,140.180618 299.781769,140.206665 300.727722,140.770325 
	C301.000000,189.085800 300.965179,237.171692 301.080322,285.257233 
	C301.087799,288.379730 300.372498,289.091736 297.254883,289.080811 
	C261.149353,288.954315 225.043259,289.000000 188.468658,289.000000 
	C187.631226,287.251709 189.168762,287.179932 190.457962,286.474365 
	C191.258377,286.252472 191.724426,286.183838 192.541138,286.155945 
	C195.736893,285.990967 198.659439,286.279297 201.599640,284.638123 
	C202.107620,284.363434 202.321198,284.270050 202.872772,284.077789 
	C207.969528,282.888977 213.161819,283.482361 217.671234,280.112305 
	C218.154434,279.774170 218.354996,279.651001 218.876343,279.385010 
	C223.679031,278.419891 227.952576,277.061401 231.941772,274.128296 
	C232.490982,273.553040 232.825821,273.245361 233.453384,272.756104 
	C233.932587,272.457916 234.134949,272.358582 234.655212,272.152832 
	C236.467819,271.748322 237.936035,271.390930 239.296875,270.010132 
	C239.735657,269.669495 239.922546,269.547363 240.418488,269.294861 
	C243.144775,268.566315 246.189316,269.140656 247.255219,265.441681 
	C247.635178,264.750641 247.909515,264.396240 248.489105,263.870361 
	C250.263565,262.566803 252.660492,263.289581 253.863358,260.975952 
	C254.115479,260.521912 254.222443,260.344604 254.511749,259.918762 
	C255.083359,259.209534 255.502838,258.773224 255.983673,258.006836 
	C256.349884,257.415192 256.588806,257.099060 257.069092,256.600830 
	C257.435455,256.275146 257.587189,256.151794 258.186249,255.655167 
	C258.771423,255.144043 258.909241,255.006195 259.415070,254.402588 
	C259.894714,253.767090 260.006348,253.597351 260.285553,253.167694 
	C261.413422,251.496384 262.598694,250.293716 264.143982,249.006332 
	C264.563843,248.707748 264.736572,248.598587 265.173279,248.344788 
	C266.150818,247.852554 266.754974,247.384521 267.275879,246.398285 
	C267.867828,245.415512 268.461395,244.851837 269.470825,244.294617 
	C270.679993,243.793808 271.647858,243.473633 272.035645,242.038712 
	C272.474335,240.943283 272.997986,240.287750 273.907349,239.548782 
	C274.650848,239.026077 275.166229,238.717133 275.745056,238.039276 
	C276.004822,237.631531 276.106140,237.466797 276.365082,237.058441 
	C276.639069,236.660553 276.755402,236.506287 277.260498,235.924637 
	C277.786682,235.363464 277.924072,235.229675 278.272156,234.899185 
	C278.622284,234.569351 278.761810,234.436234 279.098206,234.090225 
	C279.684631,233.425644 279.991669,232.917816 280.477356,232.148254 
	C280.825348,231.750427 280.991180,231.611908 281.452179,231.329529 
	C283.927948,230.854843 284.554993,229.551498 284.019958,227.199539 
	C284.020996,226.650955 284.037598,226.433273 284.120300,225.898010 
	C284.317688,225.174438 284.472687,224.777832 284.788269,224.108704 
	C285.016174,223.639969 285.112183,223.455093 285.370575,223.002869 
	C285.657227,222.567154 285.781555,222.398788 286.332153,221.763168 
	C286.913422,221.149826 287.068390,221.003738 287.467041,220.644531 
	C287.878967,220.291000 288.047180,220.150558 288.476135,219.804840 
	C290.195465,218.075851 291.846069,216.645187 292.778900,214.765442 
	C293.540070,213.231583 293.303833,211.181595 291.563446,210.603561 
	C289.630890,209.961731 289.876526,211.931610 289.643829,213.486374 
	C287.787689,217.360519 284.869781,219.930328 281.854248,222.877991 
	C281.323792,223.513412 280.990631,223.853882 280.360413,224.415100 
	C279.494537,225.117538 278.850830,225.504730 277.972198,226.230133 
	C258.924774,241.396118 237.427353,249.399673 213.802841,252.482101 
	C205.476212,253.568542 197.192398,253.026245 188.485199,253.368561 
	C187.254913,253.423523 186.432724,253.426697 185.196136,253.426239 
	C174.781372,253.120667 164.992493,251.285004 154.817505,249.295853 
	C154.158127,249.192490 153.899094,249.139359 153.264130,248.979675 
	C142.836639,246.076675 133.134750,242.305847 123.156342,238.218536 
	C122.582069,238.013885 122.358131,237.920074 121.814667,237.657837 
	C110.113861,231.098373 98.914345,224.426010 88.378746,216.089142 
	C87.720299,215.631195 87.362656,215.348099 86.763885,214.827759 
	C84.988358,213.015182 83.398605,211.503922 81.228348,210.162048 
	C80.780685,209.829773 80.606476,209.689819 80.183243,209.324982 
	C76.676041,205.747772 73.321587,202.490997 69.828590,198.925598 
	C69.460510,198.553986 69.317841,198.404755 68.971825,198.031494 
	C68.638062,197.659531 68.507637,197.511612 67.993820,196.933517 
	C67.482018,196.364594 67.353615,196.225830 66.831802,195.680786 
	C66.303490,195.140076 66.168571,195.005646 65.622192,194.458237 
	C65.075829,193.899002 64.940933,193.752762 64.610657,193.373367 
	C64.290291,192.975815 64.165306,192.811417 63.856110,192.393188 
	C61.959000,189.922058 60.444561,187.547638 58.226181,185.311249 
	C57.851715,184.907135 57.706177,184.741013 57.351673,184.317352 
	C56.480961,183.171280 55.760464,182.328720 54.899723,181.171738 
	C54.582523,180.714020 54.461193,180.527222 54.167763,180.054626 
	C53.146755,178.209549 52.170547,176.732834 50.902126,175.043991 
	C50.570946,174.587418 50.443722,174.400192 50.142082,173.920609 
	C46.392433,167.551102 43.290428,161.226166 40.006886,154.612640 
	C39.742023,154.111725 39.638721,153.909882 39.387146,153.402008 
	C39.045635,152.683929 38.855408,152.270493 38.515835,151.544495 
	C38.267624,151.020477 38.171700,150.807648 37.944275,150.267487 
	C35.329418,143.690765 33.194019,137.324097 31.247372,130.488251 
	C31.037020,129.875443 30.957502,129.624130 30.785645,128.980286 
	C24.760994,104.105423 25.372433,79.867012 33.530716,55.542717 
	C34.457695,53.236671 35.945675,51.669094 36.800400,49.257381 
	C35.471706,50.452652 34.772327,51.649929 33.792709,53.056744 
	C27.259678,61.546745 20.058144,69.124626 15.192675,78.819427 
	C14.987098,79.372025 14.895993,79.590729 14.646212,80.128685 
	C14.256204,80.867950 14.025464,81.288292 13.642431,82.041550 
	C9.053869,91.422852 6.103386,101.011162 3.227724,110.626411 
	C2.943591,111.576454 2.686012,112.535393 1.375631,113.046364 
z"/>
<path fill="#1567AA" opacity="1.000000" stroke="none" 
	d="
M203.128662,284.737671 
	C202.776779,284.905060 202.364853,284.847748 202.184235,284.950806 
	C199.478973,286.672363 196.472626,286.157898 193.364227,286.918823 
	C192.525269,286.919983 192.075958,286.919220 191.305099,287.023865 
	C188.195236,287.581787 185.508484,288.633881 182.314194,288.772400 
	C178.969406,289.000000 175.938812,289.000000 172.454102,289.000000 
	C167.599380,287.916138 163.134354,288.695496 158.350815,288.770142 
	C153.643097,289.000000 149.286194,289.000000 144.464645,289.000000 
	C138.442871,287.199310 132.529984,287.832703 126.888512,286.329895 
	C101.403671,279.541229 78.655655,267.610992 58.426620,250.718231 
	C42.934338,237.781036 30.290905,222.528641 20.285786,204.620789 
	C19.969038,203.621124 19.848021,202.939255 19.576405,201.956787 
	C19.415194,201.437317 19.351435,201.231293 19.203289,200.717087 
	C18.876785,198.960312 18.473120,197.598190 16.922537,196.496826 
	C16.574198,196.082275 16.452444,195.899536 16.184952,195.417755 
	C15.868329,194.703110 15.706280,194.284103 15.427067,193.541595 
	C15.224155,193.004135 15.146936,192.786880 14.968039,192.237915 
	C11.060931,183.448166 9.031936,174.439575 6.558237,165.559067 
	C5.820052,162.908997 7.280263,160.563202 6.953060,158.395096 
	C6.704886,156.750671 3.232755,156.092056 3.054407,153.334915 
	C2.874659,150.556137 1.755691,147.804611 2.712829,145.001526 
	C3.439629,142.873016 2.847558,141.116425 1.245303,139.245209 
	C1.000000,130.645767 1.000000,122.291534 0.999999,113.468651 
	C3.084324,106.560799 5.033177,100.073395 7.301180,93.699547 
	C8.783300,89.534294 10.728237,85.533730 12.727710,81.226105 
	C13.246614,80.746124 13.500163,80.495880 13.747435,79.974579 
	C13.745281,79.707695 13.775270,79.830956 13.717868,79.803970 
	C15.298946,78.860672 15.711110,76.178520 18.651237,76.758087 
	C20.800425,78.874100 20.439924,81.288757 20.451794,83.579636 
	C20.511244,95.053055 20.425411,106.526993 20.772888,118.000107 
	C20.428839,108.457001 20.484697,98.913246 20.549709,89.370155 
	C20.568716,86.579887 20.062002,83.682610 22.033829,80.804749 
	C22.900124,80.208702 23.472450,80.020607 24.544357,79.927185 
	C25.632687,79.994797 26.219501,80.182487 27.103550,80.803284 
	C28.262352,83.045212 27.800900,84.999626 27.716879,86.982330 
	C27.113426,101.222725 27.451984,115.392784 31.741821,129.583176 
	C32.020790,129.936951 32.063892,129.977524 32.052567,130.004883 
	C33.357773,137.116425 34.873562,144.136688 38.860939,150.694839 
	C39.129173,150.939713 39.032200,150.966446 39.062840,150.926559 
	C39.380646,151.407211 39.472054,151.991272 39.831772,152.768219 
	C40.029518,152.984024 39.997437,152.994720 40.011047,152.983032 
	C42.618996,160.275452 45.205147,167.583786 50.877804,173.663269 
	C51.177319,173.870239 51.051857,173.974426 51.096600,173.906250 
	C51.852051,175.997314 52.562435,178.156738 54.874695,179.703674 
	C55.156315,179.894196 55.041603,179.963806 55.080055,179.908829 
	C55.498650,181.375412 55.834236,182.926987 57.867290,183.711243 
	C58.145649,183.899399 58.039692,183.970459 58.072998,183.916046 
	C60.443691,186.620819 60.580837,191.038177 64.917877,192.670410 
	C65.210861,192.829681 65.117912,192.887909 65.126175,192.833694 
	C65.219009,193.141769 65.402962,193.443451 65.938202,193.788742 
	C66.189903,193.893127 66.088707,193.913681 66.097549,193.862823 
	C66.215263,194.152344 66.404106,194.440277 66.901230,194.807312 
	C67.129494,194.938934 67.047371,194.950226 67.055336,194.909546 
	C67.213020,195.173553 67.412926,195.440659 67.867271,195.818848 
	C68.071518,195.967514 68.006439,195.992844 68.019485,195.960449 
	C68.203201,196.209030 68.412956,196.456924 68.849892,196.827667 
	C69.037987,196.983612 68.998077,196.999054 69.010544,196.981598 
	C72.030716,201.643250 75.892334,205.481033 80.782913,208.771637 
	C81.080429,208.945129 81.006409,208.993271 81.030380,208.956207 
	C82.208954,210.503174 82.101242,212.525436 82.854271,214.337463 
	C83.897980,212.979370 85.129753,213.023575 86.737381,213.786072 
	C87.374489,213.973129 87.668304,214.106125 87.990326,214.607574 
	C97.775627,224.367172 108.997353,231.544464 121.955963,236.595047 
	C122.316986,236.587006 122.139412,236.530319 122.232193,236.540222 
	C129.864822,241.188431 137.850662,244.789337 146.598785,246.364655 
	C148.533890,246.713135 150.311447,247.773087 152.674316,247.787079 
	C153.004364,247.994431 153.000000,248.000000 153.002197,247.997284 
	C163.195862,250.718628 173.485382,252.764740 184.522400,252.427811 
	C185.710632,252.347107 186.486557,252.332123 187.625854,252.458832 
	C204.877472,253.992828 221.406647,252.396271 237.832184,246.599365 
	C241.424500,247.259949 244.036438,249.459915 247.599808,250.267593 
	C250.345139,252.577118 253.277893,253.586655 256.648865,254.465195 
	C257.580414,257.245758 255.654160,257.587219 253.930344,258.089233 
	C252.590073,258.479523 250.806854,258.252563 250.796173,260.750366 
	C250.826111,261.782837 250.640076,262.419342 249.948257,263.171814 
	C247.726349,264.209991 245.340118,264.257660 243.907867,266.675720 
	C243.535645,267.087616 243.373825,267.240997 242.929947,267.574310 
	C239.841797,269.291779 235.981079,268.656677 233.838531,272.216797 
	C233.530624,272.679596 233.407211,272.866699 233.022110,273.271088 
	C231.167755,274.418518 229.108475,273.995667 227.384094,275.469421 
	C226.979370,275.824463 226.820786,275.967651 226.420700,276.315826 
	C225.694443,276.916962 225.197403,277.298523 224.508728,277.940979 
	C222.827347,279.170105 221.066879,279.145630 219.176788,279.762817 
	C218.900772,279.920624 218.972870,279.979889 218.962006,279.934509 
	C214.308319,283.148407 208.773087,283.458344 203.128662,284.737671 
z"/>
<path fill="#FCFEFE" opacity="1.000000" stroke="none" 
	d="
M16.772369,194.954987 
	C16.893396,195.243668 16.887846,195.661926 17.011608,195.830536 
	C18.497780,197.227615 18.979662,198.933640 19.733398,200.862808 
	C19.858000,201.165802 19.896643,201.079987 19.849586,201.080353 
	C20.435608,201.400284 20.464729,202.045929 20.773239,202.888092 
	C32.329227,224.487335 48.339855,241.797104 67.512123,256.314606 
	C84.941002,269.511993 104.338547,278.801239 125.333527,284.679688 
	C131.361908,286.367615 137.666855,287.067810 143.922501,288.610443 
	C97.572487,289.000000 51.144871,288.961090 4.717686,289.085236 
	C1.531475,289.093750 0.917299,288.283539 0.924831,285.228973 
	C1.034387,240.798630 1.000000,196.367935 1.000000,151.468658 
	C4.300004,152.193542 3.919486,155.536972 4.547645,157.927444 
	C7.622128,169.627518 10.663871,181.316406 15.714256,192.788361 
	C15.884261,193.142822 15.922980,193.061371 15.877898,193.062302 
	C16.454380,193.419540 16.467373,194.086578 16.772369,194.954987 
z"/>
<path fill="#286CA2" opacity="1.000000" stroke="none" 
	d="
M15.923687,192.738556 
	C9.928288,182.685974 6.642194,171.262558 4.067071,159.632980 
	C3.430869,156.759827 1.583227,154.242249 1.391284,151.087830 
	C1.000000,147.307098 1.000000,143.614182 1.000000,139.460632 
	C3.724480,139.697449 5.895012,140.955597 4.324449,144.180405 
	C2.617330,147.685608 4.059240,150.937424 4.654671,154.254242 
	C5.357092,158.167038 6.784564,156.041473 7.922430,154.398575 
	C8.312492,154.730026 8.778167,154.974197 8.749459,155.122910 
	C6.362084,167.489944 10.736073,178.486221 15.592721,189.405014 
	C15.975691,190.266022 15.851570,191.352570 15.923687,192.738556 
z"/>
<path fill="#E1F4FB" opacity="1.000000" stroke="none" 
	d="
M291.333801,145.150665 
	C290.624908,143.261322 290.376923,141.888062 292.512146,140.574615 
	C295.361725,138.821777 296.984924,135.412079 300.650421,134.037643 
	C301.000000,136.041672 301.000000,138.083328 301.000000,140.562500 
	C300.311676,141.007156 299.623352,141.014328 298.590820,141.026672 
	C296.611023,140.810989 295.962402,142.163147 294.790527,143.304321 
	C293.717072,144.339203 292.850555,145.078110 291.333801,145.150665 
z"/>
<path fill="#3582BF" opacity="1.000000" stroke="none" 
	d="
M158.464645,289.000000 
	C162.401123,287.059052 166.940979,288.127441 171.721619,288.690155 
	C167.643097,289.000000 163.286194,289.000000 158.464645,289.000000 
z"/>
<path fill="#EAF7FA" opacity="1.000000" stroke="none" 
	d="
M182.428467,289.000000 
	C184.385727,286.942474 187.437805,287.630615 190.578674,287.072784 
	C190.108704,287.589020 189.233841,288.048767 188.179474,288.754272 
	C186.285645,289.000000 184.571289,289.000000 182.428467,289.000000 
z"/>
<path fill="#1868A9" opacity="1.000000" stroke="none" 
	d="
M290.857483,145.336060 
	C291.788391,144.413391 292.565979,143.786255 293.606964,143.004456 
	C295.398010,142.573807 295.628754,143.672501 295.895569,145.148071 
	C295.745880,147.485474 294.980316,149.120621 293.183838,150.646179 
	C292.883972,150.902878 292.985626,150.992691 292.946411,150.937378 
	C292.781891,151.070557 292.656647,151.259033 292.327789,151.719177 
	C292.124207,151.990829 291.868896,152.260147 291.847412,152.444458 
	C291.396545,154.156387 290.751984,155.550232 289.143372,156.709320 
	C288.874756,156.906906 288.969635,156.972153 288.942627,156.921295 
	C288.790619,157.175003 288.601440,157.432419 288.195740,157.829834 
	C288.043335,158.016968 287.994141,158.006744 288.008057,158.027649 
	C287.860138,158.180832 287.698273,158.313095 287.384308,158.719513 
	C271.103333,178.556808 250.608917,190.369370 225.474396,194.282898 
	C184.676071,200.635300 149.800720,188.972183 120.839142,159.831741 
	C99.799896,138.662552 88.038712,113.261856 88.076805,83.026733 
	C88.101608,63.339912 94.717918,45.911144 107.106644,30.255882 
	C109.649841,28.982452 110.139107,30.468220 110.209801,32.565681 
	C104.349983,55.523579 105.856133,77.687805 116.104950,98.621246 
	C135.554321,138.347061 167.386826,162.237946 211.160141,168.922501 
	C240.956924,173.472717 268.044281,166.555344 290.857483,145.336060 
z"/>
<path fill="#1366AA" opacity="1.000000" stroke="none" 
	d="
M173.756561,32.705070 
	C174.006241,33.141499 174.061264,33.334713 174.096283,34.065205 
	C174.284042,35.132900 174.491821,35.663322 174.694901,36.624390 
	C175.010834,39.683403 174.337433,41.810459 171.407501,43.126617 
	C165.776031,44.064983 169.101425,47.075596 169.575699,49.306149 
	C169.710419,49.939713 169.262299,49.374191 169.755096,49.718323 
	C170.557541,50.278675 169.991974,49.141899 170.512756,48.742886 
	C170.902634,47.814362 170.544327,48.524239 170.940033,48.032730 
	C172.285721,46.361282 171.043655,42.490353 174.275696,42.797348 
	C176.913239,43.047871 176.322052,46.548317 177.719971,48.728020 
	C177.956818,49.024342 178.007370,49.027237 177.986053,49.041122 
	C179.095428,51.468922 178.428192,54.550076 181.108719,56.499596 
	C181.479904,56.472614 181.449188,56.544224 181.469482,56.577477 
	C181.262085,56.861881 181.203415,57.093369 181.313492,57.305340 
	C181.418411,57.507362 181.515686,57.608456 181.888184,57.749599 
	C182.170746,57.890743 182.025833,57.966305 182.086014,57.911026 
	C182.534134,58.804607 182.882217,59.774498 183.799286,60.773109 
	C184.024338,60.983234 183.998322,60.997429 184.009094,60.985847 
	C184.422913,61.436516 184.464676,62.049664 184.934250,62.752148 
	C185.175873,62.919250 185.076324,62.934483 185.102661,62.891560 
	C185.393723,63.418274 185.459915,64.058983 186.065277,64.691452 
	C186.369171,64.767448 186.225235,64.813362 186.247253,64.741096 
	C187.654709,67.845955 189.168640,70.922493 192.774033,72.773071 
	C193.072937,72.950500 193.003098,72.994316 193.026703,72.960510 
	C196.865479,79.492249 202.799652,83.506142 209.828827,86.732811 
	C210.152664,86.874199 210.034302,86.942841 210.074036,86.887146 
	C212.204330,89.498192 215.386032,90.205971 218.638550,91.335686 
	C219.297623,91.204468 219.571671,91.287544 219.916138,91.718353 
	C223.183624,95.074547 227.626663,94.249397 231.704788,95.767570 
	C232.039490,95.952591 232.001923,96.000610 232.018188,95.975792 
	C235.189529,97.941818 239.398788,96.461983 242.582916,99.414444 
	C243.482971,101.858330 245.266251,101.589546 246.900787,101.635239 
	C250.548706,101.737228 254.202194,101.445000 257.845795,101.742622 
	C260.567017,101.964920 262.290375,103.105064 261.509888,106.601440 
	C261.038940,108.019989 260.332367,108.822746 259.493286,110.005341 
	C259.341980,110.372849 259.296387,110.355339 259.276001,110.341949 
	C253.631638,110.643944 248.421219,112.963791 242.676010,113.214310 
	C235.829376,113.512840 228.910721,113.821701 222.377563,112.307800 
	C210.244385,109.496254 198.973404,104.373070 189.489166,95.971634 
	C188.502274,95.097412 187.874847,93.863617 187.292282,92.249367 
	C187.855225,88.259659 186.881393,85.863754 182.341248,85.818237 
	C179.352997,84.188187 177.071472,82.113426 174.173096,80.307205 
	C173.887527,80.094978 173.993454,79.998154 173.945618,80.051300 
	C171.795502,75.065285 168.378250,70.689301 166.307220,65.246414 
	C166.073624,64.976250 166.004410,64.934158 166.027740,64.901062 
	C165.038132,63.949333 165.883194,62.482613 164.941986,61.230209 
	C164.697601,60.811653 164.571152,60.670910 164.404861,60.249161 
	C164.438568,59.621643 164.488312,59.271660 164.530716,58.648186 
	C164.565308,58.194729 164.587036,58.011818 164.601135,57.550102 
	C164.436127,56.676857 164.093842,56.153088 163.833344,55.210968 
	C161.649460,42.302975 163.369461,30.250004 168.736877,18.281754 
	C168.902710,17.900715 168.992813,18.000345 168.941330,17.957016 
	C170.144165,17.292578 170.556259,14.961230 172.417969,15.777525 
	C173.991028,16.467253 173.253433,18.082413 173.070938,19.341499 
	C172.873001,20.707193 173.349426,21.971508 173.622910,23.631998 
	C173.765823,24.440823 173.806900,24.898869 173.773224,25.695297 
	C173.558044,26.456320 173.494568,26.889521 173.613617,27.652916 
	C173.771591,28.428232 173.835846,28.885542 173.850403,29.687227 
	C173.371521,30.807333 173.483719,31.636265 173.756561,32.705070 
z"/>
<path fill="#256BA4" opacity="1.000000" stroke="none" 
	d="
M239.291351,247.259537 
	C229.864014,251.553879 219.727829,252.253998 209.938248,253.689865 
	C202.925095,254.718536 195.492645,254.871506 188.152390,252.935211 
	C200.590591,252.190994 213.165268,251.950699 225.614563,249.283661 
	C244.750977,245.184052 262.070923,237.443222 277.963623,225.267761 
	C279.427521,226.476120 280.688538,226.348419 282.235901,226.405853 
	C282.753326,226.581345 282.947479,226.692734 283.313049,227.098114 
	C283.818634,229.276459 282.710999,230.429596 281.122437,231.680313 
	C280.835724,231.876419 280.949310,231.983795 280.910431,231.916000 
	C280.424805,232.792892 280.069733,233.790115 279.020874,234.664612 
	C278.724396,234.769577 278.820648,234.869797 278.810425,234.801071 
	C278.764252,235.106461 278.596985,235.411804 278.076172,235.785278 
	C277.836548,235.913055 277.924927,235.927063 277.913696,235.883759 
	C277.798553,236.164978 277.612518,236.432358 277.171326,236.818939 
	C276.998291,236.995316 277.000000,237.000000 276.997681,236.999481 
	C276.274841,237.778015 276.081177,238.903244 274.980164,239.746429 
	C274.161163,240.362320 273.633026,240.855225 273.025635,241.611298 
	C272.364960,242.973602 271.811707,244.097839 270.334839,244.814163 
	C269.536194,245.588455 268.940552,246.129257 268.206726,246.940887 
	C267.549225,247.605392 267.164886,248.137772 266.489319,248.827820 
	C266.139008,249.133698 265.977264,249.176422 265.569702,249.269531 
	C265.107208,249.208679 264.890503,249.097443 264.506409,248.664047 
	C265.665405,242.081680 269.580048,237.556000 275.190582,233.177872 
	C272.166870,233.267365 270.559906,234.467026 269.099518,235.577789 
	C265.765594,238.113602 262.283234,240.289719 258.283386,241.609543 
	C257.181427,241.973145 255.992279,242.501587 255.308594,243.383713 
	C251.083694,248.835052 245.367294,248.265366 239.291351,247.259537 
z"/>
<path fill="#2E6EA3" opacity="1.000000" stroke="none" 
	d="
M259.706543,110.338242 
	C258.968903,109.402985 259.218933,108.521957 259.864990,107.353668 
	C261.432220,105.936005 263.280029,105.552917 265.062408,104.196465 
	C261.697662,100.962532 257.826111,101.240974 253.978256,101.579414 
	C250.068344,101.923317 246.115860,102.931313 242.253662,100.214188 
	C239.567215,96.751320 235.132080,99.125389 232.242401,96.253922 
	C239.734192,96.799057 247.341415,98.436058 255.176987,98.071564 
	C265.852997,97.574913 275.676453,94.836128 284.461945,87.937729 
	C285.501282,87.432922 286.020233,87.758865 286.544128,88.624268 
	C280.033142,98.888718 271.349792,106.208916 259.706543,110.338242 
z"/>
<path fill="#296DA4" opacity="1.000000" stroke="none" 
	d="
M32.055763,129.529236 
	C27.326742,127.114426 28.886568,122.050598 28.165916,118.039734 
	C26.023508,106.115974 27.206070,93.993179 27.018200,81.482605 
	C26.118866,77.416847 27.815443,73.372688 25.095800,69.695808 
	C22.727261,72.016479 20.377119,74.029327 18.239389,76.758652 
	C16.761967,77.898201 15.543885,78.807503 13.993135,79.746895 
	C17.908491,69.571129 25.793850,61.913475 32.520737,53.070213 
	C33.787628,52.360020 34.629463,52.514584 35.290001,53.913773 
	C26.645014,78.980461 25.956114,103.905632 32.055763,129.529236 
z"/>
<path fill="#2E6EA3" opacity="1.000000" stroke="none" 
	d="
M173.954254,80.431473 
	C177.251480,80.135994 179.520294,82.116302 181.790054,84.720901 
	C183.838959,86.846619 185.182968,89.205841 187.765121,90.790947 
	C190.670868,97.955894 197.809158,99.754974 202.830292,103.990959 
	C208.123825,108.456718 215.223557,108.532486 221.290619,111.157364 
	C226.743958,113.516708 234.113129,113.209007 240.823868,112.763718 
	C246.829834,112.365189 252.314163,109.082283 258.854187,110.219208 
	C248.378464,115.239822 236.877121,115.115601 225.535202,113.459030 
	C203.643311,110.261559 186.827698,98.546234 173.954254,80.431473 
z"/>
<path fill="#256BA4" opacity="1.000000" stroke="none" 
	d="
M122.109146,236.319733 
	C115.659164,235.867844 109.637543,233.032425 104.300766,229.456131 
	C99.979599,226.560410 96.340477,222.602295 91.566078,220.183136 
	C89.752274,219.264084 88.736229,217.492828 88.084045,215.202759 
	C98.866035,222.688339 109.814461,230.277908 122.109146,236.319733 
z"/>
<path fill="#3672A3" opacity="1.000000" stroke="none" 
	d="
M168.627792,18.115902 
	C169.361267,20.643635 168.828751,23.327112 167.504028,25.626890 
	C161.848297,35.445553 163.940857,45.851898 164.943878,56.607338 
	C165.112137,57.180435 165.225357,57.336792 165.175461,57.732414 
	C165.012344,57.971672 165.000046,57.996815 164.989166,58.005623 
	C164.813019,58.184944 164.647736,58.355453 164.242813,58.262432 
	C160.022064,44.180767 162.010483,31.017214 168.627792,18.115902 
z"/>
<path fill="#256BA4" opacity="1.000000" stroke="none" 
	d="
M152.733414,247.753204 
	C141.834076,247.153854 131.468781,244.005234 122.334320,236.925446 
	C132.238525,240.567734 142.068192,244.815994 152.733414,247.753204 
z"/>
<path fill="#EAF7FA" opacity="1.000000" stroke="none" 
	d="
M288.960205,214.172852 
	C289.288574,212.287094 286.569519,210.335510 289.387115,209.239334 
	C290.547760,208.787781 292.911926,208.193893 293.203735,209.827972 
	C293.568329,211.869232 296.890686,214.204681 293.409729,216.250153 
	C291.388611,217.437790 291.233459,220.439499 288.231110,220.871475 
	C286.216400,218.414871 288.250885,216.575531 288.960205,214.172852 
z"/>
<path fill="#256BA4" opacity="1.000000" stroke="none" 
	d="
M51.121193,173.521851 
	C46.242149,171.752808 43.961411,167.134476 42.388519,162.716171 
	C41.399696,159.938507 39.688572,157.030197 40.008163,153.375885 
	C43.704796,159.705383 47.384933,166.439438 51.121193,173.521851 
z"/>
<path fill="#256BA4" opacity="1.000000" stroke="none" 
	d="
M184.507370,252.237274 
	C174.008865,254.577881 163.694366,251.570679 153.186066,248.330872 
	C163.350800,249.458710 173.569443,251.887192 184.507370,252.237274 
z"/>
<path fill="#2A6CA1" opacity="1.000000" stroke="none" 
	d="
M209.982208,86.582130 
	C202.132202,85.470497 196.326477,81.190804 193.031540,73.300896 
	C198.377045,77.707787 203.571136,82.655228 209.982208,86.582130 
z"/>
<path fill="#256BA4" opacity="1.000000" stroke="none" 
	d="
M251.507294,261.602600 
	C249.669846,260.956696 248.784500,259.838470 249.318481,258.191986 
	C249.748184,256.867004 251.108093,257.053894 252.214417,257.016205 
	C253.809143,256.961823 255.490463,257.235260 256.814087,255.339691 
	C256.870117,254.790451 256.736572,254.579666 256.670837,253.999771 
	C258.749115,251.185165 260.265930,248.020172 264.572266,248.675476 
	C264.882599,248.882675 265.102753,249.101532 265.213318,249.210724 
	C263.990173,250.733444 262.656464,252.146988 261.179138,253.852081 
	C260.852173,254.262787 260.668823,254.381958 260.289246,254.763931 
	C260.093018,255.026733 260.020660,255.013565 260.021545,255.050339 
	C259.842865,255.225662 259.663239,255.364212 259.242249,255.742554 
	C259.000824,255.982346 258.995605,255.995346 258.988770,255.997238 
	C258.761688,256.242126 258.523651,256.466187 258.065948,256.810791 
	C257.531097,256.953766 257.265472,257.089294 256.989502,257.573853 
	C256.536011,258.539764 255.880920,259.022430 254.949524,259.548279 
	C254.646225,259.565704 254.626495,259.644745 254.591431,259.623993 
	C254.358414,261.247314 253.059021,261.384827 251.507294,261.602600 
z"/>
<path fill="#256BA4" opacity="1.000000" stroke="none" 
	d="
M39.106934,150.561691 
	C36.081829,149.963074 34.879871,147.781860 34.607807,144.679382 
	C34.198647,140.013489 30.907772,135.872803 32.018841,130.466614 
	C34.389057,136.749374 36.736877,143.466522 39.106934,150.561691 
z"/>
<path fill="#2A6CA1" opacity="1.000000" stroke="none" 
	d="
M170.672668,43.353863 
	C171.319839,40.739376 174.840759,40.403011 174.477081,37.323250 
	C175.784256,40.784721 176.878296,44.514408 177.964569,48.634220 
	C174.689056,48.602806 176.902344,44.289188 173.921112,43.543621 
	C171.781982,44.648293 174.261063,47.848446 171.375626,48.910561 
	C169.474899,47.386623 169.597580,45.583897 170.672668,43.353863 
z"/>
<path fill="#256BA4" opacity="1.000000" stroke="none" 
	d="
M288.686005,213.987000 
	C291.359283,216.375473 287.660614,217.936340 287.925201,220.505219 
	C287.875793,220.864334 287.903503,220.909866 287.908508,220.885345 
	C287.765320,221.155212 287.573792,221.417999 287.164764,221.821075 
	C286.990631,221.992966 287.000000,222.000000 286.996338,221.995575 
	C286.840454,222.142288 286.688232,222.293411 286.368530,222.719284 
	C286.147949,223.156723 286.094879,223.319412 285.774414,223.922699 
	C285.304199,224.342712 285.101379,224.322144 284.619263,224.183594 
	C283.645752,223.615402 282.878235,223.472351 281.756470,223.497681 
	C281.253143,223.401749 281.057922,223.330795 280.769653,222.962494 
	C283.028595,219.629471 286.428009,217.539780 288.686005,213.987000 
z"/>
<path fill="#256BA4" opacity="1.000000" stroke="none" 
	d="
M80.955841,208.633377 
	C75.026131,207.374817 71.694176,202.880615 69.012505,197.331726 
	C72.959084,200.749985 76.895164,204.535797 80.955841,208.633377 
z"/>
<path fill="#3672A3" opacity="1.000000" stroke="none" 
	d="
M173.839767,23.580748 
	C171.818253,21.872824 171.813797,19.371130 172.323166,16.768143 
	C170.869415,16.007118 170.675415,18.118967 169.207642,17.901512 
	C169.654266,16.343262 170.418671,14.772835 171.463379,13.029340 
	C173.276810,12.104193 174.247696,12.562365 174.769653,14.592279 
	C174.568146,17.707142 174.261459,20.442930 173.839767,23.580748 
z"/>
<path fill="#2E6EA3" opacity="1.000000" stroke="none" 
	d="
M166.068787,65.346497 
	C169.609955,69.260315 172.274399,74.024559 173.935638,79.712448 
	C170.221176,75.888580 168.182373,70.780975 166.068787,65.346497 
z"/>
<path fill="#4A799E" opacity="1.000000" stroke="none" 
	d="
M110.222351,32.640221 
	C109.839325,31.591093 109.511772,30.409529 107.653595,30.062954 
	C109.147125,27.320034 110.945801,24.639029 112.744469,21.958025 
	C113.261787,25.947662 111.449089,29.049170 110.222351,32.640221 
z"/>
<path fill="#EAF7FA" opacity="1.000000" stroke="none" 
	d="
M203.218536,284.946808 
	C207.910126,283.243347 213.043472,281.581635 218.563980,279.904541 
	C215.152451,285.481812 208.898636,283.712708 203.218536,284.946808 
z"/>
<path fill="#256BA4" opacity="1.000000" stroke="none" 
	d="
M65.124313,192.500763 
	C58.472359,193.859924 60.282417,187.461578 58.074890,184.221695 
	C60.416782,186.631729 62.727272,189.401794 65.124313,192.500763 
z"/>
<path fill="#EAF7FA" opacity="1.000000" stroke="none" 
	d="
M219.316956,279.955231 
	C220.473541,279.157471 222.046310,278.394287 223.838547,277.380432 
	C224.423325,276.564728 225.050980,276.532379 225.896423,276.271240 
	C226.180969,276.178009 226.031799,276.169220 226.099167,276.201538 
	C227.602142,274.364838 229.799774,274.110413 232.477905,273.814972 
	C229.725098,278.490509 224.790329,279.378632 219.316956,279.955231 
z"/>
<path fill="#256BA4" opacity="1.000000" stroke="none" 
	d="
M233.228821,273.212585 
	C233.393539,266.751831 238.872574,268.499573 242.724426,267.104919 
	C243.301407,269.105927 241.864243,269.314758 240.176941,269.737610 
	C239.869461,269.889526 239.980820,269.964447 239.941772,269.909851 
	C238.763641,271.449768 236.911453,271.874695 234.954056,272.758911 
	C234.622696,272.847321 234.265961,272.856720 234.133820,272.976624 
	C233.821289,273.207794 233.640869,273.319122 233.228821,273.212585 
z"/>
<path fill="#2A6CA1" opacity="1.000000" stroke="none" 
	d="
M192.966995,72.628929 
	C188.052979,72.846321 186.781616,69.401726 186.260635,64.982475 
	C188.466522,67.215012 190.663788,69.761185 192.966995,72.628929 
z"/>
<path fill="#4E7CA1" opacity="1.000000" stroke="none" 
	d="
M35.527313,54.153404 
	C34.700432,53.931454 34.126286,53.469299 33.174736,52.948559 
	C33.969608,50.313538 35.979664,48.445240 38.461697,45.484463 
	C38.273556,49.374073 36.559929,51.496254 35.527313,54.153404 
z"/>
<path fill="#45759C" opacity="1.000000" stroke="none" 
	d="
M175.012421,14.628885 
	C174.047333,14.305506 173.219833,13.639657 172.068008,12.915041 
	C173.074768,10.689184 174.252792,8.385715 177.533646,6.471543 
	C176.552567,9.688057 175.851273,11.987236 175.012421,14.628885 
z"/>
<path fill="#256BA4" opacity="1.000000" stroke="none" 
	d="
M86.864616,213.688293 
	C86.695702,213.985550 86.319153,213.887085 86.057747,214.018188 
	C81.003021,216.553345 80.635384,213.594620 81.035721,209.330521 
	C82.939766,210.412582 84.825180,211.906036 86.864616,213.688293 
z"/>
<path fill="#EAF7FA" opacity="1.000000" stroke="none" 
	d="
M240.301407,269.929993 
	C240.846786,269.152313 241.824112,268.415100 242.962555,267.413147 
	C243.123672,267.148376 243.084442,267.120514 243.093231,267.136200 
	C244.091019,265.875488 245.093155,264.617432 247.473251,264.755432 
	C248.321182,270.717896 244.231644,269.903137 240.301407,269.929993 
z"/>
<path fill="#2E6EA3" opacity="1.000000" stroke="none" 
	d="
M231.764557,95.717125 
	C228.107574,94.686478 223.257751,96.780251 220.065918,92.299057 
	C223.852875,93.099243 227.671234,94.290451 231.764557,95.717125 
z"/>
<path fill="#2A6CA1" opacity="1.000000" stroke="none" 
	d="
M218.676926,91.087090 
	C215.113052,92.204079 212.293137,90.634918 210.106598,87.199776 
	C212.868561,88.185867 215.623367,89.540298 218.676926,91.087090 
z"/>
<path fill="#EAF7FA" opacity="1.000000" stroke="none" 
	d="
M281.256226,231.915085 
	C281.580780,230.546463 282.325836,229.216492 283.167908,227.570633 
	C283.165588,226.475967 283.612030,226.052261 284.573792,225.770935 
	C284.662384,228.283295 288.309021,232.810089 281.256226,231.915085 
z"/>
<path fill="#E1F4FB" opacity="1.000000" stroke="none" 
	d="
M293.287964,150.924591 
	C293.567841,149.529633 294.251709,148.156387 294.998596,146.456360 
	C295.640839,145.443054 295.343353,144.295883 296.623108,143.849274 
	C296.453278,146.517776 298.680054,150.405136 293.287964,150.924591 
z"/>
<path fill="#EAF7FA" opacity="1.000000" stroke="none" 
	d="
M250.970551,261.831604 
	C252.137436,260.994232 253.079742,260.387451 254.289215,259.691956 
	C255.814926,264.016998 252.799728,263.971069 249.520935,263.554443 
	C249.669968,262.722687 250.207977,262.392456 250.970551,261.831604 
z"/>
<path fill="#2A6CA1" opacity="1.000000" stroke="none" 
	d="
M181.403992,56.141617 
	C175.688278,56.761742 178.930038,52.206684 177.962677,49.482452 
	C179.085846,51.306881 180.206970,53.558754 181.403992,56.141617 
z"/>
<path fill="#EAF7FA" opacity="1.000000" stroke="none" 
	d="
M193.202362,287.192535 
	C195.717499,286.271820 198.460419,285.622955 201.603470,285.013947 
	C199.949219,288.714905 196.164337,286.221191 193.202362,287.192535 
z"/>
<path fill="#417299" opacity="1.000000" stroke="none" 
	d="
M296.998840,143.652557 
	C296.490784,144.527023 296.020905,145.155533 295.306274,145.956802 
	C294.854858,145.189148 294.648132,144.248734 294.155884,143.079056 
	C295.225739,141.891663 295.129913,138.443512 298.201324,140.691956 
	C298.246613,141.031860 298.020874,141.463150 298.000793,141.705719 
	C297.837860,142.102036 297.694977,142.255814 297.432251,142.700775 
	C297.312439,142.991974 297.036987,143.406616 296.998840,143.652557 
z"/>
<path fill="#256BA4" opacity="1.000000" stroke="none" 
	d="
M55.103531,179.558578 
	C51.812889,179.679535 50.890457,177.574188 51.092701,174.233307 
	C52.444477,175.633041 53.747612,177.428009 55.103531,179.558578 
z"/>
<path fill="#4E7B9F" opacity="1.000000" stroke="none" 
	d="
M286.859253,88.709015 
	C286.161774,88.650597 285.713989,88.351280 285.023682,87.935371 
	C286.284149,86.229141 287.787170,84.639496 289.290192,83.049850 
	C289.570862,83.268906 289.851532,83.487961 290.132202,83.707008 
	C289.124451,85.294044 288.116699,86.881073 286.859253,88.709015 
z"/>
<path fill="#EAF7FA" opacity="1.000000" stroke="none" 
	d="
M235.019989,272.891418 
	C236.156570,271.878876 237.690445,270.910431 239.563522,269.898621 
	C239.632202,272.665314 237.505447,272.772339 235.019989,272.891418 
z"/>
<path fill="#E1F4FB" opacity="1.000000" stroke="none" 
	d="
M289.283569,156.924286 
	C289.672699,155.603394 290.470673,154.299866 291.547241,152.812561 
	C291.790009,154.400452 292.891479,156.734772 289.283569,156.924286 
z"/>
<path fill="#256BA4" opacity="1.000000" stroke="none" 
	d="
M58.078526,183.583954 
	C55.562889,184.307709 54.800442,182.967560 55.078972,180.259674 
	C56.082813,180.992065 57.047108,182.130295 58.078526,183.583954 
z"/>
<path fill="#EAF7FA" opacity="1.000000" stroke="none" 
	d="
M270.501160,245.028839 
	C270.883911,244.081619 271.635986,243.115616 272.667236,242.012024 
	C273.045746,243.443542 273.015747,244.927017 270.501160,245.028839 
z"/>
<path fill="#EAF7FA" opacity="1.000000" stroke="none" 
	d="
M275.059509,239.871445 
	C275.264709,238.997513 275.840179,238.125626 276.705505,237.126343 
	C276.953217,238.218399 277.156494,239.571533 275.059509,239.871445 
z"/>
<path fill="#2A6CA1" opacity="1.000000" stroke="none" 
	d="
M183.995117,60.668266 
	C182.462082,60.928379 181.957169,60.003529 182.098846,58.220669 
	C182.752762,58.688267 183.359344,59.520782 183.995117,60.668266 
z"/>
<path fill="#2E6EA3" opacity="1.000000" stroke="none" 
	d="
M164.796799,61.253868 
	C166.287613,61.647621 165.951202,63.022610 166.056244,64.548447 
	C165.623917,63.763756 165.196732,62.659554 164.796799,61.253868 
z"/>
<path fill="#256BA4" opacity="1.000000" stroke="none" 
	d="
M284.937256,225.569809 
	C284.513611,226.176849 284.123871,226.561234 283.499542,227.100189 
	C283.264984,227.254745 283.083588,227.080307 282.992645,226.993332 
	C282.050873,225.377365 282.083069,224.152191 284.451508,223.734833 
	C284.860321,223.879486 285.008057,224.012589 285.081329,224.079834 
	C285.154602,224.147079 285.388123,224.547287 285.314758,224.767029 
	C285.241364,224.986786 284.971161,225.347153 284.937256,225.569809 
z"/>
<path fill="#EAF7FA" opacity="1.000000" stroke="none" 
	d="
M279.100464,234.795731 
	C279.251892,233.886932 279.779388,233.004288 280.589233,231.984924 
	C280.915039,233.077972 281.292389,234.464371 279.100464,234.795731 
z"/>
<path fill="#EAF7FA" opacity="1.000000" stroke="none" 
	d="
M255.002106,259.668335 
	C255.210800,259.032196 255.775375,258.498718 256.625885,257.878021 
	C256.893311,258.842804 256.694702,259.753418 255.002106,259.668335 
z"/>
<path fill="#3672A3" opacity="1.000000" stroke="none" 
	d="
M174.027451,32.585098 
	C172.956940,32.293495 172.885773,31.425541 173.585159,30.230518 
	C173.901703,30.761705 174.002686,31.491808 174.027451,32.585098 
z"/>
<path fill="#EAF7FA" opacity="1.000000" stroke="none" 
	d="
M266.580322,249.030334 
	C266.721100,248.526062 267.141479,247.961182 267.815186,247.303986 
	C267.979584,248.013519 267.683929,248.673233 266.580322,249.030334 
z"/>
<path fill="#2A6CA1" opacity="1.000000" stroke="none" 
	d="
M186.323242,64.468475 
	C185.616135,64.684357 185.199753,64.257050 185.109482,63.182461 
	C185.511749,63.288925 185.894531,63.729206 186.323242,64.468475 
z"/>
<path fill="#2A6CA1" opacity="1.000000" stroke="none" 
	d="
M185.140793,62.624454 
	C184.796219,62.479183 184.416565,62.039116 184.028397,61.286659 
	C184.381805,61.426064 184.743759,61.877857 185.140793,62.624454 
z"/>
<path fill="#2E6EA3" opacity="1.000000" stroke="none" 
	d="
M163.969467,58.340427 
	C164.003174,57.998898 164.491028,58.002872 164.734665,58.008652 
	C164.896881,58.536167 164.815460,59.057899 164.549545,59.773895 
	C164.221939,59.539429 164.078857,59.110691 163.969467,58.340427 
z"/>
<path fill="#3672A3" opacity="1.000000" stroke="none" 
	d="
M173.805405,27.652655 
	C173.081085,27.542265 172.918243,27.006121 173.513428,26.185375 
	C173.766815,26.467249 173.835144,26.900818 173.805405,27.652655 
z"/>
<path fill="#256BA4" opacity="1.000000" stroke="none" 
	d="
M278.061279,225.058594 
	C278.386810,224.620300 278.757141,224.223801 279.392242,223.746887 
	C279.860107,223.735947 280.063202,223.805435 280.280426,224.197311 
	C279.997070,225.173340 279.474792,225.470581 278.483398,225.332336 
	C278.195526,225.184097 278.106079,225.100372 278.061279,225.058594 
z"/>
<path fill="#256BA4" opacity="1.000000" stroke="none" 
	d="
M40.042210,152.676208 
	C39.705444,152.493469 39.381367,152.002899 39.075382,151.199509 
	C39.413952,151.380585 39.734425,151.874496 40.042210,152.676208 
z"/>
<path fill="#E1F4FB" opacity="1.000000" stroke="none" 
	d="
M292.334076,151.870697 
	C292.231049,151.688690 292.337891,151.386551 292.675934,150.983231 
	C292.923096,151.228867 292.802032,151.518372 292.334076,151.870697 
z"/>
<path fill="#256BA4" opacity="1.000000" stroke="none" 
	d="
M66.115196,193.626465 
	C65.881775,193.704376 65.573654,193.515610 65.199982,193.053162 
	C65.436455,192.972916 65.738472,193.166367 66.115196,193.626465 
z"/>
<path fill="#256BA4" opacity="1.000000" stroke="none" 
	d="
M67.062492,194.670776 
	C66.835251,194.740326 66.541016,194.541718 66.176590,194.077530 
	C66.402763,194.008835 66.699127,194.205719 67.062492,194.670776 
z"/>
<path fill="#2A6CA1" opacity="1.000000" stroke="none" 
	d="
M174.187180,34.542404 
	C174.076279,34.602478 173.993301,34.284027 174.008423,34.203728 
	C174.236328,34.150772 174.327850,34.270405 174.187180,34.542404 
z"/>
<path fill="#256BA4" opacity="1.000000" stroke="none" 
	d="
M67.999855,195.708847 
	C67.788536,195.770264 67.505547,195.573029 67.142929,195.122345 
	C67.351593,195.062653 67.639885,195.256424 67.999855,195.708847 
z"/>
<path fill="#EAF7FA" opacity="1.000000" stroke="none" 
	d="
M232.998535,272.997375 
	C233.165558,273.001953 233.333954,273.009155 233.752014,273.056396 
	C233.900131,273.391998 233.726624,273.636444 233.291992,273.954865 
	C233.102798,274.079895 232.946075,273.939240 232.869919,273.866516 
	C232.731079,273.636841 232.668396,273.479858 232.799835,273.159729 
	C232.993958,272.996582 232.999924,273.000000 232.998535,272.997375 
z"/>
<path fill="#256BA4" opacity="1.000000" stroke="none" 
	d="
M68.977867,196.723419 
	C68.762436,196.792404 68.486900,196.601196 68.121933,196.169037 
	C68.327599,196.106461 68.622673,196.284836 68.977867,196.723419 
z"/>
<path fill="#2A6CA1" opacity="1.000000" stroke="none" 
	d="
M182.154373,57.632191 
	C181.900421,57.652172 181.630081,57.413601 181.424774,56.892876 
	C181.705856,56.865028 181.921936,57.119335 182.154373,57.632191 
z"/>
<path fill="#E1F4FB" opacity="1.000000" stroke="none" 
	d="
M287.427551,158.897903 
	C287.187805,158.654816 287.307281,158.389862 287.806335,158.123688 
	C287.993378,158.355042 287.860352,158.606232 287.427551,158.897903 
z"/>
<path fill="#EAF7FA" opacity="1.000000" stroke="none" 
	d="
M249.049179,264.068726 
	C248.933823,264.396973 248.725037,264.627228 248.269745,264.935455 
	C248.068024,265.053986 247.877884,264.857391 247.785095,264.756927 
	C247.752213,264.245819 247.964020,263.940582 248.612579,263.821289 
	C248.897430,263.901794 249.000504,264.011383 249.049179,264.068726 
z"/>
<path fill="#E1F4FB" opacity="1.000000" stroke="none" 
	d="
M288.271027,157.898300 
	C288.171539,157.702454 288.299713,157.387939 288.671753,156.971939 
	C288.776672,157.173508 288.637695,157.476578 288.271027,157.898300 
z"/>
<path fill="#296DA4" opacity="1.000000" stroke="none" 
	d="
M13.503429,79.835403 
	C13.648434,80.043106 13.551587,80.378510 13.222148,80.853363 
	C13.080230,80.649574 13.170905,80.306343 13.503429,79.835403 
z"/>
<path fill="#EAF7FA" opacity="1.000000" stroke="none" 
	d="
M287.223602,221.878922 
	C287.137634,221.682526 287.284668,221.372101 287.672607,220.961243 
	C287.761200,221.162186 287.608917,221.463531 287.223602,221.878922 
z"/>
<path fill="#EAF7FA" opacity="1.000000" stroke="none" 
	d="
M258.113678,256.877502 
	C258.065704,256.671906 258.267303,256.393524 258.725403,256.057129 
	C258.775726,256.267670 258.569489,256.536194 258.113678,256.877502 
z"/>
<path fill="#EAF7FA" opacity="1.000000" stroke="none" 
	d="
M259.224792,255.903168 
	C259.024719,255.613892 259.201721,255.346954 259.777130,255.134308 
	C259.922852,255.404099 259.731598,255.649734 259.224792,255.903168 
z"/>
<path fill="#EAF7FA" opacity="1.000000" stroke="none" 
	d="
M260.297791,254.936707 
	C260.109772,254.678650 260.268402,254.416382 260.802216,254.191772 
	C260.937073,254.438004 260.759399,254.672363 260.297791,254.936707 
z"/>
<path fill="#EAF7FA" opacity="1.000000" stroke="none" 
	d="
M286.386322,222.873596 
	C286.299011,222.699417 286.397003,222.404816 286.743835,222.050690 
	C286.940002,222.293625 286.799652,222.547638 286.386322,222.873596 
z"/>
<path fill="#256BA4" opacity="1.000000" stroke="none" 
	d="
M279.753052,223.759583 
	C279.742004,223.327026 279.928192,223.057556 280.446106,222.761597 
	C280.676544,222.665161 280.858826,222.854980 280.951111,222.948761 
	C281.178436,223.493347 281.044220,223.853699 280.357361,224.088623 
	C280.038452,224.041687 279.849091,223.852692 279.753052,223.759583 
z"/>
<path fill="#EAF7FA" opacity="1.000000" stroke="none" 
	d="
M285.427216,224.872833 
	C285.241364,224.986786 285.161835,224.570663 285.158203,224.358871 
	C285.154602,224.147079 285.576996,224.076035 285.787140,224.034805 
	C285.966827,224.297699 285.838745,224.552795 285.427216,224.872833 
z"/>
<path fill="#E1F4FB" opacity="1.000000" stroke="none" 
	d="
M297.491760,142.868149 
	C297.264465,142.670471 297.361237,142.400909 297.791748,142.065781 
	C297.985840,142.255783 297.882599,142.521133 297.491760,142.868149 
z"/>
<path fill="#EAF7FA" opacity="1.000000" stroke="none" 
	d="
M278.099731,235.816254 
	C277.987671,235.588303 278.138763,235.263565 278.545044,234.835571 
	C278.654419,235.061371 278.508636,235.390411 278.099731,235.816254 
z"/>
<path fill="#EAF7FA" opacity="1.000000" stroke="none" 
	d="
M277.229889,236.876068 
	C277.136078,236.678345 277.273895,236.361389 277.657104,235.942444 
	C277.755463,236.145905 277.608490,236.451370 277.229889,236.876068 
z"/>
<path fill="#1067AF" opacity="1.000000" stroke="none" 
	d="
M264.925293,248.525635 
	C261.307678,248.759842 260.043457,252.105606 257.324463,253.869019 
	C253.815613,254.491684 251.097610,253.312775 248.283386,251.252609 
	C244.474808,251.478851 241.835892,249.546005 239.083221,247.393875 
	C243.029037,247.554962 246.835999,245.845642 250.807556,245.958649 
	C253.287094,246.029175 252.418610,243.085968 253.679184,242.560913 
	C260.842865,239.576981 267.275787,235.356781 273.805786,231.271362 
	C274.707214,230.707367 276.266754,230.626785 276.704559,232.121048 
	C277.223267,233.891449 275.848877,234.975021 274.567566,235.637360 
	C269.368011,238.325104 267.806885,243.721680 264.925293,248.525635 
z"/>
<path fill="#0F67AF" opacity="1.000000" stroke="none" 
	d="
M18.280409,77.282471 
	C17.691916,71.985245 23.914764,71.636208 24.474138,66.733246 
	C28.889690,71.103508 28.279854,75.763382 27.311758,80.726715 
	C26.576473,81.010254 26.129061,81.005585 25.346291,81.001099 
	C24.348381,80.387245 24.069689,79.609459 24.030247,78.540298 
	C24.020443,78.355186 24.016527,78.025314 23.992443,78.220764 
	C23.975779,79.158600 23.863365,79.870895 23.215176,80.753677 
	C21.746000,81.981247 21.953072,83.381844 22.015490,84.675049 
	C22.493608,94.581047 21.199425,104.506157 22.703712,114.438248 
	C23.078518,116.912895 23.134413,121.951370 20.328360,122.071732 
	C17.669924,122.185760 19.155313,117.712845 19.075190,115.325821 
	C18.653008,102.748405 19.531733,90.151100 18.280409,77.282471 
z"/>
<path fill="#1466AA" opacity="1.000000" stroke="none" 
	d="
M248.056442,251.354645 
	C250.782059,251.906754 253.564102,252.812897 256.685303,253.869598 
	C257.024475,254.020172 257.014160,254.510681 257.008911,254.755951 
	C253.582184,255.140121 250.354111,254.756775 248.056442,251.354645 
z"/>
<path fill="#256BA4" opacity="1.000000" stroke="none" 
	d="
M232.589600,272.987976 
	C232.993958,272.996582 232.883316,273.392548 232.838531,273.593201 
	C230.821594,274.585968 228.849426,275.378143 226.521896,276.202087 
	C226.700974,272.427155 229.705643,273.188721 232.589600,272.987976 
z"/>
<path fill="#256BA4" opacity="1.000000" stroke="none" 
	d="
M248.955933,263.689545 
	C248.588303,264.014740 248.279160,264.127686 247.831177,264.448547 
	C246.379608,265.451263 245.066910,266.246063 243.428101,267.096375 
	C243.318436,263.831390 245.429581,262.912567 248.739075,263.033813 
	C249.131958,263.052917 249.014420,263.477295 248.955933,263.689545 
z"/>
<path fill="#256BA4" opacity="1.000000" stroke="none" 
	d="
M139.912140,251.396698 
	C141.619965,251.075333 143.102371,250.563248 145.470459,252.670258 
	C142.760880,252.529694 141.133621,254.426880 139.912140,251.396698 
z"/>
<path fill="#236197" opacity="1.000000" stroke="none" 
	d="
M23.324018,81.002426 
	C22.992964,79.617516 22.999289,78.233749 23.009186,76.435051 
	C23.391802,75.638199 23.847162,75.489052 24.687708,75.789230 
	C25.000511,77.393661 25.004316,78.781105 25.009529,80.584915 
	C24.561090,81.002045 24.111244,81.002800 23.324018,81.002426 
z"/>
<path fill="#286CA2" opacity="1.000000" stroke="none" 
	d="
M19.907772,200.778793 
	C18.956820,199.666443 18.055641,198.167084 17.144915,196.333435 
	C19.896231,196.293945 20.101482,198.230698 19.907772,200.778793 
z"/>
<path fill="#256BA4" opacity="1.000000" stroke="none" 
	d="
M228.196167,254.567368 
	C227.058472,254.874969 226.032730,255.324188 225.595505,254.052017 
	C225.531738,253.866501 225.813538,253.362152 226.000748,253.323746 
	C227.018402,253.114960 228.279282,252.494598 228.196167,254.567368 
z"/>
<path fill="#256BA4" opacity="1.000000" stroke="none" 
	d="
M156.804703,253.428436 
	C157.943665,253.117477 158.968262,252.673630 159.406998,253.943527 
	C159.470871,254.128403 159.188507,254.633224 159.001755,254.671036 
	C157.985413,254.876923 156.722000,255.504669 156.804703,253.428436 
z"/>
<path fill="#256BA4" opacity="1.000000" stroke="none" 
	d="
M90.695404,223.483597 
	C91.756165,223.017776 92.547928,223.125473 93.073624,223.863037 
	C93.412277,224.338165 93.108627,224.813751 92.586838,224.867599 
	C91.661957,224.963043 90.574142,225.179794 90.695404,223.483597 
z"/>
<path fill="#256BA4" opacity="1.000000" stroke="none" 
	d="
M84.399094,219.954437 
	C84.799980,219.217010 85.204918,219.211136 85.563751,219.733688 
	C85.639008,219.843262 85.636894,220.097824 85.559235,220.204987 
	C85.187202,220.718292 84.782463,220.699402 84.399094,219.954437 
z"/>
<path fill="#256BA4" opacity="1.000000" stroke="none" 
	d="
M225.857544,276.136780 
	C225.678223,276.490540 225.175476,276.803101 224.365356,277.122681 
	C224.550034,276.785004 225.042068,276.440277 225.857544,276.136780 
z"/>
<path fill="#286CA2" opacity="1.000000" stroke="none" 
	d="
M16.913122,194.908630 
	C16.554317,194.730118 16.215242,194.216568 15.854492,193.383118 
	C16.199493,193.566696 16.566174,194.070145 16.913122,194.908630 
z"/>
<path fill="#286CA2" opacity="1.000000" stroke="none" 
	d="
M20.923519,202.832626 
	C20.563337,202.672516 20.212151,202.185852 19.831745,201.389954 
	C20.179190,201.555847 20.555851,202.030960 20.923519,202.832626 
z"/>
<path fill="#0B68B2" opacity="1.000000" stroke="none" 
	d="
M93.306595,99.425636 
	C94.114731,103.892059 95.720703,107.840645 94.218330,112.072067 
	C91.367096,99.062431 88.567154,86.047844 90.847626,72.684479 
	C91.619362,72.648544 92.391106,72.612610 93.162849,72.576668 
	C93.162849,81.383430 93.162849,90.190193 93.306595,99.425636 
z"/>
<path fill="#0E68B1" opacity="1.000000" stroke="none" 
	d="
M241.883514,100.292572 
	C246.386353,100.968307 250.678925,101.321465 255.151398,100.116753 
	C258.390076,99.244392 261.701111,100.409378 264.766022,101.585304 
	C265.835632,101.995697 267.481812,102.609329 267.514679,104.108330 
	C267.552582,105.837479 265.854492,105.900909 264.629517,106.226540 
	C263.371033,106.561073 262.074982,106.754097 260.399536,107.019386 
	C261.679535,104.012367 260.698578,102.866287 257.363098,102.968300 
	C253.075623,103.099419 248.779297,103.067741 244.490601,102.957779 
	C243.141968,102.923203 240.612000,103.796089 241.883514,100.292572 
z"/>
<path fill="#0B67B4" opacity="1.000000" stroke="none" 
	d="
M170.683807,42.849937 
	C170.997467,44.713558 171.001266,46.421616 171.008438,48.555756 
	C170.693954,50.457458 171.703461,52.234722 169.605515,53.834782 
	C169.317856,50.208607 166.576706,47.813301 166.911911,44.125809 
	C167.217499,40.764050 168.267471,40.873093 170.683807,42.849937 
z"/>
<path fill="#0C68B1" opacity="1.000000" stroke="none" 
	d="
M188.131805,90.694443 
	C184.250778,91.216980 183.054550,88.578148 182.025070,85.354645 
	C189.127960,85.028801 189.341141,85.209915 188.131805,90.694443 
z"/>
<path fill="#2E6EA3" opacity="1.000000" stroke="none" 
	d="
M165.172791,57.888824 
	C165.012344,57.971672 164.998428,57.497677 164.998672,57.260876 
	C165.110352,57.284710 165.221786,57.545345 165.172791,57.888824 
z"/>
<path fill="#1469AC" opacity="1.000000" stroke="none" 
	d="
M279.873047,224.268677 
	C280.345551,223.917557 280.599854,223.724060 280.922363,223.251892 
	C282.334747,222.615936 283.693329,220.904816 284.850159,223.560394 
	C283.550629,224.117767 282.959229,224.933029 282.936066,226.569336 
	C281.300690,226.543457 278.842255,230.187302 278.140869,225.529984 
	C278.699554,224.954620 279.203583,224.725143 279.873047,224.268677 
z"/>
<path fill="#256BA4" opacity="1.000000" stroke="none" 
	d="
M255.086655,247.959579 
	C255.545242,244.144867 260.812347,240.978119 266.020447,241.659088 
	C262.871948,243.362213 260.927368,245.547302 258.881500,247.623749 
	C257.802704,248.718704 256.707947,249.070496 255.086655,247.959579 
z"/>
<path fill="#1567AA" opacity="1.000000" stroke="none" 
	d="
M24.959831,75.706268 
	C24.555714,76.006638 24.114719,76.007057 23.343245,76.013794 
	C23.240124,75.497093 23.332561,74.716255 23.725912,74.510414 
	C24.343349,74.187302 24.752714,74.780464 24.959831,75.706268 
z"/>
</svg>