<svg version="1.1" id="Layer_1" xmlns="http://www.w3.org/2000/svg" xmlns:xlink="http://www.w3.org/1999/xlink" x="0px" y="0px"
	 width="100%" viewBox="0 0 2400 1472" enable-background="new 0 0 2400 1472" xml:space="preserve">
<path fill="#000000" opacity="1.000000" stroke="none" 
	d="
M1.288795,486.284851 
	C1.000000,326.033417 1.015554,166.066833 0.909439,6.100339 
	C0.906811,2.139138 1.393998,0.867731 5.897666,0.868905 
	C538.952698,1.007810 1072.007690,1.000000 1605.531372,1.000000 
	C1607.553467,2.222847 1607.949829,3.568789 1606.604980,5.246950 
	C1602.556885,10.298024 1602.479248,16.288048 1602.480957,22.356827 
	C1602.507324,116.852882 1602.501953,211.348938 1602.498413,305.845001 
	C1602.497559,325.510803 1602.579102,345.177002 1602.456909,364.842255 
	C1602.404175,373.320496 1597.332520,378.566956 1589.783325,378.439758 
	C1586.439575,378.383392 1583.745850,376.729614 1581.004761,375.149994 
	C1563.968628,365.332428 1546.898804,355.570984 1529.908813,345.676514 
	C1519.304321,339.500671 1509.158936,339.695404 1498.712036,345.751923 
	C1462.240967,366.895721 1425.733643,387.977020 1389.227539,409.060272 
	C1352.144165,430.476898 1315.308105,452.336884 1277.887451,473.146454 
	C1264.033325,480.850739 1258.322998,491.376404 1258.405640,506.708679 
	C1258.663696,554.538574 1258.500977,602.370850 1258.500122,650.202148 
	C1258.499512,685.200684 1258.498291,720.199280 1258.501831,755.197815 
	C1258.502319,759.031616 1258.645996,762.842224 1259.213867,766.657043 
	C1260.538086,775.552551 1265.245239,782.000183 1272.927856,786.453003 
	C1303.202393,804.000244 1333.515137,821.481445 1363.800415,839.009949 
	C1407.785522,864.467712 1451.950073,889.620056 1495.714233,915.452332 
	C1508.330322,922.899109 1519.723389,923.008423 1532.290405,915.752808 
	C1605.019653,873.762146 1677.601440,831.515564 1750.444458,789.721741 
	C1753.478760,787.980713 1756.509277,786.220337 1759.285889,784.072693 
	C1765.585205,779.200256 1769.057495,772.837341 1769.404297,764.830017 
	C1769.519775,762.164612 1769.498779,759.498108 1769.498779,756.831726 
	C1769.500366,541.174072 1769.500610,325.516388 1769.495483,109.858704 
	C1769.495361,106.194664 1769.679688,102.513962 1769.070557,98.879967 
	C1767.679932,90.582428 1762.990601,84.542511 1755.861816,80.401833 
	C1739.724487,71.028610 1723.357788,62.058826 1707.043213,53.000526 
	C1679.946777,37.955811 1652.912964,22.798420 1625.884033,7.634124 
	C1623.879028,6.509161 1619.246948,6.253414 1621.703613,1.300225 
	C1880.145264,1.000000 2138.290527,1.008509 2396.435791,0.913731 
	C2400.066895,0.912398 2401.103516,1.538031 2401.102539,5.435156 
	C2400.993896,493.061401 2400.992676,980.687683 2401.118164,1468.313965 
	C2401.119141,1472.503540 2400.107666,1473.101685 2396.186768,1473.101196 
	C1599.419434,1472.996460 802.652039,1472.994629 5.884712,1473.133423 
	C1.343565,1473.134155 0.911003,1471.811157 0.912887,1467.885498 
	C1.011601,1262.236084 1.000000,1056.586670 1.000000,850.468628 
	C2.519776,848.254028 3.958018,847.908813 5.232096,850.251953 
	C5.390761,850.543762 5.541837,850.840271 5.722863,851.121277 
	C10.878802,859.127197 16.336283,860.671692 24.756464,856.033386 
	C36.870022,849.360718 48.816128,842.385925 60.817692,835.512451 
	C92.627739,817.294312 124.412285,799.030212 156.326736,780.996887 
	C166.647247,775.165222 171.616287,766.991516 171.576385,755.039490 
	C171.400620,702.376099 171.634232,649.711121 171.416901,597.048035 
	C171.351913,581.300720 177.535202,570.197021 191.589279,562.600830 
	C209.463318,552.940002 226.845749,542.363281 244.437592,532.177063 
	C254.451279,526.378845 264.496277,525.869629 274.748749,531.841675 
	C293.608856,542.827576 312.609406,553.577698 331.349915,564.762756 
	C341.886780,571.051575 347.661743,580.192871 347.601105,593.141785 
	C347.356750,645.304688 347.498047,697.469421 347.502045,749.633484 
	C347.502258,752.466064 347.437897,755.302246 347.728210,758.126282 
	C348.762878,768.192139 353.922699,775.411072 362.647095,780.426941 
	C390.238342,796.289734 417.909882,812.011902 445.525482,827.831909 
	C460.850861,836.611145 476.200928,845.347412 491.523743,854.131226 
	C493.984436,855.541870 496.442108,856.970093 499.147827,857.854187 
	C506.422058,860.231323 513.057129,856.495667 514.870300,849.036072 
	C515.505981,846.421021 515.492126,843.746155 515.492493,841.079468 
	C515.503662,763.916687 516.183655,686.745239 515.208008,609.594727 
	C514.721375,571.110779 514.911133,532.632935 514.570190,494.154236 
	C514.470093,482.866852 509.848785,474.606018 500.265747,469.027710 
	C472.473419,452.849640 444.564148,436.873688 416.691254,420.834991 
	C371.052155,394.573212 325.409485,368.317688 279.780304,342.038666 
	C277.180267,340.541199 274.596558,339.001312 271.892120,337.711365 
	C263.035767,333.487122 254.338791,333.374939 245.617004,338.408783 
	C195.539490,367.311127 145.410095,396.123627 95.309998,424.986938 
	C70.333267,439.376343 45.304443,453.675079 20.380590,468.156616 
	C13.543961,472.128906 7.950859,477.084198 5.431812,484.880402 
	C4.822929,486.764893 3.963006,488.526672 1.288795,486.284851 
z"/>
<path fill="#333333" opacity="1.000000" stroke="none" 
	d="
M1621.533203,1.000000 
	C1625.590088,6.493961 1631.926636,7.941279 1637.126221,10.918665 
	C1659.454224,23.703989 1681.989502,36.127754 1704.468872,48.648010 
	C1720.275513,57.451817 1736.090942,66.240631 1751.948486,74.952339 
	C1759.158813,78.913490 1766.065674,83.081505 1769.581787,91.093872 
	C1771.075195,94.497055 1772.030518,97.899124 1772.029907,101.671890 
	C1771.992065,322.795410 1771.992920,543.918945 1772.006470,765.042480 
	C1772.007080,774.981506 1767.260132,782.413757 1759.177246,787.359131 
	C1744.882935,796.104858 1730.220337,804.247864 1715.728760,812.672119 
	C1689.314087,828.027283 1662.943237,843.458191 1636.495361,858.755798 
	C1610.188965,873.971619 1583.808594,889.059387 1557.464233,904.209595 
	C1548.684937,909.258362 1539.939331,914.366150 1531.137939,919.375977 
	C1519.512329,925.993408 1508.395752,926.020935 1496.452026,918.953064 
	C1461.553955,898.301697 1426.226807,878.377014 1391.131470,858.057373 
	C1354.608032,836.910950 1318.163818,815.627869 1281.671143,794.428223 
	C1277.367188,791.927917 1272.826172,789.808899 1268.655396,787.110779 
	C1259.033569,780.886292 1256.041138,771.274109 1256.026123,760.489197 
	C1255.960083,712.831970 1255.995361,665.174500 1255.995483,617.517151 
	C1255.995605,579.024658 1255.933716,540.531982 1256.037354,502.039764 
	C1256.069336,490.153351 1260.151489,480.250519 1271.191162,474.221466 
	C1274.545776,472.389374 1277.804565,470.382294 1281.113647,468.466522 
	C1310.454956,451.479828 1339.780518,434.466125 1369.144531,417.518829 
	C1400.381714,399.490540 1431.662354,381.537506 1462.909912,363.527161 
	C1474.138184,357.055481 1485.443237,350.704987 1496.499878,343.950012 
	C1508.442871,336.653442 1519.846558,336.312592 1532.052490,343.819061 
	C1549.022949,354.255554 1566.495605,363.876099 1583.764526,373.826477 
	C1592.250000,378.715881 1599.667969,374.613098 1599.969727,364.873108 
	C1600.041870,362.542297 1599.997192,360.207703 1599.997192,357.874847 
	C1599.998047,245.730057 1600.041382,133.585205 1599.900269,21.440599 
	C1599.890991,14.026080 1600.448975,7.210495 1605.988525,1.350887 
	C1611.022095,1.000000 1616.044189,1.000000 1621.533203,1.000000 
z"/>
<path fill="#333333" opacity="1.000000" stroke="none" 
	d="
M1.000000,486.468658 
	C1.530175,485.640503 2.416062,485.374268 2.538363,484.907837 
	C5.393616,474.018341 13.959081,468.672424 22.890612,463.543762 
	C50.710022,447.569397 78.451668,431.459625 106.261391,415.468353 
	C134.072540,399.476257 161.942291,383.586151 189.761642,367.608337 
	C208.064255,357.096405 226.417725,346.667603 244.562958,335.889343 
	C254.129227,330.207001 263.971130,330.186096 273.067017,335.272003 
	C302.935364,351.972687 332.409271,369.377533 362.085999,386.422577 
	C387.999390,401.306000 414.016479,416.009003 439.923431,430.903625 
	C461.225555,443.150757 482.585724,455.310028 503.608215,468.024048 
	C512.091064,473.154358 517.093628,480.989716 517.049744,491.592438 
	C516.911255,525.088318 516.372070,558.599243 517.123962,592.078857 
	C519.016785,676.356506 517.392212,760.636475 517.982910,844.912415 
	C518.049683,854.439026 514.873047,858.630005 506.560516,861.295532 
	C502.840271,862.488464 499.517792,861.580078 496.525024,859.883545 
	C470.498260,845.129883 444.559998,830.220154 418.586639,815.372070 
	C399.394684,804.400696 380.204834,793.425354 360.984375,782.503967 
	C350.209808,776.381714 344.907928,767.364685 344.939911,754.809753 
	C345.076630,701.149048 344.891846,647.487549 345.076813,593.827209 
	C345.119019,581.587708 340.080139,572.818237 329.673126,566.795898 
	C310.252991,555.557861 290.886230,544.226868 271.420746,533.068054 
	C263.692871,528.637939 255.427643,529.077332 248.016830,533.206726 
	C228.283142,544.202515 208.959991,555.932434 189.305405,567.073792 
	C177.714798,573.643982 174.029922,584.015808 174.020203,596.377441 
	C173.978134,649.871765 173.884354,703.366577 174.086151,756.860168 
	C174.133102,769.310669 168.387772,777.309631 157.876099,783.137024 
	C138.257156,794.013367 118.853508,805.278503 99.376221,816.409729 
	C76.862343,829.276306 54.366516,842.174377 31.860184,855.054138 
	C29.263151,856.540344 26.710011,858.119995 24.031744,859.444458 
	C15.246249,863.789246 7.899764,861.312988 3.310244,852.556641 
	C2.855876,851.689697 2.716945,850.617981 1.336582,850.078369 
	C1.000000,728.979126 1.000000,607.958191 1.000000,486.468658 
z"/>
<path fill="#333333" opacity="1.000000" stroke="none" 
	d="
M2149.547852,534.280273 
	C2143.573486,530.842041 2138.158691,531.533386 2132.674805,534.683960 
	C2109.272949,548.129150 2085.818359,561.482727 2062.389893,574.881653 
	C2058.292236,577.225159 2056.087158,580.875793 2056.074219,585.516113 
	C2055.997070,613.514221 2055.996582,641.512756 2056.075684,669.510864 
	C2056.088867,674.154175 2058.349365,677.817383 2062.387451,680.176453 
	C2074.859863,687.463501 2087.350586,694.720215 2099.868408,701.928833 
	C2119.155762,713.035522 2138.474854,724.087585 2157.775146,735.171936 
	C2180.955811,748.484741 2204.142578,761.786560 2227.304932,775.131104 
	C2249.608643,787.981140 2271.953125,800.763672 2294.138184,813.815796 
	C2302.650146,818.823608 2302.808838,832.082764 2294.355957,837.232605 
	C2283.996826,843.543823 2273.249023,849.217896 2262.656250,855.144531 
	C2237.443115,869.251343 2212.227539,883.353699 2187.001953,897.438721 
	C2177.436035,902.780029 2167.655762,907.764954 2158.302979,913.454407 
	C2145.396973,921.305786 2133.530762,918.760254 2121.301270,911.668884 
	C2090.811768,893.988770 2060.086426,876.716187 2029.490479,859.218933 
	C1998.178223,841.312012 1966.918701,823.313110 1935.612915,805.395203 
	C1924.791382,799.201538 1913.978149,792.985413 1903.019653,787.040649 
	C1890.945068,780.490356 1884.879272,770.877869 1884.909058,756.824219 
	C1885.088745,671.995850 1885.202393,587.166016 1884.819580,502.338989 
	C1884.746338,486.124573 1891.151978,475.528259 1905.133789,467.757721 
	C1932.882935,452.335999 1960.170654,436.084900 1987.669922,420.212982 
	C2013.867920,405.092194 2040.107422,390.043701 2066.300293,374.914673 
	C2087.307373,362.781097 2108.126221,350.312195 2129.317871,338.512360 
	C2139.757568,332.699463 2150.295166,334.250488 2160.599854,340.289398 
	C2187.964844,356.326477 2215.535889,372.011261 2242.977783,387.917206 
	C2263.658936,399.904388 2284.257568,412.034241 2304.911377,424.068848 
	C2330.879883,439.200348 2356.834717,454.355652 2382.861816,469.385986 
	C2393.778076,475.689880 2399.288574,484.676544 2399.085938,497.536102 
	C2398.760498,518.196533 2399.002686,538.865845 2398.995361,559.531372 
	C2398.991455,570.438721 2394.264893,578.592896 2384.842285,584.135986 
	C2356.698486,600.692505 2328.677979,617.460815 2300.431885,633.840393 
	C2284.364502,643.157471 2268.243408,652.375977 2252.281982,661.877991 
	C2248.403564,664.186890 2244.210205,666.443604 2239.118652,665.234253 
	C2231.091553,663.327698 2227.077148,658.829590 2227.040527,650.525269 
	C2226.949951,630.026794 2226.819092,609.525269 2227.089844,589.030090 
	C2227.188965,581.549255 2223.795410,576.821411 2217.707520,573.333374 
	C2198.128418,562.115845 2178.568359,550.865662 2158.998291,539.632690 
	C2155.969482,537.894287 2152.926514,536.180847 2149.547852,534.280273 
z"/>
<path fill="#41893E" opacity="1.000000" stroke="none" 
	d="
M683.942627,449.329620 
	C699.999756,439.623199 716.106812,430.274323 732.217407,420.931671 
	C750.766052,410.175232 769.305420,399.402740 787.871826,388.677002 
	C805.866699,378.281464 823.903870,367.959076 841.897034,357.560516 
	C851.750977,351.865784 861.482361,345.956116 871.396240,340.369080 
	C882.066528,334.355865 892.725647,334.593048 903.352722,340.842712 
	C919.396973,350.278198 935.530884,359.561371 951.640015,368.886292 
	C968.040466,378.379791 984.452637,387.852997 1000.867615,397.321350 
	C1018.991516,407.775482 1037.132690,418.199646 1055.250977,428.663452 
	C1071.945312,438.304810 1088.568848,448.069489 1105.322144,457.606689 
	C1114.195679,462.658051 1123.265259,467.374237 1131.683838,473.179413 
	C1139.878540,478.830109 1142.936523,487.187958 1142.948975,496.660004 
	C1143.040039,565.967590 1143.004028,635.275330 1143.002197,704.583008 
	C1143.001831,715.412109 1142.971069,726.241272 1142.893677,737.535645 
	C1141.804077,739.213257 1140.782471,740.324097 1139.173340,738.716370 
	C1129.612549,729.164429 1117.377808,723.483398 1106.260254,716.218201 
	C1067.627563,690.972107 1028.302612,666.807007 989.475952,641.859680 
	C955.835571,620.244629 921.849792,599.170532 888.187561,577.588806 
	C855.927429,556.906006 823.354858,536.715393 791.127075,515.984253 
	C760.582031,496.335541 729.751831,477.138885 699.143311,457.591888 
	C694.932922,454.903076 690.818176,452.004364 685.680176,451.281433 
	C684.775574,451.154144 684.193420,450.604797 683.942627,449.329620 
z"/>
<path fill="#539E43" opacity="1.000000" stroke="none" 
	d="
M924.998535,1086.000000 
	C924.998535,1074.834473 925.089905,1064.167969 924.979370,1053.503662 
	C924.753845,1031.747681 934.466431,1016.422913 953.587036,1005.954468 
	C976.068909,993.645691 997.948853,980.240540 1020.148315,967.412048 
	C1036.231445,958.117920 1052.451660,949.060547 1068.533691,939.764526 
	C1084.037598,930.802734 1099.399780,921.596130 1114.902710,912.632812 
	C1131.551636,903.006958 1148.072754,893.125671 1165.054321,884.118958 
	C1181.908936,875.179565 1198.789185,877.126892 1215.004395,886.528015 
	C1228.796387,894.524231 1242.505981,902.662781 1256.290894,910.671448 
	C1271.923340,919.753418 1287.602783,928.754761 1303.255005,937.802551 
	C1321.315186,948.242188 1339.378662,958.675659 1357.420776,969.146301 
	C1373.618042,978.546265 1389.773438,988.018311 1405.975952,997.408997 
	C1414.631958,1002.425781 1423.624390,1006.878113 1431.676025,1012.897888 
	C1442.181274,1020.752258 1447.391602,1031.359619 1449.134888,1044.267456 
	C1450.482178,1054.243164 1449.929321,1064.176270 1449.943359,1074.118164 
	C1450.047852,1148.110107 1450.033081,1222.102295 1449.969849,1296.094482 
	C1449.958496,1309.376343 1446.052368,1321.532227 1436.967529,1331.363770 
	C1431.359131,1337.432983 1423.699341,1340.979370 1416.581665,1345.112793 
	C1393.821045,1358.330200 1371.142090,1371.688232 1348.371094,1384.887939 
	C1330.612671,1395.182129 1312.722656,1405.249390 1294.966187,1415.546753 
	C1270.808350,1429.556641 1246.748047,1443.734619 1222.593750,1457.750488 
	C1211.577759,1464.142578 1200.432495,1469.574219 1186.954834,1469.203857 
	C1175.296509,1468.883423 1165.645142,1464.174194 1156.124512,1458.534058 
	C1135.206909,1446.141968 1114.343018,1433.659058 1093.494995,1421.150146 
	C1090.486084,1419.344604 1086.016846,1418.111694 1086.238770,1413.930054 
	C1086.467651,1409.617188 1091.289307,1410.081909 1094.257935,1408.943115 
	C1103.016968,1405.583862 1111.805664,1402.359131 1119.702881,1397.138550 
	C1122.917480,1395.013428 1126.005005,1394.535889 1129.747437,1396.834961 
	C1144.170654,1405.695801 1158.800903,1414.219604 1173.352417,1422.871704 
	C1174.199097,1423.374878 1175.124756,1423.794434 1175.857910,1424.432007 
	C1183.771362,1431.314941 1190.901733,1429.216675 1199.236328,1424.137207 
	C1225.166870,1408.333862 1251.554443,1393.277954 1277.829468,1378.043579 
	C1306.104858,1361.649414 1334.463379,1345.398926 1362.765381,1329.050781 
	C1376.994629,1320.831543 1391.141479,1312.469116 1405.414429,1304.327271 
	C1408.345703,1302.655151 1409.009277,1300.305054 1409.005127,1297.343140 
	C1408.990234,1286.677612 1409.000732,1276.012085 1409.000732,1265.346558 
	C1409.000854,1194.187378 1408.957153,1123.028198 1409.103271,1051.869385 
	C1409.112671,1047.313965 1407.816284,1044.472412 1403.858643,1042.237183 
	C1389.702026,1034.241699 1375.664062,1026.035889 1361.596313,1017.883423 
	C1338.265991,1004.363037 1314.973389,990.777649 1291.617188,977.302368 
	C1266.572510,962.853027 1241.467285,948.508545 1216.400024,934.098267 
	C1208.417480,929.509399 1200.431885,924.923279 1192.527588,920.201965 
	C1188.983032,918.084778 1185.858643,917.660645 1182.007202,919.926514 
	C1166.138550,929.262207 1150.081543,938.277283 1134.128662,947.470825 
	C1119.464722,955.921448 1104.847778,964.453613 1090.205933,972.942444 
	C1071.440186,983.822205 1052.697266,994.741760 1033.894165,1005.556580 
	C1015.520264,1016.124451 997.085266,1026.586060 978.671326,1037.084106 
	C975.667236,1038.796875 972.527283,1040.295410 969.642700,1042.186768 
	C966.649536,1044.149536 964.888794,1046.624390 964.895874,1050.758911 
	C965.035828,1132.583374 965.023132,1214.408081 964.935669,1296.232544 
	C964.931091,1300.515137 966.299133,1303.414062 970.036621,1305.522949 
	C989.796631,1316.672974 1009.309326,1328.279175 1029.304565,1338.986572 
	C1040.041748,1344.736206 1051.771851,1347.062012 1063.374634,1340.784424 
	C1072.747925,1335.713013 1077.951172,1327.635864 1077.960815,1316.862671 
	C1078.033447,1236.037964 1078.000122,1155.213135 1078.001465,1074.388428 
	C1078.001465,1072.888672 1077.794556,1071.345825 1078.073120,1069.897827 
	C1078.749268,1066.381226 1080.254883,1063.859253 1084.585693,1063.945312 
	C1093.914429,1064.130737 1103.251221,1064.115479 1112.580811,1063.954102 
	C1117.115723,1063.875854 1119.200806,1066.219727 1119.891968,1070.264038 
	C1120.141602,1071.724609 1119.996826,1073.256226 1119.996948,1074.755371 
	C1120.000610,1155.746826 1120.172729,1236.738770 1119.861206,1317.729126 
	C1119.796021,1334.666870 1116.489746,1351.030396 1105.126099,1364.820557 
	C1097.219482,1374.415283 1087.246826,1380.287231 1075.376953,1382.914185 
	C1053.911011,1387.665161 1033.116211,1385.471436 1013.313721,1375.666504 
	C993.566650,1365.888916 974.789612,1354.369751 955.707825,1343.396851 
	C951.440674,1340.942871 947.079102,1338.723755 943.109070,1335.730225 
	C932.921448,1328.048340 927.774658,1317.786011 925.847412,1305.325562 
	C924.869568,1299.003174 925.041870,1292.755127 925.036133,1286.477051 
	C924.975342,1219.817993 924.998535,1153.159058 924.998535,1086.000000 
z"/>
<path fill="#418F3B" opacity="1.000000" stroke="none" 
	d="
M683.580994,449.121155 
	C689.224304,448.411560 693.538757,450.847534 697.814331,453.569855 
	C730.547241,474.411377 763.285706,495.244415 796.055481,516.027893 
	C856.253723,554.207336 916.497742,592.314636 976.678772,630.521179 
	C1025.188599,661.318115 1073.630005,692.222717 1122.111450,723.064209 
	C1129.129272,727.528564 1136.441650,731.574768 1142.562988,737.824829 
	C1142.730957,747.436768 1143.701416,756.867859 1142.095093,766.308289 
	C1140.992676,772.786804 1137.699707,778.039551 1132.691772,781.417175 
	C1123.577393,787.564453 1113.786377,792.708374 1103.988281,798.459717 
	C1099.928345,799.071716 1096.941772,797.437988 1093.837036,795.465576 
	C1035.228149,758.233582 976.683655,720.900146 918.006104,683.776001 
	C874.103149,655.999268 830.357605,627.974182 786.473450,600.167358 
	C743.715271,573.073914 701.087952,545.774170 658.208435,518.871704 
	C650.594360,514.094666 643.141541,509.053375 635.538086,504.253510 
	C633.955505,503.254486 632.678223,502.038116 631.398560,500.266846 
	C630.341003,487.293945 634.444031,477.107635 645.984924,470.584167 
	C658.447205,463.539948 670.844971,456.381592 683.580994,449.121155 
z"/>
<path fill="#419538" opacity="1.000000" stroke="none" 
	d="
M631.109497,500.469299 
	C637.333618,501.077179 641.926880,505.212341 646.940796,508.387115 
	C713.386475,550.460022 779.773315,592.625977 846.149719,634.808105 
	C908.448120,674.398621 970.716431,714.036255 1032.998413,753.652649 
	C1056.336670,768.497742 1079.675659,783.341492 1103.356567,798.417114 
	C1081.678101,811.345703 1059.655640,824.039734 1037.638916,836.743958 
	C1034.662231,838.461548 1031.714600,840.229492 1028.403076,842.040161 
	C1024.469849,841.634216 1021.527405,839.732605 1018.580261,837.849426 
	C952.363647,795.537781 885.922241,753.579773 819.600769,711.433472 
	C763.537354,675.806030 707.440979,640.229309 651.436096,604.509277 
	C646.523682,601.376221 641.535461,598.362549 636.630920,595.215820 
	C634.671570,593.958740 632.946838,592.465088 631.396606,590.268433 
	C631.127075,560.315918 631.089478,530.625244 631.109497,500.469299 
z"/>
<path fill="#539E43" opacity="1.000000" stroke="none" 
	d="
M1316.030029,1163.923462 
	C1328.248779,1167.792236 1339.799072,1172.241211 1348.702637,1181.302490 
	C1356.547363,1189.286133 1360.484131,1199.139038 1362.142944,1210.258301 
	C1363.660278,1220.429077 1363.210938,1230.393921 1360.777588,1240.191284 
	C1356.572754,1257.121216 1346.485840,1270.001343 1331.960327,1279.477173 
	C1318.615356,1288.182739 1303.624023,1292.252075 1288.152832,1295.015869 
	C1270.525757,1298.164917 1252.687500,1297.653076 1235.031128,1296.746582 
	C1211.734497,1295.550415 1189.016602,1291.001953 1169.022583,1277.604858 
	C1153.537720,1267.229004 1144.597412,1252.686279 1141.040039,1234.633057 
	C1140.151733,1230.125977 1139.685791,1225.535278 1139.041016,1220.980835 
	C1138.242188,1215.337036 1140.842896,1209.247559 1148.571289,1209.847046 
	C1157.184326,1210.515259 1165.889526,1210.047241 1174.553833,1209.981323 
	C1178.347412,1209.952515 1180.442993,1211.764648 1180.974976,1215.417725 
	C1184.413208,1239.034668 1193.536133,1249.573730 1217.207153,1254.773438 
	C1235.374512,1258.764160 1253.898682,1258.916016 1272.472656,1257.163452 
	C1283.858276,1256.089111 1294.901367,1254.441284 1305.188232,1249.005371 
	C1316.201172,1243.185425 1322.652832,1226.463135 1317.558716,1215.198730 
	C1314.447998,1208.319946 1307.714966,1205.535156 1301.255859,1203.269043 
	C1288.197266,1198.687500 1274.521851,1196.704956 1260.819946,1194.977417 
	C1235.281494,1191.757568 1209.418457,1190.453003 1184.955078,1181.115234 
	C1160.696655,1171.855835 1147.378418,1155.481445 1146.935669,1127.676758 
	C1146.573608,1104.937378 1155.449463,1086.912720 1173.816040,1073.844360 
	C1184.931030,1065.935669 1197.828369,1061.769409 1211.119629,1059.040161 
	C1227.114258,1055.755859 1243.367188,1055.292847 1259.565063,1056.130249 
	C1277.832642,1057.074585 1295.986084,1059.687866 1312.783447,1067.445923 
	C1332.409790,1076.510498 1345.213867,1091.766968 1350.947632,1112.697144 
	C1352.681396,1119.026001 1354.214966,1125.436035 1354.014160,1132.108887 
	C1353.840820,1137.870483 1351.930176,1139.948975 1346.291382,1139.985107 
	C1337.793457,1140.039795 1329.294922,1139.978516 1320.796753,1140.007812 
	C1316.411865,1140.022949 1314.002197,1138.097900 1312.902954,1133.654541 
	C1309.914062,1121.572876 1305.180298,1110.608887 1293.571777,1103.917725 
	C1287.297119,1100.300903 1280.479492,1098.350220 1273.614380,1097.260864 
	C1264.352417,1095.791016 1254.836792,1094.819458 1245.496704,1095.213989 
	C1232.927490,1095.744995 1220.237915,1096.253540 1208.164673,1100.978394 
	C1195.562866,1105.910034 1188.675049,1117.030029 1191.109619,1130.408447 
	C1192.220337,1136.512451 1196.778687,1139.923340 1202.288086,1141.940308 
	C1215.928223,1146.934448 1230.216797,1148.897217 1244.494995,1151.112915 
	C1260.873291,1153.654297 1277.373657,1155.355103 1293.653931,1158.650269 
	C1301.055054,1160.148193 1308.357300,1161.891968 1316.030029,1163.923462 
z"/>
<path fill="#409C34" opacity="1.000000" stroke="none" 
	d="
M631.106934,590.471741 
	C639.456482,592.519653 646.063110,598.062927 653.191101,602.570801 
	C719.511536,644.513916 785.738831,686.604248 851.966797,728.693420 
	C909.055176,764.974243 966.108032,801.310974 1023.184204,837.611023 
	C1024.890625,838.696228 1026.452881,839.907532 1027.848755,841.831543 
	C1009.783813,852.684998 991.514709,863.263672 972.868408,873.839600 
	C969.811829,874.206238 967.710205,872.898560 965.582581,871.546570 
	C923.014954,844.495239 880.495667,817.367981 837.888489,790.378540 
	C775.455750,750.830627 713.195190,711.011169 650.694580,671.569824 
	C646.331909,668.816711 641.998596,666.012756 637.646973,663.239807 
	C635.011169,661.560120 632.522339,659.761719 631.383667,656.273438 
	C631.127014,634.316345 631.088135,612.626587 631.106934,590.471741 
z"/>
<path fill="#40A430" opacity="1.000000" stroke="none" 
	d="
M631.107544,656.471191 
	C649.323608,667.479675 667.506104,678.914246 685.634277,690.434448 
	C732.161438,720.001831 778.655884,749.620789 825.179688,779.193481 
	C868.190002,806.532837 911.226440,833.830750 954.237427,861.168945 
	C960.272156,865.004578 966.618652,868.393005 972.220337,873.549988 
	C968.769714,877.366150 963.998047,879.232727 959.674866,881.780823 
	C947.447754,888.987671 935.072449,895.943176 922.397827,903.057739 
	C909.222412,893.991272 895.708374,885.938782 882.445374,877.501648 
	C861.527100,864.194580 840.449524,851.134888 819.622803,837.687195 
	C784.817444,815.213623 749.550842,793.468628 714.746948,770.994385 
	C690.005798,755.018066 664.956665,739.525940 640.158020,723.639832 
	C637.368591,721.852966 633.974976,721.089172 631.406128,718.276245 
	C631.127441,697.648743 631.088318,677.292480 631.107544,656.471191 
z"/>
<path fill="#3FAA2C" opacity="1.000000" stroke="none" 
	d="
M631.107178,718.469971 
	C635.039978,717.715881 638.279480,719.346863 641.418396,721.340881 
	C677.244995,744.100952 713.070312,766.862976 748.909668,789.602966 
	C792.195984,817.068054 835.500305,844.504700 878.786133,871.970581 
	C891.575745,880.085754 904.332397,888.252869 917.096375,896.408325 
	C919.364258,897.857300 921.585938,899.372498 921.983398,902.754333 
	C912.803711,909.056702 903.764648,915.476196 893.009521,918.398071 
	C886.995667,920.031799 880.712524,919.619507 875.191223,916.548767 
	C860.235168,908.230408 845.449341,899.605713 830.604553,891.087585 
	C809.485779,878.969238 788.350403,866.879517 767.267761,854.698669 
	C749.606873,844.494934 732.039124,834.129883 714.378479,823.925720 
	C699.851379,815.532227 685.199463,807.354065 670.695740,798.920715 
	C660.600769,793.050842 650.279053,787.451050 640.785583,780.707092 
	C634.098083,775.956421 631.200562,768.172241 631.062927,759.924866 
	C630.835022,746.265320 631.030579,732.598694 631.107178,718.469971 
z"/>
<path fill="#539E43" opacity="1.000000" stroke="none" 
	d="
M2095.139160,596.371826 
	C2109.878906,587.639282 2124.341309,579.174805 2138.835205,570.764832 
	C2141.113037,569.443115 2143.796875,569.377258 2145.949219,570.603760 
	C2160.212646,578.731201 2174.390869,587.008972 2188.548828,595.319580 
	C2190.947754,596.727722 2192.110107,598.802917 2192.078125,601.909912 
	C2191.909912,618.232422 2191.934814,634.557922 2192.048584,650.881348 
	C2192.074219,654.591187 2190.837646,657.002563 2187.522949,658.895691 
	C2173.842285,666.708740 2160.291260,674.748657 2146.687012,682.695312 
	C2143.887939,684.330261 2141.163330,684.385376 2138.266113,682.673950 
	C2124.554688,674.574463 2110.833496,666.488647 2097.005859,658.590576 
	C2094.218262,656.998535 2092.921387,655.235413 2092.945068,651.962891 
	C2093.065674,635.306458 2093.013184,618.648682 2092.985596,601.991333 
	C2092.982178,599.953308 2092.917480,597.968811 2095.139160,596.371826 
z"/>
<path fill="#000000" opacity="1.000000" stroke="none" 
	d="
M1593.609863,683.618103 
	C1569.554688,697.546753 1545.734863,711.143372 1522.132446,725.107544 
	C1516.729858,728.303894 1512.477905,728.395569 1506.999390,725.137634 
	C1485.588745,712.405518 1464.153076,699.668274 1442.197021,687.923035 
	C1432.754272,682.871704 1429.393799,676.936523 1429.767456,666.148499 
	C1430.672607,640.014404 1430.126953,613.827454 1429.992065,587.662720 
	C1429.970825,583.542603 1431.190063,581.146301 1434.976807,578.980591 
	C1459.617676,564.888367 1484.109619,550.533508 1508.542480,536.082153 
	C1512.477417,533.754761 1515.892944,533.635132 1519.720459,535.872009 
	C1532.207153,543.169312 1544.732910,550.399475 1557.247070,557.649536 
	C1569.604126,564.808472 1581.920654,572.039246 1594.354614,579.062073 
	C1597.685547,580.943420 1599.010986,583.472534 1599.005981,587.149414 
	C1598.965942,616.647949 1598.913696,646.146912 1599.063843,675.644653 
	C1599.084717,679.730225 1596.833252,681.623779 1593.609863,683.618103 
z"/>
</svg>