<svg version="1.1" id="Layer_1" xmlns="http://www.w3.org/2000/svg" xmlns:xlink="http://www.w3.org/1999/xlink" x="0px" y="0px"
	 width="100%" viewBox="0 0 1024 1024" enable-background="new 0 0 1024 1024" xml:space="preserve">
<path fill="#FFFFFF" opacity="1.000000" stroke="none" 
	d="
M1025.000000,172.999969 
	C1025.000000,399.360199 1025.000000,625.720398 1024.635986,852.238770 
	C1023.853577,853.066956 1023.215027,853.687012 1023.050415,854.414307 
	C1020.706299,864.770325 1018.876526,875.266418 1016.026123,885.478577 
	C1011.648315,901.163147 1004.499634,915.662720 996.108643,929.643250 
	C984.074280,949.694214 968.677856,966.825989 950.727722,981.485535 
	C937.012207,992.686829 921.833130,1001.976379 905.400635,1008.875793 
	C889.193420,1015.680603 872.562500,1021.098450 854.969238,1023.077637 
	C854.249878,1023.158569 853.653687,1024.334351 853.000000,1025.000000 
	C626.639771,1025.000000 400.279602,1025.000000 173.761169,1024.635742 
	C172.932983,1023.853516 172.312897,1023.215027 171.585571,1023.050415 
	C161.229614,1020.706299 150.733444,1018.876648 140.521408,1016.026123 
	C124.836937,1011.648193 110.337311,1004.499573 96.356850,996.108582 
	C76.305893,984.074158 59.173985,968.677795 44.514427,950.727600 
	C33.313183,937.012085 24.023735,921.833069 17.124264,905.400574 
	C10.319385,889.193481 4.901341,872.562561 2.922359,854.969177 
	C2.841448,854.249817 1.665658,853.653625 0.999986,853.000000 
	C1.000000,626.639771 1.000000,400.279602 1.364157,173.761185 
	C2.146479,172.933014 2.785002,172.312943 2.949640,171.585602 
	C5.293768,161.229660 7.123420,150.733490 9.973836,140.521423 
	C14.351747,124.836899 21.500412,110.337280 29.891403,96.356796 
	C41.925838,76.305847 57.322189,59.173965 75.272324,44.514423 
	C88.987846,33.313213 104.166885,24.023718 120.599396,17.124247 
	C136.806519,10.319407 153.437454,4.901361 171.030838,2.922388 
	C171.750183,2.841472 172.346405,1.665682 173.000000,0.999998 
	C399.360199,1.000000 625.720398,1.000000 852.238770,1.364133 
	C853.067017,2.146441 853.687134,2.784988 854.414490,2.949640 
	C864.770508,5.293858 875.258362,7.148619 885.480835,9.968279 
	C901.187988,14.300779 915.640869,21.569122 929.631775,29.907049 
	C949.721069,41.879360 966.825684,57.320782 981.485046,75.271469 
	C992.686035,88.987312 1001.976196,104.166039 1008.875610,120.598885 
	C1015.680237,136.806290 1021.098450,153.437271 1023.077637,171.030746 
	C1023.158569,171.750137 1024.334351,172.346359 1025.000000,172.999969 
M730.162720,774.501099 
	C730.162720,768.744873 730.162720,762.988647 730.162720,756.755249 
	C657.994080,756.755249 586.601624,756.755249 515.160522,756.755249 
	C515.160522,746.476624 515.160522,736.705322 515.160522,726.392151 
	C517.360352,726.392151 519.320007,726.392151 521.279663,726.392151 
	C617.595703,726.392151 713.911804,726.392029 810.227844,726.393311 
	C811.727478,726.393372 813.229187,726.362244 814.726379,726.427673 
	C853.325867,728.116150 885.717407,714.356018 911.087769,685.616028 
	C941.474182,651.193848 953.827271,609.181702 956.661072,564.480957 
	C958.470825,535.934204 956.510681,507.168365 957.155579,478.521362 
	C957.666992,455.802887 954.429993,433.714539 948.896667,411.865967 
	C941.287476,381.821045 929.739624,353.604858 908.334412,330.472412 
	C886.949158,307.361481 860.919312,294.470795 828.791687,295.023407 
	C807.468506,295.390228 786.133911,295.092926 764.804382,295.092926 
	C763.015625,295.092926 761.226868,295.092957 758.910156,295.092957 
	C758.910156,297.369934 758.910095,299.152924 758.910095,300.935944 
	C758.910278,333.763397 758.878357,366.590912 758.925476,399.418274 
	C758.946472,414.008331 756.970581,428.320404 752.938049,442.311340 
	C742.949402,476.966675 723.211426,503.449493 688.991394,517.478333 
	C670.984375,524.860474 652.059387,527.078918 632.736267,527.062195 
	C563.415405,527.002136 494.092560,526.777588 424.775146,527.269958 
	C411.594177,527.363525 398.132629,529.218323 385.325043,532.383057 
	C354.870575,539.908447 329.980469,555.882019 314.598541,584.276062 
	C304.498993,602.919006 301.260803,623.196716 301.238922,644.098145 
	C301.173065,707.086792 301.214294,770.075562 301.208344,833.064270 
	C301.208130,835.229736 301.221558,837.398926 301.108063,839.560059 
	C300.279968,855.331787 304.198456,869.957153 312.038452,883.528748 
	C324.624756,905.316528 343.859497,919.541992 366.160767,929.970825 
	C401.437897,946.467529 439.183197,952.369080 477.582886,954.976562 
	C510.547028,957.214844 543.524658,956.864441 576.438904,953.909851 
	C604.705322,951.372559 632.587036,946.730957 659.380432,936.968079 
	C678.491821,930.004456 696.307312,920.774048 710.658081,905.941528 
	C722.519958,893.681335 730.431458,879.336853 730.567993,861.966675 
	C730.794556,833.147461 730.335022,804.322876 730.162720,774.501099 
M491.499756,500.464996 
	C529.493042,500.464966 567.486877,500.344849 605.479370,500.523407 
	C620.935059,500.596039 635.994812,498.466095 650.692078,493.865540 
	C683.191650,483.692505 707.835510,464.555969 720.601440,432.026184 
	C726.634949,416.651672 728.806030,400.485199 728.879761,384.206879 
	C729.177368,318.552673 728.886353,252.895996 729.072815,187.240997 
	C729.141846,162.943100 720.211853,142.526520 703.635193,125.308769 
	C685.119080,106.076569 661.739441,95.066971 636.715271,87.175644 
	C597.459412,74.796371 556.849304,72.098137 516.090637,71.166046 
	C501.322083,70.828308 486.511627,71.987129 471.729309,72.661674 
	C446.434082,73.815926 421.391144,77.007660 396.804626,83.140968 
	C370.757233,89.638695 345.821747,98.759201 325.365082,116.997955 
	C309.370819,131.258118 300.018097,148.503204 300.490265,170.789749 
	C301.164215,202.600952 300.871155,234.432587 301.007202,266.255402 
	C301.013336,267.690857 301.178986,269.125671 301.294342,270.938232 
	C372.879913,270.938232 444.125427,270.938232 515.493225,270.938232 
	C515.493225,281.227112 515.493225,291.107300 515.493225,301.255463 
	C513.666870,301.255463 512.177002,301.255432 510.687134,301.255432 
	C412.703735,301.254822 314.720337,301.241058 216.736954,301.282379 
	C209.924973,301.285248 203.050415,301.185150 196.312119,302.009216 
	C167.292236,305.558258 142.742081,318.138519 122.676201,339.419037 
	C101.533409,361.841736 89.519028,389.035065 82.016640,418.417999 
	C73.193115,452.975159 70.750244,488.204315 71.547928,523.778137 
	C72.194756,552.624207 74.593895,581.237793 80.998222,609.416016 
	C87.170151,636.571716 96.495934,662.488525 113.098396,685.170837 
	C136.089539,716.581299 166.411850,733.929993 206.214203,733.076050 
	C226.368179,732.643677 246.539078,733.000549 266.702332,733.000549 
	C268.319427,733.000549 269.936493,733.000549 271.968323,733.000549 
	C271.968323,730.722412 271.968323,728.931458 271.968323,727.140564 
	C271.968292,694.646057 272.049072,662.151245 271.932953,629.657166 
	C271.877838,614.233459 273.849304,599.114624 278.230225,584.361938 
	C288.888580,548.470032 309.997192,521.820740 346.025330,508.592987 
	C362.971039,502.371368 380.635986,500.564575 398.515442,500.497284 
	C429.176483,500.381866 459.838257,500.465210 491.499756,500.464996 
z"/>
<path fill="#000000" opacity="1.000000" stroke="none" 
	d="
M1025.000000,172.531311 
	C1024.334351,172.346359 1023.158569,171.750137 1023.077637,171.030746 
	C1021.098450,153.437271 1015.680237,136.806290 1008.875610,120.598885 
	C1001.976196,104.166039 992.686035,88.987312 981.485046,75.271469 
	C966.825684,57.320782 949.721069,41.879360 929.631775,29.907049 
	C915.640869,21.569122 901.187988,14.300779 885.480835,9.968279 
	C875.258362,7.148619 864.770508,5.293858 854.414490,2.949640 
	C853.687134,2.784988 853.067017,2.146441 852.698486,1.364133 
	C910.260315,1.000000 967.520691,1.000000 1025.000000,1.000000 
	C1025.000000,58.020706 1025.000000,115.041695 1025.000000,172.531311 
z"/>
<path fill="#000000" opacity="1.000000" stroke="none" 
	d="
M172.531342,0.999998 
	C172.346405,1.665682 171.750183,2.841472 171.030838,2.922388 
	C153.437454,4.901361 136.806519,10.319407 120.599396,17.124247 
	C104.166885,24.023718 88.987846,33.313213 75.272324,44.514423 
	C57.322189,59.173965 41.925838,76.305847 29.891403,96.356796 
	C21.500412,110.337280 14.351747,124.836899 9.973836,140.521423 
	C7.123420,150.733490 5.293768,161.229660 2.949640,171.585602 
	C2.785002,172.312943 2.146479,172.933014 1.364157,173.301483 
	C1.000000,115.739647 1.000000,58.479294 1.000000,1.000000 
	C58.020706,1.000000 115.041695,1.000000 172.531342,0.999998 
z"/>
<path fill="#000000" opacity="1.000000" stroke="none" 
	d="
M0.999986,853.468628 
	C1.665658,853.653625 2.841448,854.249817 2.922359,854.969177 
	C4.901341,872.562561 10.319385,889.193481 17.124264,905.400574 
	C24.023735,921.833069 33.313183,937.012085 44.514427,950.727600 
	C59.173985,968.677795 76.305893,984.074158 96.356850,996.108582 
	C110.337311,1004.499573 124.836937,1011.648193 140.521408,1016.026123 
	C150.733444,1018.876648 161.229614,1020.706299 171.585571,1023.050415 
	C172.312897,1023.215027 172.932983,1023.853516 173.301468,1024.635742 
	C115.739655,1025.000000 58.479317,1025.000000 1.000000,1025.000000 
	C1.000000,967.979309 1.000000,910.958313 0.999986,853.468628 
z"/>
<path fill="#000000" opacity="1.000000" stroke="none" 
	d="
M853.468689,1025.000000 
	C853.653687,1024.334351 854.249878,1023.158569 854.969238,1023.077637 
	C872.562500,1021.098450 889.193420,1015.680603 905.400635,1008.875793 
	C921.833130,1001.976379 937.012207,992.686829 950.727722,981.485535 
	C968.677856,966.825989 984.074280,949.694214 996.108643,929.643250 
	C1004.499634,915.662720 1011.648315,901.163147 1016.026123,885.478577 
	C1018.876526,875.266418 1020.706299,864.770325 1023.050415,854.414307 
	C1023.215027,853.687012 1023.853577,853.066956 1024.635986,852.698486 
	C1025.000000,910.260315 1025.000000,967.520691 1025.000000,1025.000000 
	C967.979309,1025.000000 910.958313,1025.000000 853.468689,1025.000000 
z"/>
<path fill="#FFCA00" opacity="1.000000" stroke="none" 
	d="
M730.163635,775.000854 
	C730.335022,804.322876 730.794556,833.147461 730.567993,861.966675 
	C730.431458,879.336853 722.519958,893.681335 710.658081,905.941528 
	C696.307312,920.774048 678.491821,930.004456 659.380432,936.968079 
	C632.587036,946.730957 604.705322,951.372559 576.438904,953.909851 
	C543.524658,956.864441 510.547028,957.214844 477.582886,954.976562 
	C439.183197,952.369080 401.437897,946.467529 366.160767,929.970825 
	C343.859497,919.541992 324.624756,905.316528 312.038452,883.528748 
	C304.198456,869.957153 300.279968,855.331787 301.108063,839.560059 
	C301.221558,837.398926 301.208130,835.229736 301.208344,833.064270 
	C301.214294,770.075562 301.173065,707.086792 301.238922,644.098145 
	C301.260803,623.196716 304.498993,602.919006 314.598541,584.276062 
	C329.980469,555.882019 354.870575,539.908447 385.325043,532.383057 
	C398.132629,529.218323 411.594177,527.363525 424.775146,527.269958 
	C494.092560,526.777588 563.415405,527.002136 632.736267,527.062195 
	C652.059387,527.078918 670.984375,524.860474 688.991394,517.478333 
	C723.211426,503.449493 742.949402,476.966675 752.938049,442.311340 
	C756.970581,428.320404 758.946472,414.008331 758.925476,399.418274 
	C758.878357,366.590912 758.910278,333.763397 758.910095,300.935944 
	C758.910095,299.152924 758.910156,297.369934 758.910156,295.092957 
	C761.226868,295.092957 763.015625,295.092926 764.804382,295.092926 
	C786.133911,295.092926 807.468506,295.390228 828.791687,295.023407 
	C860.919312,294.470795 886.949158,307.361481 908.334412,330.472412 
	C929.739624,353.604858 941.287476,381.821045 948.896667,411.865967 
	C954.429993,433.714539 957.666992,455.802887 957.155579,478.521362 
	C956.510681,507.168365 958.470825,535.934204 956.661072,564.480957 
	C953.827271,609.181702 941.474182,651.193848 911.087769,685.616028 
	C885.717407,714.356018 853.325867,728.116150 814.726379,726.427673 
	C813.229187,726.362244 811.727478,726.393372 810.227844,726.393311 
	C713.911804,726.392029 617.595703,726.392151 521.279663,726.392151 
	C519.320007,726.392151 517.360352,726.392151 515.160522,726.392151 
	C515.160522,736.705322 515.160522,746.476624 515.160522,756.755249 
	C586.601624,756.755249 657.994080,756.755249 730.162720,756.755249 
	C730.162720,762.988647 730.162720,768.744873 730.163635,775.000854 
M669.827209,827.747925 
	C668.812317,826.427368 667.860291,825.052490 666.772888,823.794556 
	C655.496033,810.748901 636.333374,806.872620 620.739990,814.456909 
	C605.032715,822.096558 595.983887,839.646423 599.551575,856.359131 
	C603.088379,872.927612 613.171204,883.713928 629.829834,887.185364 
	C645.836609,890.520996 659.396484,885.274353 668.888855,872.009705 
	C678.872742,858.058228 678.915344,843.193604 669.827209,827.747925 
z"/>
<path fill="#00274F" opacity="1.000000" stroke="none" 
	d="
M490.999756,500.465027 
	C459.838257,500.465210 429.176483,500.381866 398.515442,500.497284 
	C380.635986,500.564575 362.971039,502.371368 346.025330,508.592987 
	C309.997192,521.820740 288.888580,548.470032 278.230225,584.361938 
	C273.849304,599.114624 271.877838,614.233459 271.932953,629.657166 
	C272.049072,662.151245 271.968292,694.646057 271.968323,727.140564 
	C271.968323,728.931458 271.968323,730.722412 271.968323,733.000549 
	C269.936493,733.000549 268.319427,733.000549 266.702332,733.000549 
	C246.539078,733.000549 226.368179,732.643677 206.214203,733.076050 
	C166.411850,733.929993 136.089539,716.581299 113.098396,685.170837 
	C96.495934,662.488525 87.170151,636.571716 80.998222,609.416016 
	C74.593895,581.237793 72.194756,552.624207 71.547928,523.778137 
	C70.750244,488.204315 73.193115,452.975159 82.016640,418.417999 
	C89.519028,389.035065 101.533409,361.841736 122.676201,339.419037 
	C142.742081,318.138519 167.292236,305.558258 196.312119,302.009216 
	C203.050415,301.185150 209.924973,301.285248 216.736954,301.282379 
	C314.720337,301.241058 412.703735,301.254822 510.687134,301.255432 
	C512.177002,301.255432 513.666870,301.255463 515.493225,301.255463 
	C515.493225,291.107300 515.493225,281.227112 515.493225,270.938232 
	C444.125427,270.938232 372.879913,270.938232 301.294342,270.938232 
	C301.178986,269.125671 301.013336,267.690857 301.007202,266.255402 
	C300.871155,234.432587 301.164215,202.600952 300.490265,170.789749 
	C300.018097,148.503204 309.370819,131.258118 325.365082,116.997955 
	C345.821747,98.759201 370.757233,89.638695 396.804626,83.140968 
	C421.391144,77.007660 446.434082,73.815926 471.729309,72.661674 
	C486.511627,71.987129 501.322083,70.828308 516.090637,71.166046 
	C556.849304,72.098137 597.459412,74.796371 636.715271,87.175644 
	C661.739441,95.066971 685.119080,106.076569 703.635193,125.308769 
	C720.211853,142.526520 729.141846,162.943100 729.072815,187.240997 
	C728.886353,252.895996 729.177368,318.552673 728.879761,384.206879 
	C728.806030,400.485199 726.634949,416.651672 720.601440,432.026184 
	C707.835510,464.555969 683.191650,483.692505 650.692078,493.865540 
	C635.994812,498.466095 620.935059,500.596039 605.479370,500.523407 
	C567.486877,500.344849 529.493042,500.464966 490.999756,500.465027 
M404.910339,141.379730 
	C374.535919,132.318787 348.462585,159.381287 355.689270,187.767838 
	C360.327179,205.985596 376.532532,217.898071 395.249146,217.028809 
	C413.203888,216.194901 428.356781,202.522385 431.184998,184.603699 
	C434.179260,165.632736 424.053772,148.622314 404.910339,141.379730 
z"/>
<path fill="#FFFFFD" opacity="1.000000" stroke="none" 
	d="
M670.010376,828.060059 
	C678.915344,843.193604 678.872742,858.058228 668.888855,872.009705 
	C659.396484,885.274353 645.836609,890.520996 629.829834,887.185364 
	C613.171204,883.713928 603.088379,872.927612 599.551575,856.359131 
	C595.983887,839.646423 605.032715,822.096558 620.739990,814.456909 
	C636.333374,806.872620 655.496033,810.748901 666.772888,823.794556 
	C667.860291,825.052490 668.812317,826.427368 670.010376,828.060059 
z"/>
<path fill="#FDFDFD" opacity="1.000000" stroke="none" 
	d="
M405.276031,141.535843 
	C424.053772,148.622314 434.179260,165.632736 431.184998,184.603699 
	C428.356781,202.522385 413.203888,216.194901 395.249146,217.028809 
	C376.532532,217.898071 360.327179,205.985596 355.689270,187.767838 
	C348.462585,159.381287 374.535919,132.318787 405.276031,141.535843 
z"/>
</svg>