<svg version="1.1" id="Layer_1" xmlns="http://www.w3.org/2000/svg" xmlns:xlink="http://www.w3.org/1999/xlink" x="0px" y="0px"
	 width="100%" viewBox="0 0 1280 1280" enable-background="new 0 0 1280 1280" xml:space="preserve">
<path fill="#222222" opacity="1.000000" stroke="none" 
	d="
M719.000000,1281.000000 
	C480.833344,1281.000000 243.166672,1280.989746 5.500041,1281.093384 
	C1.750811,1281.095093 0.906191,1280.249023 0.907064,1276.500000 
	C1.005783,852.833313 1.005783,429.166656 0.907064,5.500021 
	C0.906191,1.750944 1.750944,0.906189 5.500021,0.907062 
	C429.166656,1.005797 852.833313,1.005797 1276.500000,0.907062 
	C1280.249023,0.906189 1281.093872,1.750943 1281.093018,5.500021 
	C1280.994263,429.166656 1280.994263,852.833313 1281.093018,1276.500000 
	C1281.093872,1280.249023 1280.249268,1281.095947 1276.500000,1281.093872 
	C1090.833374,1280.986938 905.166687,1281.000000 719.000000,1281.000000 
z"/>
<path fill="#00D7FE" opacity="1.000000" stroke="none" 
	d="
M1236.485474,617.548340 
	C1243.607422,648.277161 1236.065063,675.729553 1219.772827,701.296509 
	C1203.385986,727.012024 1181.187866,747.061340 1156.587158,764.588257 
	C1114.693237,794.435913 1068.328247,815.301697 1019.931274,831.993347 
	C1011.590210,834.870117 1003.213074,837.692383 994.714417,840.039734 
	C990.756897,841.132690 990.425049,842.878296 991.287109,846.399170 
	C1000.861633,885.503784 1007.032593,925.129883 1008.550049,965.391785 
	C1010.173950,1008.477356 1007.098145,1051.013916 992.073486,1091.941650 
	C984.937988,1111.379150 974.981750,1129.152588 960.335205,1144.041992 
	C941.807129,1162.877319 919.026062,1172.244385 892.947693,1173.956177 
	C863.379089,1175.897217 835.365356,1168.998291 808.155579,1158.210815 
	C761.625000,1139.763306 720.917542,1111.888550 682.621033,1080.171387 
	C669.910400,1069.644531 657.558716,1058.699951 645.799683,1047.123291 
	C642.971436,1044.338745 641.451721,1044.572632 638.716370,1047.186279 
	C603.888550,1080.465210 566.252258,1110.088745 524.255371,1133.890991 
	C493.205536,1151.489014 460.728851,1165.493408 425.262970,1171.494385 
	C402.282776,1175.382812 379.447723,1175.338745 357.102478,1167.774780 
	C332.259705,1159.365479 314.233307,1142.694946 300.987518,1120.513306 
	C287.001495,1097.092163 279.846985,1071.346069 276.020325,1044.589844 
	C268.302002,990.622803 273.344727,937.209839 283.542053,884.074768 
	C285.801270,872.302551 288.381561,860.579285 291.279572,848.949402 
	C292.256104,845.030518 291.254608,843.899475 287.653046,842.843506 
	C248.232864,831.284485 210.058105,816.554749 173.753693,797.220764 
	C138.689041,778.547058 106.042931,756.555176 79.262032,726.785339 
	C61.976830,707.571045 48.385975,686.212891 42.951015,660.503235 
	C36.396160,629.496094 44.913364,601.781311 62.154831,576.212585 
	C80.652077,548.781494 105.518608,528.022888 132.896118,510.082306 
	C176.027542,481.818176 223.186935,462.360046 272.176453,446.987640 
	C277.737518,445.242645 283.282623,443.391754 288.941803,442.035004 
	C292.385315,441.209473 292.905579,439.832550 292.083130,436.528992 
	C285.195404,408.862000 279.802856,380.900299 276.533539,352.565582 
	C271.157166,305.969482 270.117462,259.476807 280.889740,213.390015 
	C285.700409,192.808533 293.037903,173.222198 304.979675,155.598816 
	C328.688538,120.609840 362.604126,107.189720 403.647675,109.541801 
	C440.493622,111.653328 474.141998,124.594765 506.450928,141.407135 
	C554.574402,166.448807 596.946472,199.449402 636.291992,236.495819 
	C639.724731,239.727982 641.400024,239.839569 644.872437,236.526611 
	C685.067688,198.176987 728.369629,163.964569 777.955322,138.347000 
	C805.044495,124.351830 833.249451,113.406708 863.716980,109.500114 
	C897.684570,105.144737 929.295593,110.299110 955.595032,134.306564 
	C975.003601,152.023743 986.377808,174.664841 994.022156,199.368912 
	C1005.192566,235.468414 1007.746887,272.591156 1006.565735,310.095520 
	C1005.217834,352.890930 998.646790,394.977905 988.719055,436.560364 
	C987.737793,440.670349 988.634583,441.891907 992.499390,443.027435 
	C1043.026489,457.873016 1091.769165,476.980560 1136.846924,504.591217 
	C1165.301758,522.020142 1191.450928,542.226562 1212.064697,568.848145 
	C1223.296265,583.353149 1231.954102,599.191589 1236.485474,617.548340 
z"/>
<path fill="#222323" opacity="1.000000" stroke="none" 
	d="
M475.528748,742.453247 
	C456.971497,710.606445 439.767609,678.452637 423.760864,645.653870 
	C422.321045,642.703674 422.155212,640.405457 423.648315,637.338440 
	C454.176636,574.628967 488.931519,514.369690 527.906067,456.531372 
	C529.949524,453.498932 532.099365,452.106903 535.891968,451.843658 
	C594.641174,447.765564 653.417175,447.031769 712.233643,450.020782 
	C722.882080,450.561920 733.513855,451.481995 744.166382,451.863922 
	C747.915039,451.998322 750.127380,453.317322 752.207520,456.428894 
	C776.664368,493.012634 799.538879,530.556091 820.975952,568.981262 
	C833.393799,591.239746 845.268494,613.784302 856.762146,636.533875 
	C858.257874,639.494324 858.338623,641.847839 856.850647,644.870850 
	C825.910095,707.729736 790.903259,768.242310 752.382263,826.747070 
	C750.505798,829.596985 748.399048,830.673157 745.111938,830.885193 
	C675.178101,835.396912 605.246216,835.390442 535.297729,831.198059 
	C531.887756,830.993652 530.349915,829.315857 528.713745,826.898438 
	C510.125854,799.434631 492.400909,771.429260 475.528748,742.453247 
z"/>
<path fill="#222323" opacity="1.000000" stroke="none" 
	d="
M260.193542,779.846863 
	C221.348663,765.162537 184.479813,747.509460 151.240692,722.953003 
	C134.409271,710.518188 118.934990,696.632690 106.816216,679.393860 
	C86.664955,650.728943 87.035347,627.716858 108.222961,599.733459 
	C123.848389,579.096252 143.987915,563.527649 165.669037,549.869019 
	C208.466599,522.907410 255.214066,505.123505 303.503448,490.949982 
	C306.961273,489.935028 307.336304,491.773315 308.076385,494.148346 
	C320.027252,532.501526 334.102203,570.071106 349.929657,606.985718 
	C354.326294,617.239990 358.839386,627.447388 363.505829,637.581116 
	C364.722900,640.224060 364.846649,642.364380 363.610931,645.057190 
	C341.846283,692.486816 322.860382,740.999084 307.373657,790.847656 
	C306.294769,794.320374 304.976593,794.753479 301.769348,793.768738 
	C287.915192,789.515259 274.139771,785.043640 260.193542,779.846863 
z"/>
<path fill="#222223" opacity="1.000000" stroke="none" 
	d="
M505.611572,883.226501 
	C535.888733,925.591431 568.134521,965.877991 603.165527,1003.913635 
	C604.755981,1005.640625 607.099609,1006.864929 604.010071,1009.773499 
	C564.749817,1046.732666 522.518616,1079.501953 473.395111,1102.524048 
	C451.566315,1112.754272 428.941071,1120.470947 404.688019,1122.484741 
	C396.330597,1123.178589 388.057068,1122.727051 379.838196,1121.041138 
	C365.803467,1118.162354 355.431335,1110.073242 347.595703,1098.406128 
	C336.789062,1082.315063 331.377655,1064.174805 328.034058,1045.364990 
	C320.927734,1005.387695 322.980743,965.394043 328.458862,925.448303 
	C331.424561,903.822876 335.756348,882.452698 340.839783,861.225952 
	C341.583466,858.120544 342.246063,856.796631 346.004333,857.614563 
	C396.850891,868.681152 448.315613,875.565369 500.142426,879.871826 
	C502.569855,880.073547 504.266418,880.819580 505.611572,883.226501 
z"/>
<path fill="#222323" opacity="1.000000" stroke="none" 
	d="
M874.399780,1122.747314 
	C840.405640,1118.982178 810.623901,1105.123047 782.008728,1088.333984 
	C744.878967,1066.549194 711.856873,1039.407104 680.686035,1009.886536 
	C678.517273,1007.832520 678.286194,1006.632812 680.391479,1004.316711 
	C715.182190,966.043091 746.695557,925.177795 776.140503,882.693115 
	C777.696533,880.447937 779.406860,879.351746 782.193604,879.103271 
	C834.168579,874.469299 885.710754,866.965515 936.612488,855.360229 
	C939.770630,854.640137 940.967102,855.304138 941.707336,858.492737 
	C954.052429,911.666077 961.299561,965.286011 955.953613,1020.002747 
	C953.953552,1040.473511 949.901245,1060.502441 941.935425,1079.589355 
	C939.686584,1084.977783 936.988647,1090.132080 933.988464,1095.142944 
	C922.636658,1114.102661 905.969238,1123.480347 883.847778,1123.076782 
	C880.851501,1123.022217 877.856873,1122.882690 874.399780,1122.747314 
z"/>
<path fill="#222223" opacity="1.000000" stroke="none" 
	d="
M328.491028,355.445984 
	C323.915863,320.707092 322.007294,286.338379 326.022461,251.844757 
	C328.149811,233.568985 331.973297,215.694931 339.424896,198.757172 
	C341.979553,192.950424 345.107300,187.462982 348.777832,182.270584 
	C358.037872,169.171143 370.758392,162.285141 386.622864,160.911224 
	C409.295258,158.947693 430.620972,164.639832 451.444183,172.647308 
	C491.682861,188.120956 527.060791,211.759750 560.614441,238.371155 
	C574.851379,249.662506 588.457214,261.687531 601.763672,274.061676 
	C604.093140,276.227966 604.330750,277.486816 602.025757,279.973755 
	C566.976746,317.789429 534.877441,358.003845 505.006500,400.007294 
	C503.300812,402.405823 501.423889,403.524750 498.504913,403.793152 
	C447.694214,408.465332 397.324554,416.056152 347.519684,427.187592 
	C343.245209,428.142914 342.207336,426.829956 341.339264,423.101807 
	C336.161835,400.866211 331.631714,378.515625 328.491028,355.445984 
z"/>
<path fill="#222323" opacity="1.000000" stroke="none" 
	d="
M940.152283,200.888794 
	C949.516541,223.358795 953.318176,246.651321 954.809631,270.351715 
	C958.104980,322.719238 950.749573,374.032898 939.017517,424.890747 
	C938.329224,427.874329 937.157898,428.568512 934.225220,427.892853 
	C892.633423,418.310059 850.565857,411.503754 808.187195,406.563354 
	C799.420349,405.541351 790.636597,404.649323 781.847473,403.841644 
	C779.187988,403.597260 777.286804,402.763641 775.651917,400.444305 
	C745.866272,358.187256 713.958069,317.620850 678.891418,279.590790 
	C677.333801,277.901550 676.549133,276.790588 678.680786,274.782471 
	C722.201416,233.783615 768.581238,196.877792 824.218506,173.296219 
	C840.376831,166.447662 857.090515,161.363663 874.695312,159.809128 
	C906.028564,157.042343 923.955017,167.217697 937.729004,195.534607 
	C938.529907,197.181046 939.251465,198.866013 940.152283,200.888794 
z"/>
<path fill="#222323" opacity="1.000000" stroke="none" 
	d="
M930.394653,607.420837 
	C946.415405,570.352417 960.651550,533.017212 972.645081,494.843964 
	C973.407532,492.417267 973.776001,490.712799 977.244019,491.749725 
	C1029.191772,507.282288 1079.291504,526.933350 1124.466187,557.566406 
	C1141.920288,569.402100 1158.018799,582.818909 1171.093628,599.547974 
	C1193.156494,627.777161 1193.582397,651.262756 1172.250122,680.102173 
	C1156.138550,701.883850 1135.110107,718.220093 1112.491455,732.602722 
	C1071.262817,758.819031 1026.403809,776.885925 979.894592,791.216125 
	C976.849426,792.154419 975.899292,791.409912 975.001038,788.599304 
	C959.153076,739.012939 939.391052,690.983948 917.126953,643.964172 
	C915.936340,641.449768 915.976501,639.421204 917.127197,636.935242 
	C921.604553,627.261963 925.880005,617.495117 930.394653,607.420837 
z"/>
<path fill="#222424" opacity="1.000000" stroke="none" 
	d="
M872.689026,725.667175 
	C877.246887,717.166870 881.623047,708.988037 886.436523,699.991760 
	C889.037659,706.023926 891.287537,711.156494 893.470154,716.317505 
	C905.150208,743.936584 915.756470,771.956726 925.153748,800.440002 
	C926.378296,804.151550 926.014526,805.436768 921.873962,806.346069 
	C888.006714,813.784058 853.836182,819.369263 819.451904,823.722168 
	C818.350769,823.861511 817.192261,824.309021 815.585022,823.246094 
	C835.466919,791.368347 854.618164,759.043213 872.689026,725.667175 
z"/>
<path fill="#222424" opacity="1.000000" stroke="none" 
	d="
M622.998596,885.390625 
	C652.658081,885.678711 681.807739,885.248230 710.862793,883.966980 
	C711.845459,885.815002 710.371643,886.625427 709.675964,887.565552 
	C689.342651,915.043213 667.962463,941.673035 645.109741,967.107178 
	C643.427185,968.979858 642.365051,971.080200 639.464966,967.890320 
	C615.905090,941.977234 593.492249,915.119385 572.259644,887.272583 
	C571.702209,886.541504 571.327454,885.671082 571.164001,885.384888 
	C588.324280,885.384888 605.411377,885.384888 622.998596,885.390625 
z"/>
<path fill="#222424" opacity="1.000000" stroke="none" 
	d="
M403.504517,718.491577 
	C422.839325,754.781067 443.564758,789.837158 466.170319,825.180664 
	C456.398926,823.989990 447.868744,823.048706 439.367157,821.896423 
	C412.631226,818.272583 386.015411,813.938416 359.633423,808.233398 
	C357.278137,807.724060 355.655487,807.558594 356.713501,804.218750 
	C367.530487,770.072510 379.911987,736.510864 393.880096,703.531555 
	C394.005402,703.235840 394.262604,702.996033 394.846130,702.202698 
	C397.755035,707.687622 400.535614,712.930664 403.504517,718.491577 
z"/>
<path fill="#222424" opacity="1.000000" stroke="none" 
	d="
M886.907715,578.860291 
	C883.622070,581.027832 884.109802,577.673157 883.551147,576.636597 
	C871.699341,554.644897 859.674194,532.749268 846.903564,511.277466 
	C837.454834,495.390869 827.702087,479.685242 818.122925,463.875885 
	C817.293274,462.506561 815.853149,461.367371 816.157898,458.896118 
	C832.301941,461.337555 848.425537,463.616364 864.491394,466.247650 
	C882.895386,469.261810 901.174377,472.955383 919.410217,476.875031 
	C923.155457,477.680023 924.275940,478.604309 922.950623,482.660370 
	C912.342285,515.125366 900.461365,547.103821 886.907715,578.860291 
z"/>
<path fill="#222424" opacity="1.000000" stroke="none" 
	d="
M612.349121,345.342804 
	C621.080444,335.474396 629.618103,325.906769 638.049133,316.246185 
	C639.821228,314.215637 640.942871,313.787476 643.020020,316.071228 
	C666.458618,341.840942 688.559448,368.708679 709.476562,396.556396 
	C709.744507,396.913116 709.825439,397.410278 710.279236,398.574585 
	C663.540222,396.542419 617.205078,396.440002 569.689575,398.620544 
	C583.550415,379.887024 597.690247,362.636230 612.349121,345.342804 
z"/>
<path fill="#222424" opacity="1.000000" stroke="none" 
	d="
M390.535065,571.486206 
	C378.439087,542.032227 367.638855,512.511780 357.974976,482.567657 
	C356.716278,478.667511 357.171936,477.236298 361.433258,476.328522 
	C394.657318,469.251373 428.122009,463.639160 461.798981,459.251373 
	C462.443756,459.167358 463.109100,459.240845 464.835175,459.240845 
	C439.619659,498.951233 416.343201,539.071411 394.613220,581.116028 
	C393.014526,577.323059 391.856842,574.576355 390.535065,571.486206 
z"/>
<path fill="#00D7FE" opacity="1.000000" stroke="none" 
	d="
M603.290344,740.791382 
	C558.542847,722.949341 532.146179,683.808105 533.037659,637.035583 
	C534.047241,584.063721 575.917725,539.035645 629.026184,533.808289 
	C685.823364,528.217896 736.125977,566.707886 745.690674,623.076599 
	C755.031250,678.123779 719.169495,731.635254 664.195190,744.464111 
	C643.715393,749.243347 623.497742,747.900085 603.290344,740.791382 
z"/>
</svg>