<?xml version="1.0" encoding="UTF-8"?>
<svg version="1.1" viewBox="0 0 1600 1600" width="1280" height="1280" xmlns="http://www.w3.org/2000/svg">
<path transform="translate(0)" d="m0 0h1600v1600h-1600v-1600z" fill="#000002"/>
<path transform="translate(356,343)" d="m0 0c33.4-0.14 66.8-0.24 100-0.31 3.94 0 7.89-0.01 11.8-0.02h2.38c12.7-0.03 25.4-0.08 38.2-0.13 13-0.06 26.1-0.09 39.1-0.1 8.06-0.01 16.1-0.04 24.2-0.09 6.18-0.03 12.4-0.04 18.5-0.03 2.54 0 5.07-0.01 7.6-0.04 3.46-0.02 6.91-0.02 10.4 0 1.01-0.02 2.02-0.04 3.06-0.05 6.62 0.08 6.62 0.08 9.22 2.06 1.35 1.58 1.35 1.58 3.31 4.71 0.95 1.36 0.95 1.36 1.92 2.75 0.61 0.93 1.21 1.86 1.83 2.81 5.91 8.98 12 17.8 18.3 26.5 4.46 6.22 8.73 12.6 12.9 18.9 5 7.55 10 15.1 15.2 22.5 2.08 2.96 4.15 5.92 6.21 8.9 0.38 0.54 0.76 1.09 1.15 1.65 2.58 3.73 5.1 7.5 7.6 11.3 2.67 4.03 5.42 7.96 8.39 11.8 1.91 2.57 3.66 5.24 5.42 7.91 0.78 1.17 1.55 2.34 2.33 3.52 0.4 0.6 0.81 1.21 1.22 1.83 4.4 6.62 8.86 13.2 13.4 19.6 3.38 4.8 6.76 9.6 10 14.5 2.58 3.9 5.25 7.73 7.95 11.6 2.55 3.66 5.08 7.33 7.61 11 0.45 0.65 0.9 1.3 1.36 1.97 2.35 3.43 4.68 6.87 6.98 10.3 3.88 5.83 7.93 11.5 12 17.3 3.21 4.56 6.28 9.14 9.07 14 0.35 0.46 0.69 0.92 1.05 1.4h2c0.33 0.93 0.66 1.86 1 2.81 1.95 4.56 4.88 8.3 7.84 12.2 2.08 2.83 4.04 5.7 5.97 8.63 6.65 10 13.5 20 20.4 29.8 2.11 3.01 4.22 6.03 6.31 9.05 0.71 1.01 1.41 2.03 2.13 3.07 1.75 2.54 3.46 5.09 5.17 7.66 3.24 4.87 6.53 9.7 9.83 14.5 0.57 0.83 1.13 1.67 1.72 2.52 0.55 0.81 1.1 1.61 1.66 2.44 0.49 0.72 0.99 1.44 1.49 2.17 1 1.43 2.05 2.83 3.12 4.2 1.32 1.86 1.32 1.86 1.32 3.86l4 1c0.45-0.52 0.89-1.04 1.36-1.57 3.42-3.96 6.94-7.73 10.6-11.4 3.01-3.59 5.77-7.36 8.54-11.1 1.39-1.78 2.86-3.29 4.46-4.87 1.81-2.11 3.6-4.23 5.38-6.36 0.53-0.54 1.07-1.08 1.62-1.64h2c0.25-0.74 0.5-1.49 0.75-2.25 1.38-3.03 2.89-4.43 5.25-6.75 1.5-1.78 2.98-3.57 4.44-5.38 0.79-0.97 1.58-1.94 2.39-2.94 1.22-1.5 2.42-3 3.62-4.52 2.69-3.37 5.67-5.98 8.98-8.7 2.03-1.88 3.23-4.06 4.57-6.46h2c0.27-0.58 0.55-1.16 0.83-1.76 3.79-7.24 9.75-13.9 15.6-19.6 3.51-3.58 6.53-7.49 9.62-11.4 0.99-1.1 0.99-1.1 1.99-2.23h2l2-5h2c0.27-0.58 0.54-1.17 0.81-1.77 1.2-2.26 2.53-4.04 4.19-5.98 0.52-0.61 1.03-1.23 1.56-1.86 1.44-1.39 1.44-1.39 3.44-1.39l2-5h2c0.25-0.56 0.51-1.12 0.77-1.7 1.41-2.64 3.09-4.79 4.98-7.11 0.71-0.88 1.42-1.75 2.14-2.65 1.83-2.2 3.68-4.38 5.55-6.54 2.51-2.7 2.51-2.7 3.56-5 0.99-0.33 1.98-0.66 3-1 0.68-1.32 1.35-2.66 2-4 1.31-1.36 2.65-2.69 4-4 2.16-2.6 4.12-5.19 6-8h2c0.27-0.59 0.53-1.17 0.81-1.77 1.22-2.28 2.53-3.94 4.25-5.85 0.62-0.7 1.23-1.39 1.87-2.1 1.45-1.6 2.92-3.19 4.39-4.78 4.26-4.61 7.87-8.87 10.7-14.5h2c1.39-1.62 2.71-3.3 4-5s2.61-3.38 4-5h2c0.25-0.76 0.49-1.53 0.75-2.31 1.37-2.95 2.64-3.86 5.25-5.69v-2c1.31-1.36 2.65-2.69 4-4l2-3h2c0.41-0.88 0.41-0.88 0.82-1.79 2.93-5.51 7.81-9.84 12.2-14.2 4.22-4.8 7.95-9.94 11.7-15.1 5.83-7.42 5.83-7.42 10.3-8.9 0.33-0.82 0.66-1.65 1-2.5 0.33-0.82 0.66-1.65 1-2.5 1.49-0.5 1.49-0.5 3-1 0.29-0.74 0.58-1.49 0.88-2.25 1.41-3.45 3.47-5.14 6.12-7.75 1.52-1.81 3.02-3.65 4.5-5.5 2.98-3.74 6.1-7.14 9.5-10.5 0.56-0.76 1.11-1.53 1.69-2.31 0.65-0.84 0.65-0.84 1.31-1.69h2c0.25-0.72 0.49-1.44 0.75-2.19 1.37-3.09 2.97-5.32 5.25-7.81h2l2-5h2l2-5h2c0.62-1.08 0.62-1.08 1.25-2.19 2.08-3.34 4.4-5.77 7.75-7.81 3.48-0.61 3.48-0.61 7.35-0.58 1.07-0.01 1.07-0.01 2.15-0.01 2.33 0 4.66 0.03 6.98 0.07 1.63 0 3.25 0.01 4.87 0.01 3.4 0.01 6.79 0.04 10.2 0.08 4.36 0.05 8.71 0.07 13.1 0.09 4.15 0.01 8.31 0.04 12.5 0.07 0.79 0 1.58 0.01 2.4 0.01 2.24 0.02 4.48 0.04 6.72 0.07 1.27 0.01 2.55 0.02 3.86 0.04 2.97 0.15 2.97 0.15 4.97 1.15l-1 5h-2c-0.27 0.8-0.54 1.61-0.81 2.44-0.59 1.27-0.59 1.27-1.19 2.56-1.49 0.5-1.49 0.5-3 1-0.69 1.32-1.35 2.66-2 4-2.32 2.95-4.62 5.63-7.31 8.25-3.18 3.25-5.94 6.74-8.76 10.3-1.59 2.01-3.21 3.98-4.87 5.94-2.06 2.3-2.06 2.3-3.06 4.5h-2c-0.38 0.87-0.38 0.87-0.76 1.76-1.39 2.52-2.97 4.13-5.05 6.12-3.29 3.21-6.33 6.51-9.19 10.1-12 15-12 15-15.4 18.4-2.05 2.09-3.83 4.33-5.65 6.62-0.69 0.87-1.39 1.73-2.1 2.62-1.35 1.75-2.62 3.55-3.84 5.38l-2-1c-0.09 0.57-0.19 1.14-0.29 1.73-0.88 2.79-2.21 4.34-4.15 6.52-0.92 1.06-0.92 1.06-1.87 2.14-1.69 1.61-1.69 1.61-3.69 1.61-0.27 0.64-0.54 1.28-0.81 1.94-1.19 2.06-1.19 2.06-4.19 3.06-0.71 1.31-1.36 2.65-2 4-1.49 2.08-3 4.11-4.56 6.12-0.45 0.58-0.89 1.15-1.35 1.74-4.12 5.28-8.55 10.2-13.1 15.1-6.37 7.01-12.4 14.2-18.1 21.8-0.62 0.72-1.25 1.45-1.89 2.2h-2c-0.27 0.64-0.54 1.28-0.81 1.94-1.19 2.06-1.19 2.06-4.19 3.06-1.05 1.85-1.05 1.85-2 4-5.82 8.2-12.4 16.5-19.6 23.6-2.98 2.99-5.38 6.26-7.88 9.65-0.51 0.59-1.02 1.18-1.55 1.79h-2c-0.27 0.57-0.54 1.14-0.81 1.73-1.23 2.35-2.62 4.39-4.19 6.52-0.52 0.71-1.03 1.41-1.56 2.14-0.71 0.8-0.71 0.8-1.44 1.61h-2c-0.27 0.64-0.54 1.28-0.81 1.94-1.19 2.06-1.19 2.06-4.19 3.06-0.71 1.31-1.36 2.65-2 4-1.94 2.95-3.89 5.9-6.41 8.4-2.07 2.08-3.83 4.36-5.65 6.66-3.99 4.94-8.27 9.38-12.9 13.8-1.9 2.01-3.01 3.65-4.07 6.19h-2c-0.27 0.57-0.54 1.14-0.81 1.73-1.23 2.35-2.62 4.39-4.19 6.52-0.77 1.06-0.77 1.06-1.56 2.14-0.48 0.53-0.95 1.06-1.44 1.61h-2c-0.27 0.64-0.54 1.28-0.81 1.94-1.19 2.06-1.19 2.06-4.19 3.06-0.71 1.31-1.37 2.65-2 4-0.96 1.18-1.97 2.32-3 3.44-3.7 4.12-7.05 8.46-10.4 12.9-2.65 3.51-5.47 6.62-8.64 9.66-3.96 3.81-7.24 7.2-10 12h-2l-2 5h-2c-0.25 0.56-0.5 1.11-0.75 1.69-1.48 2.73-3.18 4.99-5.25 7.31h-2c-0.39 0.87-0.39 0.87-0.8 1.77-1.26 2.34-2.66 4.02-4.45 5.98-2.44 2.72-4.72 5.48-6.87 8.44-2.39 3.24-4.99 6-7.88 8.81-0.91 1.1-1.8 2.2-2.69 3.31-0.76 0.89-1.52 1.78-2.31 2.69h-2c-0.37 0.84-0.37 0.84-0.75 1.69-1.46 2.7-3.23 4.88-5.19 7.25-2.67 3.23-4.98 6.42-7.06 10.1 0.64 0.89 0.64 0.89 1.29 1.8 3.16 4.48 6.24 8.99 9.15 13.6 3 4.77 6.25 9.29 9.6 13.8 1.88 2.63 3.62 5.31 5.34 8.05 3.09 4.96 6.43 9.69 9.85 14.4 3.42 4.75 6.69 9.6 9.91 14.5 3.64 5.47 7.43 10.8 11.3 16.1 4.45 6.16 8.72 12.4 12.8 18.8 2.56 3.95 5.32 7.76 8.08 11.6 3.37 4.68 6.59 9.45 9.77 14.3 3.58 5.38 7.3 10.7 11 16 5.72 8.24 11.4 16.5 17.1 24.8 3.47 5.08 6.95 10.2 10.4 15.2 4.01 5.83 8.01 11.7 12 17.5 5.37 7.86 10.8 15.7 16.2 23.6 1.82 2.65 3.64 5.3 5.46 7.94 0.92 1.34 1.83 2.67 2.75 4 2.34 3.4 4.68 6.81 7.02 10.2 8.74 12.7 8.74 12.7 17.6 25.3 0.45 0.63 0.9 1.25 1.36 1.89 0.88 1.22 1.76 2.44 2.64 3.66 2.32 3.23 4.44 6.5 6.46 9.91 1.53 2.34 3.07 4.68 4.62 7 0.45 0.66 0.89 1.32 1.34 2 5.5 8.2 11.1 16.3 16.9 24.3 4.02 5.57 7.83 11.2 11.5 17 2.41 3.72 5.04 7.26 7.67 10.8 2.82 3.9 5.46 7.9 8.11 11.9 2.32 3.49 4.73 6.91 7.14 10.3 2 2.87 3.93 5.78 5.85 8.69 2.76 4.16 5.62 8.2 8.65 12.2 1.88 2.5 3.57 5.11 5.29 7.72 1.08 1.54 2.16 3.09 3.25 4.62 4.73 6.74 9.25 13.6 13.8 20.5 4.23 6.37 8.55 12.7 13 18.9 1.17 1.67 2.33 3.33 3.5 5 0.58 0.83 1.15 1.65 1.75 2.5 5.25 7.5 5.25 7.5 7 10 1.15 1.64 2.31 3.28 3.46 4.92 5.04 7.15 9.91 14.4 14.7 21.7 3.42 5.2 6.99 10.3 10.6 15.3 6.93 9.8 6.93 9.8 9.75 13.9 0.67 0.99 0.67 0.99 1.36 1.99 0.89 1.57 0.89 1.57 0.89 3.57-33.3 0.11-66.6 0.2-99.8 0.26-3.92 0-7.85 0.01-11.8 0.01-0.78 0.01-1.56 0.01-2.37 0.01-12.7 0.02-25.3 0.06-38 0.11-13 0.04-26 0.07-39 0.08-8.02 0.01-16 0.03-24 0.07-6.15 0.03-12.3 0.03-18.4 0.03-2.53 0-5.05 0.01-7.57 0.03-3.44 0.02-6.88 0.01-10.3 0-1 0.02-2.01 0.03-3.04 0.05-4.46-0.05-7.62-0.15-11.2-3.02-2.43-2.6-4.38-5.12-6.27-8.13-2.85-4.43-5.74-8.8-8.75-13.1-0.75-1.08-1.5-2.16-2.26-3.27-1.39-1.98-2.79-3.97-4.2-5.94-3.05-4.29-5.67-8.43-7.98-13.2l-2-1c-0.96-1.66-1.91-3.32-2.8-5.02-1.22-2.12-1.22-2.12-3.13-4.39-2-2.5-3.65-5.04-5.32-7.78-2.97-4.75-6.24-9.05-9.86-13.3-1.87-2.45-3.35-4.99-4.85-7.69-1.69-2.9-3.68-5.59-5.66-8.29-3.55-4.89-6.99-9.84-10.3-14.9-6.95-10.5-14.1-20.9-21.4-31.2-2.74-3.95-5.37-7.97-8-12-1.61-2.51-1.61-2.51-3.7-4.47v-3h-2c-1.48-2.1-2.85-4.19-4.19-6.38-3.15-5.09-6.47-10-9.92-14.9-4.09-5.88-8-11.9-11.9-17.9-3.64-5.5-7.39-10.8-11.5-16-1.98-2.51-3.71-5.15-5.45-7.84-4.26-6.47-8.64-12.9-13-19.2-1.32-1.92-2.64-3.84-3.96-5.76-0.39-0.57-0.78-1.14-1.18-1.72-2.04-3.01-3.61-5.85-4.82-9.28h-2c-1.37-1.88-1.37-1.88-3-4.56-0.62-1.01-1.24-2.01-1.88-3.04-0.34-0.55-0.68-1.1-1.03-1.66-5.63-8.98-11.6-17.7-18.1-26.1-2.12-2.82-4.07-5.73-6.01-8.68l-4-6c-0.74-1.07-1.49-2.14-2.25-3.25-1.75-2.75-1.75-2.75-1.75-4.75h-2c-1.28-1.89-2.47-3.84-3.62-5.81-3.23-5.43-6.71-10.5-10.5-15.6-2.36-3.23-4.48-6.59-6.57-10-0.65-0.78-0.65-0.78-1.32-1.58-3.02-0.35-3.02-0.35-4.65 1.57-0.85 1.05-0.85 1.05-1.73 2.12-1.93 2.35-3.86 4.55-6.04 6.69-2.75 2.8-5.11 5.79-7.46 8.93-4.55 6.02-9.21 11.8-14.6 17.1-2.97 3.04-5.43 6.34-7.95 9.77-0.51 0.59-1.02 1.18-1.55 1.79h-2c-0.21 0.68-0.41 1.36-0.62 2.06-1.81 3.86-4.28 7.02-7.38 9.94h-2c-0.4 0.96-0.4 0.96-0.81 1.94-1.19 2.06-1.19 2.06-4.19 3.06-1.21 2-1.21 2-2 4h-2c-0.13 0.84-0.13 0.84-0.27 1.7-0.94 2.97-2.49 4.78-4.48 7.18-0.72 0.87-1.45 1.75-2.19 2.66-0.68 0.81-1.36 1.62-2.06 2.46-0.48 0.6-0.97 1.19-1.46 1.81-2.67 3.27-5.56 6.21-8.54 9.19-6.29 6.74-12.3 13.7-17.6 21.3-0.71 0.86-0.71 0.86-1.43 1.74h-2l-2 4h-2c-0.37 0.84-0.37 0.84-0.75 1.69-1.47 2.71-3.29 4.93-5.25 7.31l-2 3h-2l-1 4h-2c-0.09 0.6-0.19 1.2-0.29 1.81-0.87 2.68-1.93 3.49-4.15 5.19-2.79 2.15-4.01 3.86-5.56 7-1.45 1.32-1.45 1.32-3.12 2.56-4.27 3.46-7.11 7.73-10.2 12.2-0.56 0.73-1.12 1.45-1.7 2.2h-2c-0.99 2.47-0.99 2.47-2 5h-2l-2 4h-2l-2 4h-2c-0.24 0.53-0.47 1.06-0.72 1.61-1.65 3.09-3.69 5.84-5.78 8.64-0.61 0.83-0.61 0.83-1.22 1.68-1.04 1.4-2.16 2.74-3.28 4.07h-2c-0.99 2.47-0.99 2.47-2 5h-2c-0.24 0.56-0.47 1.11-0.72 1.68-1.58 2.86-3.56 4.99-5.78 7.38-2.41 2.6-4.53 4.99-6.5 7.94h-2c-0.27 0.8-0.54 1.61-0.81 2.44-0.39 0.84-0.79 1.69-1.19 2.56-0.99 0.33-1.98 0.66-3 1-1.05 1.85-1.05 1.85-2 4-1.5 2.25-1.5 2.25-3 4h-2l-1 3h-2c-0.25 0.73-0.5 1.46-0.75 2.21-1.36 3.04-2.93 4.93-5.19 7.35-2.03 2.19-3.95 4.29-5.69 6.72-0.68 0.85-0.68 0.85-1.37 1.72h-2c-0.26 0.58-0.52 1.16-0.79 1.75-1.29 2.4-2.76 4.17-4.59 6.19-2.64 2.95-5.18 5.94-7.62 9.06l-2-1c-0.09 0.56-0.19 1.12-0.29 1.7-0.89 2.87-2.3 4.7-4.15 7.05-0.61 0.8-1.23 1.6-1.87 2.42-0.56 0.61-1.11 1.21-1.69 1.83h-2c-0.27 0.8-0.54 1.61-0.81 2.44-0.39 0.84-0.79 1.69-1.19 2.56-0.99 0.33-1.98 0.66-3 1-0.68 1.32-1.35 2.66-2 4-1.96 2.09-4.03 4.03-6.12 6-1.81 1.93-2.85 3.59-3.88 6h-2c-0.23 0.53-0.45 1.06-0.69 1.61-1.74 3.18-3.99 5.87-6.31 8.64-0.68 0.83-0.68 0.83-1.37 1.68-1.16 1.4-2.39 2.74-3.63 4.07h-2c-0.26 0.58-0.53 1.15-0.8 1.75-1.26 2.36-2.67 4.21-4.39 6.25-0.61 0.74-1.23 1.49-1.86 2.25-0.97 1.14-0.97 1.14-1.95 2.31-1.27 1.52-2.54 3.05-3.81 4.57-0.57 0.67-1.13 1.34-1.71 2.03-1.64 1.98-1.64 1.98-3.48 4.84h-2l-2 4h-78l-1-2c5-5 5-5 7.25-7.19 7.01-7.17 13.1-14.5 18.6-22.8 2.88-4.01 5.38-7.39 10.1-8.98 0.7-1.65 1.36-3.32 2-5 1.56-1.69 1.56-1.69 3-3l1-2h2c0.56-1.05 1.11-2.1 1.69-3.19 2-3.5 4.38-6.02 7.31-8.81 0.91-1.09 1.8-2.2 2.69-3.31 0.76-0.89 1.52-1.78 2.31-2.69h2c0.26-0.58 0.52-1.16 0.79-1.75 1.29-2.4 2.76-4.17 4.59-6.19 3.22-3.6 6.29-7.26 9.17-11.2 3.34-4.44 6.64-8.1 11-11.6 2.04-1.82 3.15-3.96 4.49-6.33l5-5c0.92-1.26 1.81-2.53 2.69-3.81 1.14-1.58 1.14-1.58 2.31-3.19h2c0.23-0.54 0.45-1.07 0.69-1.62 2.25-4.08 5.3-7.4 8.62-10.6 4.61-4.72 8.57-9.99 12.6-15.2 3.17-4.13 6.33-7.94 10.1-11.5 1.4-1.35 2.8-2.7 4.19-4.06 1.01-0.98 1.01-0.98 2.04-1.98 1.72-1.91 2.75-3.61 3.77-5.96h2c0.24-0.54 0.48-1.09 0.72-1.64 1.61-2.97 3.59-5.43 5.72-8.05 1.17-1.46 1.17-1.46 2.37-2.95 2.19-2.36 2.19-2.36 5.19-3.36 0.29-0.74 0.58-1.49 0.88-2.25 1.41-3.47 3.44-5.13 6.12-7.75 1.86-2.37 3.66-4.78 5.45-7.21 0.51-0.59 1.02-1.18 1.55-1.79h2c0.37-0.84 0.37-0.84 0.75-1.69 1.48-2.73 3.18-4.99 5.25-7.31h2l1-4h2c0.5-0.83 0.99-1.65 1.5-2.5 0.5-0.83 0.99-1.65 1.5-2.5h2c0.34-0.77 0.34-0.77 0.69-1.56 2.5-4.65 5.55-8.74 9.31-12.4 3.33-3.7 6.58-7.47 9.75-11.3 1.69-2.02 3.4-3.84 5.25-5.69 1.34-1.66 2.67-3.33 4-5 2.99-3.67 6-7.34 9-11 0.75-0.93 0.75-0.93 1.52-1.87 1.86-2.27 3.75-4.39 5.86-6.44 2.89-2.97 5.34-6.13 7.86-9.42 3.91-5.05 8.04-9.95 12.8-14.3h2c0.27-0.58 0.54-1.17 0.82-1.77 1.19-2.24 2.5-4.02 4.11-5.98 0.57-0.69 1.14-1.38 1.72-2.09 0.59-0.72 1.18-1.43 1.79-2.16 1.16-1.42 2.33-2.83 3.49-4.25 0.78-0.94 0.78-0.94 1.57-1.89 1.07-1.33 2.09-2.7 3.07-4.09 0.47-0.59 0.94-1.17 1.43-1.77h2l1-4 4-1c0.08-0.58 0.16-1.15 0.25-1.75 0.97-2.91 2.53-4.15 4.75-6.25 2.16-2.6 4.12-5.19 6-8h2c0.34-0.84 0.34-0.84 0.69-1.69 1.66-2.93 3.93-4.93 6.31-7.31l1-3c0.6-0.29 1.2-0.57 1.82-0.87 2.95-1.53 4.17-3.53 6.06-6.25 0.69-0.99 1.39-1.98 2.11-2.99 0.99-1.43 0.99-1.43 2.01-2.89 3.44-4.91 6.78-8.85 11.5-12.6 2.04-1.84 3.21-4.01 4.54-6.39h2c1.38-1.96 2.71-3.97 4-6 0.9-0.96 0.9-0.96 1.81-1.94 1.43-2.47 1.5-4.17 0.95-6.95-2.88-7.96-9.01-14.9-14-21.7-2.01-2.75-3.89-5.57-5.77-8.42l-3.12-4.44c-3.15-4.49-6.25-9.01-9.32-13.6-0.45-0.66-0.9-1.32-1.36-2-3.2-4.77-3.2-4.77-3.2-7h-2c-1.48-2.1-2.85-4.19-4.19-6.38-0.81-1.29-1.62-2.58-2.44-3.88-0.4-0.64-0.8-1.28-1.22-1.94-2.57-4.03-5.37-7.91-8.15-11.8-1.27-1.79-2.54-3.58-3.81-5.38-0.57-0.79-1.13-1.58-1.71-2.39-1.48-2.23-1.48-2.23-2.49-4.33-1.08-2.08-2.33-3.25-3.99-4.9-1.28-1.83-2.53-3.69-3.75-5.56-2.49-3.79-5-7.55-7.63-11.2-2.97-4.22-5.83-8.51-8.68-12.8-3.04-4.59-6.14-9.06-9.51-13.4-2.43-3.32-4.56-6.84-6.72-10.4-1.76-2.68-3.7-5.11-5.71-7.61-1.27-1.84-2.52-3.69-3.75-5.56-1.05-1.58-1.05-1.58-2.11-3.2-0.71-1.07-1.41-2.14-2.14-3.24-6.7-10.1-13.6-20.1-20.6-30.1-2.43-3.47-4.8-6.97-7.13-10.5-5.26-7.94-10.8-15.7-16.3-23.4-4.55-6.42-8.96-12.9-13.3-19.5-2.35-3.54-4.74-7.06-7.19-10.5-2.91-4.12-5.71-8.3-8.5-12.5-3.91-5.9-7.91-11.7-12-17.5-4.7-6.67-9.33-13.4-13.9-20.1-2.58-3.76-5.18-7.5-7.81-11.2-2.33-3.32-4.53-6.69-6.69-10.1-2.93-4.66-6.1-9.09-9.38-13.5-3.42-4.77-6.65-9.66-9.88-14.6-0.58-0.87-0.58-0.87-1.17-1.77-1.09-1.65-2.17-3.31-3.24-4.97-1.53-2.23-3-3.86-4.89-5.74-0.93-1.48-1.83-2.98-2.69-4.5-2.77-4.73-5.89-9.08-9.15-13.5-2.87-4.01-5.5-8.15-8.1-12.3-2.04-3.27-2.04-3.27-4.57-6.15-1.92-1.97-3.08-4.26-4.41-6.66-1.75-3.03-3.82-5.8-5.89-8.62-3.75-5.16-7.28-10.4-10.6-15.8-1.54-2.45-1.54-2.45-3.46-4.75-1.95-2.45-3.74-4.94-5.5-7.53-0.62-0.91-1.25-1.83-1.89-2.77-0.97-1.44-0.97-1.44-1.97-2.91-0.67-0.99-1.35-1.98-2.04-3-3.97-5.85-7.9-11.7-11.8-17.6-1.51-2.21-3.04-4.38-4.62-6.54-0.46-0.64-0.93-1.28-1.41-1.94-0.91-1.24-1.82-2.48-2.74-3.71-3.15-4.3-3.15-4.3-3.15-7.63z" fill="#F8FBFC"/>
<path transform="translate(486 402)" d="m0 0h3.14c3.39 0 6.77 0.01 10.2 0.03 1.16 0 2.32 0.01 3.52 0.01 6.14 0.03 12.3 0.06 18.4 0.1 5.07 0.03 10.2 0.04 15.2 0.04 6.15 0 12.3 0.03 18.4 0.08 2.34 0.01 4.68 0.01 7.02 0.01 3.26-0.01 6.52 0.02 9.78 0.06 0.96-0.01 1.92-0.02 2.92-0.03 6.39 0.13 6.39 0.13 8.96 2.13 1.36 1.61 1.36 1.61 3.31 4.69 0.5 0.66 1 1.32 1.52 2 0.41 0.59 0.82 1.17 1.25 1.77 0.47 0.67 0.94 1.34 1.43 2.04s0.99 1.4 1.49 2.12c0.53 0.75 1.05 1.49 1.59 2.26 3.73 5.32 7.35 10.7 10.9 16.1 6.36 9.59 13 19 19.9 28.2 4.68 6.4 9.13 13 13.6 19.5 5.5 8.03 11.1 16 16.7 23.9 3.01 4.21 6 8.43 8.95 12.7 1.11 1.59 2.23 3.18 3.35 4.76 3.14 4.47 6.22 8.97 9.23 13.5 3.27 4.93 6.69 9.72 10.2 14.5 1.68 2.33 3.29 4.69 4.86 7.09 3.49 5.29 7.25 10.4 11 15.5 4.83 6.57 9.53 13.2 14 20 5.19 7.87 10.4 15.7 16 23.2 2.22 3.05 4.36 6.14 6.49 9.25 2.89 4.18 5.82 8.33 8.82 12.4 7.68 10.5 7.68 10.5 7.68 13.1h2c0.52 0.95 1.04 1.89 1.57 2.87 4.74 8.26 10.6 15.8 16.3 23.4 3.65 4.96 7.06 10 10.4 15.2 1.36 2.01 2.73 3.82 4.33 5.63 2.05 2.48 3.57 4.8 5.19 7.56 2.7 4.62 5.72 8.88 8.9 13.2 3.24 4.45 6.34 9.01 9.43 13.6 2.48 3.65 5.05 7.16 7.85 10.6 6 7.68 6 7.68 6 11h2c1.06 1.63 2.05 3.3 3 5 0.97 1.42 1.95 2.84 2.94 4.25 0.61 0.86 1.22 1.73 1.85 2.62 1.1 1.55 1.1 1.55 2.21 3.13 12.1 17.1 12.1 17.1 17.1 24.2 0.69 0.99 1.38 1.99 2.09 3.01 4.84 7.2 4.84 7.2 4.84 9.74h2c0.11 0.64 0.21 1.28 0.32 1.93 0.34 1.03 0.34 1.03 0.68 2.07 0.99 0.33 1.98 0.66 3 1 1.16 1.75 2.3 3.52 3.38 5.32 8.05 13.3 17.3 25.8 26.3 38.4 0.85 1.18 1.7 2.37 2.54 3.55 0.41 0.57 0.82 1.14 1.24 1.73 2.61 3.64 5.12 7.34 7.58 11.1 2.64 4.01 5.4 7.87 8.31 11.7 3.88 5.1 7.44 10.3 11 15.7 2.51 3.8 5.09 7.53 7.79 11.2 11.9 16.1 11.9 16.1 11.9 19.3h2c1.4 1.95 2.73 3.96 4 6 8.53 13 17.5 25.6 26.6 38.2 4.92 6.88 9.76 13.8 14.4 20.8 3.09 4.47 6.22 8.92 9.4 13.3 4.68 6.52 9.25 13.1 13.7 19.8 1.98 2.93 4.04 5.78 6.13 8.63 8.81 12 8.81 12 8.81 15.2 0.99 0.33 1.98 0.66 3 1 1.4 2 1.4 2 2.82 4.56 2.32 4.03 4.8 7.72 7.63 11.4 2.29 3 4.42 6.1 6.57 9.2 2.31 3.3 4.64 6.57 6.98 9.84 3.48 4.86 6.94 9.73 10.4 14.6 1.13 1.63 2.27 3.26 3.42 4.89 3.35 4.77 6.66 9.57 9.87 14.4 0.86 1.3 1.73 2.59 2.62 3.87 2.73 3.97 2.73 3.97 2.73 6.18 0.99 0.33 1.98 0.66 3 1 1.48 2.01 1.48 2.01 3.07 4.68 2.78 4.53 5.7 8.89 8.81 13.2 4.03 5.59 7.99 11.2 11.9 16.9 1.51 2.19 3.02 4.37 4.54 6.54 0.39 0.56 0.77 1.11 1.17 1.68 1.06 1.52 2.12 3.03 3.18 4.55 3.25 4.73 6.27 9.61 9.33 14.5-1.85-0.05-1.85-0.05-3.74-0.09-6.06-0.15-12.1-0.28-18.2-0.41-1.13-0.03-2.26-0.05-3.42-0.08-14.8-0.31-29.6-0.45-44.4-0.38-1.49 0-2.97 0.01-4.46 0.01-6.57 0.03-13.1 0.07-19.7 0.14-2.08 0.02-4.15 0.03-6.22 0.04-2.55 0.02-5.1 0.04-7.64 0.08-10.6 0.03-10.6 0.03-15.3-3.31-1.67-1.75-1.67-1.75-2.96-3.66-0.49-0.72-0.98-1.43-1.49-2.16-0.49-0.74-0.98-1.48-1.48-2.25-0.49-0.71-0.98-1.42-1.48-2.16-1.01-1.48-2.01-2.96-3.01-4.44-2.8-4.15-5.7-8.24-8.58-12.3-1.16-1.67-2.33-3.34-3.5-5-0.57-0.83-1.15-1.65-1.75-2.5-1.75-2.5-3.5-5-5.25-7.5-0.57-0.83-1.15-1.65-1.74-2.5-1.18-1.69-2.37-3.38-3.55-5.07-3.16-4.52-6.34-9.04-9.53-13.5-7.41-10.5-14.7-21-21.9-31.6-5.77-8.46-11.6-16.9-17.6-25.2-3.78-5.27-7.49-10.6-11.2-15.9-4.38-6.38-8.85-12.7-13.4-19-6.02-8.29-11.8-16.7-17.6-25.2-5.54-8.12-11.1-16.2-16.9-24.1-2.98-4.14-5.85-8.35-8.73-12.6-3.4-4.97-6.86-9.91-10.4-14.8-5.31-7.51-10.5-15.1-15.7-22.6-5.43-7.93-10.9-15.8-16.5-23.6-4.71-6.57-9.29-13.2-13.9-19.9-4.57-6.63-9.19-13.2-14-19.7-4.45-6.12-8.72-12.3-12.9-18.6-7.74-11.3-15.6-22.6-23.6-33.7-4.68-6.49-9.21-13.1-13.6-19.7-3.99-6.02-8.18-11.9-12.4-17.7-6.66-9.27-13.2-18.6-19.5-28.1-3.89-5.87-8.03-11.6-12.2-17.2-3.81-5.23-7.44-10.6-11-16-2.02-3.01-4.18-5.9-6.38-8.79-5.33-7.05-5.33-7.05-5.33-9.75h-2c-1.44-2.02-1.44-2.02-3.12-4.82-2.48-4.02-5.06-7.89-7.88-11.7-2.57-3.49-4.97-7-7.25-10.7-3.47-5.56-7.37-10.7-11.3-16-9.23-12.2-9.23-12.2-12.9-18.4-1.28-2.11-2.6-4.01-4.11-5.95-6.64-8.76-12.7-17.9-18.8-27.1-2.09-3.16-4.25-6.23-6.54-9.25-3.26-4.32-6.3-8.77-9.34-13.2-5.05-7.42-10.2-14.8-15.4-22.1-6.86-9.57-13.6-19.2-20.3-28.9-1.85-2.67-3.71-5.32-5.58-7.98-2.52-3.58-4.96-7.21-7.37-10.9-3.31-5-6.78-9.85-10.3-14.7-2-2.74-3.85-5.56-5.74-8.38-1.24-1.71-2.49-3.42-3.75-5.13-2.76-3.78-5.42-7.59-8-11.5-4.73-7.16-9.7-14.2-14.7-21.2-2.07-2.92-4.13-5.84-6.19-8.76-4.64-6.59-9.31-13.2-14-19.7-2.74-3.82-5.36-7.71-7.93-11.7-2.2-3.18-4.65-6.16-7.12-9.15-1.33-1.94-1.33-1.94-1.33-4.94 7.73-0.74 15.4-1.15 23.1-1.12z" fill="#000002"/>
</svg>
